<svg width="283" height="161" viewBox="0 0 283 161" fill="none" xmlns="http://www.w3.org/2000/svg">
<path d="M0 76.2955C0 69.003 5.0518 62.6833 12.1652 61.0771L271.027 2.62696C276.99 1.2806 282.662 5.81425 282.662 11.9271V84.7045C282.662 91.997 277.61 98.3167 270.496 99.9229L11.6342 158.373C5.67146 159.719 0 155.186 0 149.073V76.2955Z" fill="url(#paint0_linear_1003_77)"/>
<path d="M35.1472 129.858C33.0616 130.301 32.0188 129.22 32.0188 126.613C32.0188 125.05 32.0883 123.187 32.2274 121.025C32.4128 117.385 32.5055 114.262 32.5055 111.656V99.431C32.5055 96.825 32.4128 93.7412 32.2274 90.1795C32.0883 88.0769 32.0188 86.2437 32.0188 84.6801C32.0188 82.0741 33.0616 80.5494 35.1472 80.1061L50.9979 76.737L53.5006 76.0628C54.0568 75.8972 54.6361 75.7267 55.2386 75.5513C55.8875 75.366 56.49 75.2142 57.0462 75.096C58.9 74.7019 59.827 75.3341 59.827 76.9925V81.2569C59.827 82.9153 58.9 83.9415 57.0462 84.3355C56.49 84.4538 55.8875 84.5581 55.2386 84.6487C54.6361 84.7294 54.0568 84.8051 53.5006 84.876L50.9979 85.2658L43.2811 86.906C43.003 86.9651 42.7481 87.1141 42.5164 87.3529C42.331 87.5818 42.2383 87.8621 42.2383 88.1938V109.587C42.2383 112.193 42.331 115.277 42.5164 118.838C42.6554 120.941 42.725 122.774 42.725 124.338C42.725 126.944 41.6822 128.469 39.5965 128.912L35.1472 129.858ZM80.1988 120.992C72.5052 122.628 67.2912 119.827 64.5567 112.59C63.12 108.678 62.4016 104.211 62.4016 99.1887C62.4016 94.0715 63.12 89.299 64.5567 84.8713C67.2912 76.472 72.5052 71.4547 80.1988 69.8194C87.9387 68.1742 93.1528 70.975 95.8409 78.2217C97.2776 82.0385 97.996 86.5056 97.996 91.6229C97.996 96.6454 97.2776 101.418 95.8409 105.94C93.1528 114.33 87.9387 119.347 80.1988 120.992ZM80.1988 113.885C82.1454 113.471 83.5821 112.526 84.5091 111.05C85.4823 109.516 86.1776 107.141 86.5947 103.926C86.9191 101.014 87.0813 97.6861 87.0813 93.9429C87.0813 90.1523 86.9191 86.8937 86.5947 84.1671C86.1776 81.1286 85.4823 79.0731 84.5091 78.0006C83.5821 76.8709 82.1454 76.513 80.1988 76.9267C78.2522 77.3405 76.7923 78.3142 75.819 79.8477C74.8921 81.3241 74.22 83.6702 73.8029 86.8861C73.4785 89.7506 73.3163 93.0782 73.3163 96.8688C73.3163 100.612 73.4785 103.871 73.8029 106.645C74.22 109.683 74.8921 111.767 75.819 112.897C76.7923 113.969 78.2522 114.299 80.1988 113.885ZM115.158 112.851C113.073 113.294 112.03 112.213 112.03 109.607C112.03 108.043 112.1 106.18 112.239 104.019C112.424 100.378 112.517 97.2548 112.517 94.6488V74.3217C112.517 73.7058 112.308 73.2526 111.891 72.9622C111.474 72.6244 110.987 72.5146 110.431 72.6329L109.388 72.8545L106.886 73.5286C106.329 73.6942 105.727 73.8697 105.078 74.055C104.476 74.2304 103.896 74.3773 103.34 74.4955C101.486 74.8895 100.559 74.2574 100.559 72.599V68.3346C100.559 66.6762 101.486 65.65 103.34 65.2559C103.896 65.1377 104.476 65.0383 105.078 64.9576C105.727 64.867 106.329 64.7863 106.886 64.7155L109.388 64.3257L125.378 60.927L127.881 60.2529C128.437 60.0873 129.016 59.9167 129.619 59.7413C130.268 59.556 130.87 59.4042 131.426 59.286C133.28 58.892 134.207 59.5241 134.207 61.1825V65.4469C134.207 67.1053 133.28 68.1315 131.426 68.5256C130.87 68.6438 130.268 68.7482 129.619 68.8387C129.016 68.9194 128.437 68.9951 127.881 69.066L125.378 69.4558L124.335 69.6775C123.733 69.8055 123.223 70.1271 122.806 70.6422C122.435 71.1475 122.25 71.6844 122.25 72.253V92.58C122.25 95.186 122.342 98.2699 122.528 101.832C122.667 103.934 122.736 105.767 122.736 107.331C122.736 109.937 121.693 111.462 119.608 111.905L115.158 112.851ZM154.524 105.194C146.83 106.829 141.616 104.029 138.881 96.7918C137.445 92.8802 136.726 88.4131 136.726 83.3905C136.726 78.2733 137.445 73.5008 138.881 69.0731C141.616 60.6738 146.83 55.6565 154.524 54.0212C162.263 52.376 167.477 55.1768 170.166 62.4235C171.602 66.2403 172.321 70.7074 172.321 75.8247C172.321 80.8472 171.602 85.6197 170.166 90.1421C167.477 98.5316 162.263 103.549 154.524 105.194ZM154.524 98.0867C156.47 97.673 157.907 96.7279 158.834 95.2516C159.807 93.718 160.502 91.3433 160.919 88.1274C161.244 85.2155 161.406 81.8879 161.406 78.1447C161.406 74.3541 161.244 71.0955 160.919 68.3689C160.502 65.3304 159.807 63.2749 158.834 62.2024C157.907 61.0727 156.47 60.7148 154.524 61.1285C152.577 61.5423 151.117 62.5159 150.144 64.0495C149.217 65.5259 148.545 67.872 148.128 71.0879C147.803 73.9524 147.641 77.28 147.641 81.0706C147.641 84.8138 147.803 88.0723 148.128 90.8463C148.545 93.8849 149.217 95.969 150.144 97.0987C151.117 98.1712 152.577 98.5005 154.524 98.0867ZM183.593 98.3044C181.507 98.7478 180.465 97.6664 180.465 95.0604C180.465 93.4968 180.534 91.6341 180.673 89.4723C180.859 85.8318 180.951 82.7086 180.951 80.1026V67.8779C180.951 65.2719 180.859 62.1881 180.673 58.6264C180.534 56.5238 180.465 54.6906 180.465 53.127C180.465 50.521 181.507 48.9963 183.593 48.553L198.053 45.4794C202.549 44.5238 206.002 44.8323 208.412 46.4048C210.868 47.9675 212.096 50.6916 212.096 54.5769C212.096 57.4199 211.401 59.9367 210.011 62.1276C208.667 64.2612 206.651 65.9453 203.962 67.1801C203.823 67.257 203.754 67.3666 203.754 67.5087V67.793C203.754 67.9351 203.823 68.0151 203.962 68.033C207.021 67.9514 209.362 68.7806 210.984 70.5206C212.652 72.2508 213.487 74.7742 213.487 78.091C213.487 82.4028 212.235 86.0566 209.733 89.0525C207.23 92.0483 203.731 94.024 199.235 94.9796L183.593 98.3044ZM195.411 66.6522C197.868 66.1301 199.699 65.1961 200.904 63.8501C202.109 62.4568 202.711 60.623 202.711 58.3487C202.711 56.0743 202.109 54.5203 200.904 53.6866C199.699 52.8056 197.868 52.6261 195.411 53.1483L192.422 53.7837C191.912 53.892 191.495 54.1465 191.171 54.5472C190.846 54.9478 190.684 55.4087 190.684 55.9299V65.8802C190.684 66.4014 190.846 66.7934 191.171 67.0561C191.495 67.3188 191.912 67.396 192.422 67.2876L195.411 66.6522ZM195.411 88.685C197.914 88.153 199.814 87.1332 201.112 85.6254C202.41 84.1176 203.059 81.9896 203.059 79.2414C203.059 74.2663 200.51 72.3206 195.411 73.4042L192.422 74.0396C191.912 74.148 191.495 74.4025 191.171 74.8031C190.846 75.2037 190.684 75.6647 190.684 76.1859V87.913C190.684 88.4342 190.846 88.8262 191.171 89.0889C191.495 89.3516 191.912 89.4288 192.422 89.3204L195.411 88.685ZM238.692 87.3034C230.999 88.9388 225.785 86.138 223.05 78.9011C221.614 74.9895 220.895 70.5224 220.895 65.4999C220.895 60.3826 221.614 55.6101 223.05 51.1825C225.785 42.7832 230.999 37.7658 238.692 36.1305C246.432 34.4853 251.646 37.2861 254.334 44.5328C255.771 48.3497 256.49 52.8168 256.49 57.9341C256.49 62.9566 255.771 67.7291 254.334 72.2515C251.646 80.6409 246.432 85.6583 238.692 87.3034ZM238.692 80.1961C240.639 79.7823 242.076 78.8373 243.003 77.3609C243.976 75.8273 244.671 73.4526 245.088 70.2367C245.413 67.3248 245.575 63.9973 245.575 60.2541C245.575 56.4635 245.413 53.2049 245.088 50.4783C244.671 47.4397 243.976 45.3842 243.003 44.3118C242.076 43.1821 240.639 42.8241 238.692 43.2379C236.746 43.6516 235.286 44.6253 234.313 46.1589C233.386 47.6352 232.714 49.9814 232.297 53.1972C231.972 56.0618 231.81 59.3893 231.81 63.1799C231.81 66.9231 231.972 70.1817 232.297 72.9557C232.714 75.9943 233.386 78.0784 234.313 79.2081C235.286 80.2805 236.746 80.6098 238.692 80.1961Z" fill="white"/>
<defs>
<linearGradient id="paint0_linear_1003_77" x1="172.081" y1="58.5859" x2="172.081" y2="166.877" gradientUnits="userSpaceOnUse">
<stop stop-color="#E42313"/>
<stop offset="1" stop-color="#FC5E51"/>
</linearGradient>
</defs>
</svg>
