<svg width="828" height="381" viewBox="0 0 828 381" fill="none" xmlns="http://www.w3.org/2000/svg">
<path d="M407 101.574C407 93.076 412.943 85.7358 421.255 83.9678L802.711 2.82668C809.555 1.37104 816 6.58964 816 13.586V95.4261C816 103.924 810.057 111.264 801.745 113.032L420.289 194.173C413.445 195.629 407 190.41 407 183.414V101.574Z" fill="url(#paint0_linear_1002_73)"/>
<path d="M8.82289 254.623C6.41665 255.134 5.21353 253.887 5.21353 250.88C5.21353 249.076 5.29373 246.927 5.45415 244.433C5.66804 240.233 5.77498 236.629 5.77498 233.623V219.519C5.77498 216.512 5.66804 212.954 5.45415 208.845C5.29373 206.419 5.21353 204.304 5.21353 202.5C5.21353 199.493 6.41665 197.734 8.82289 197.223L25.5062 193.677C30.693 192.574 34.6766 192.93 37.4572 194.744C40.2912 196.547 41.7082 199.69 41.7082 204.173C41.7082 207.453 40.9061 210.357 39.302 212.884C37.7513 215.346 35.4252 217.289 32.3239 218.713C32.1634 218.802 32.0832 218.929 32.0832 219.093V219.421C32.0832 219.585 32.1634 219.677 32.3239 219.697C35.853 219.603 38.5534 220.56 40.4249 222.567C42.3499 224.564 43.3124 227.475 43.3124 231.302C43.3124 236.276 41.8686 240.492 38.9811 243.948C36.0936 247.405 32.0565 249.684 26.8697 250.787L8.82289 254.623ZM22.4583 218.104C25.2923 217.502 27.4044 216.424 28.7947 214.872C30.185 213.264 30.8801 211.148 30.8801 208.524C30.8801 205.9 30.185 204.107 28.7947 203.146C27.4044 202.129 25.2923 201.922 22.4583 202.524L19.0093 203.257C18.4211 203.383 17.9399 203.676 17.5656 204.138C17.1913 204.601 17.0041 205.132 17.0041 205.734V217.214C17.0041 217.815 17.1913 218.267 17.5656 218.57C17.9399 218.873 18.4211 218.963 19.0093 218.837L22.4583 218.104ZM22.4583 243.524C25.3458 242.911 27.5381 241.734 29.0353 239.994C30.5326 238.255 31.2812 235.8 31.2812 232.629C31.2812 226.889 28.3402 224.644 22.4583 225.894L19.0093 226.627C18.4211 226.753 17.9399 227.046 17.5656 227.508C17.1913 227.971 17.0041 228.502 17.0041 229.104V242.634C17.0041 243.235 17.1913 243.687 17.5656 243.99C17.9399 244.293 18.4211 244.383 19.0093 244.257L22.4583 243.524ZM56.6723 244.452C54.266 244.963 53.0629 243.716 53.0629 240.709C53.0629 238.905 53.1431 236.756 53.3035 234.262C53.5174 230.062 53.6243 226.459 53.6243 223.452V209.348C53.6243 206.341 53.5174 202.783 53.3035 198.674C53.1431 196.248 53.0629 194.133 53.0629 192.329C53.0629 189.323 54.266 187.563 56.6723 187.052L61.8056 185.961C64.2118 185.449 65.4149 186.697 65.4149 189.704C65.4149 191.508 65.3347 193.657 65.1743 196.151C64.9604 200.351 64.8535 203.954 64.8535 206.961V208.683C64.8535 209.011 64.9604 209.289 65.1743 209.517C65.3882 209.69 65.6823 209.737 66.0566 209.657L75.6816 207.611C76.0559 207.532 76.35 207.36 76.5639 207.096C76.7778 206.777 76.8847 206.454 76.8847 206.126V204.404C76.8847 201.397 76.7778 197.839 76.5639 193.73C76.4034 191.304 76.3232 189.189 76.3232 187.385C76.3232 184.378 77.5264 182.619 79.9326 182.108L85.0659 181.017C87.4722 180.505 88.6753 181.753 88.6753 184.76C88.6753 186.564 88.5951 188.713 88.4347 191.207C88.2208 195.407 88.1138 199.01 88.1138 202.017V216.121C88.1138 219.128 88.2208 222.685 88.4347 226.795C88.5951 229.221 88.6753 231.336 88.6753 233.14C88.6753 236.146 87.4722 237.905 85.0659 238.417L79.9326 239.508C77.5264 240.019 76.3232 238.772 76.3232 235.765C76.3232 233.961 76.4034 231.812 76.5639 229.318C76.7778 225.118 76.8847 221.514 76.8847 218.508V216.786C76.8847 216.403 76.751 216.131 76.4837 215.969C76.2698 215.796 76.0024 215.743 75.6816 215.811L66.0566 217.857C65.7358 217.925 65.4417 218.097 65.1743 218.373C64.9604 218.637 64.8535 218.96 64.8535 219.343V221.065C64.8535 224.072 64.9604 227.63 65.1743 231.739C65.3347 234.165 65.4149 236.28 65.4149 238.084C65.4149 241.09 64.2118 242.849 61.8056 243.361L56.6723 244.452ZM102.476 234.716C100.069 235.228 98.8663 233.98 98.8663 230.973C98.8663 229.169 98.9465 227.02 99.1069 224.526C99.3208 220.326 99.4278 216.723 99.4278 213.716V199.612C99.4278 196.605 99.3208 193.047 99.1069 188.938C98.9465 186.512 98.8663 184.397 98.8663 182.593C98.8663 179.587 100.069 177.828 102.476 177.316L106.807 176.396C109.213 175.884 110.416 177.132 110.416 180.138C110.416 181.942 110.336 184.091 110.176 186.585C109.962 190.786 109.855 194.389 109.855 197.396V208.22C109.855 208.548 110.015 208.678 110.336 208.609C110.657 208.541 110.871 208.332 110.978 207.981L123.731 174.684C124.266 173.313 125.148 172.497 126.378 172.236L131.11 171.23C133.516 170.718 134.719 171.966 134.719 174.973C134.719 176.777 134.639 178.926 134.479 181.42C134.265 185.62 134.158 189.223 134.158 192.23V206.334C134.158 209.341 134.265 212.899 134.479 217.008C134.639 219.434 134.719 221.549 134.719 223.353C134.719 226.359 133.516 228.118 131.11 228.63L126.779 229.55C124.372 230.062 123.169 228.814 123.169 225.808C123.169 224.004 123.25 221.855 123.41 219.36C123.624 215.16 123.731 211.557 123.731 208.55V197.726C123.731 197.398 123.57 197.268 123.25 197.337C122.982 197.393 122.768 197.603 122.608 197.965L109.855 231.262C109.534 232.041 109.16 232.612 108.732 232.976C108.358 233.329 107.85 233.574 107.208 233.71L102.476 234.716ZM148.132 225.012C145.726 225.523 144.522 224.276 144.522 221.269C144.522 219.465 144.603 217.316 144.763 214.822C144.977 210.622 145.084 207.018 145.084 204.012V189.908C145.084 186.901 144.977 183.343 144.763 179.234C144.603 176.808 144.522 174.693 144.522 172.889C144.522 169.882 145.726 168.123 148.132 167.612L160.163 165.054C160.858 164.907 161.473 165.022 162.008 165.4C162.596 165.767 162.944 166.24 163.051 166.819L168.344 193.655C168.344 193.874 168.371 194.032 168.424 194.13C168.531 194.217 168.638 194.249 168.745 194.226L169.227 194.124C169.334 194.101 169.414 194.029 169.467 193.909C169.574 193.777 169.628 193.574 169.628 193.301L174.601 164.446C174.707 163.712 175.028 163.07 175.563 162.519C176.151 161.902 176.766 161.525 177.408 161.389L189.599 158.797C192.006 158.286 193.209 159.534 193.209 162.54C193.209 164.344 193.129 166.493 192.968 168.987C192.754 173.188 192.647 176.791 192.647 179.798V193.902C192.647 196.908 192.754 200.466 192.968 204.575C193.129 207.001 193.209 209.116 193.209 210.92C193.209 213.927 192.006 215.686 189.599 216.197L184.867 217.203C182.461 217.715 181.258 216.467 181.258 213.461C181.258 211.657 181.338 209.507 181.498 207.013C181.712 202.813 181.819 199.21 181.819 196.203V171.357C181.819 171.193 181.739 171.128 181.579 171.162L181.178 171.248C181.071 171.27 180.964 171.348 180.857 171.48C180.803 171.6 180.777 171.797 180.777 172.071L173.157 217.232C173.05 217.966 172.702 218.641 172.114 219.258C171.579 219.809 170.991 220.153 170.349 220.289L166.981 221.005C166.286 221.153 165.644 221.071 165.056 220.758C164.521 220.38 164.2 219.874 164.093 219.241L155.752 177.308C155.752 177.089 155.698 176.937 155.591 176.85C155.538 176.752 155.458 176.715 155.351 176.737L154.95 176.823C154.789 176.857 154.709 176.956 154.709 177.12V201.966C154.709 204.972 154.816 208.53 155.03 212.639C155.19 215.065 155.27 217.18 155.27 218.984C155.27 221.991 154.067 223.75 151.661 224.262L148.132 225.012ZM203.095 213.329C201.17 213.738 200.208 213.095 200.208 211.401C200.208 211.237 200.261 210.815 200.368 210.136L201.17 207.096L202.614 201.459L213.121 155.766C213.228 155.142 213.496 154.62 213.923 154.201C214.351 153.728 214.859 153.428 215.447 153.303L222.666 151.769C224.056 151.473 224.912 151.948 225.233 153.191L236.061 194.432C236.328 195.468 236.783 196.984 237.424 198.98C237.959 200.616 238.253 201.564 238.307 201.826C238.414 202.186 238.467 202.667 238.467 203.268C238.467 204.963 237.638 205.986 235.981 206.339L230.446 207.515C229.43 207.731 228.548 207.591 227.799 207.094C227.051 206.597 226.57 205.715 226.356 204.449L225.153 197.324C224.992 196.211 224.35 195.773 223.228 196.012L213.603 198.057C212.694 198.251 212.159 198.938 211.998 200.12C211.517 203.175 211.089 205.726 210.715 207.773C210.127 210.522 208.737 212.13 206.544 212.596L203.095 213.329ZM222.105 189.28C222.479 189.201 222.746 189.035 222.907 188.782C223.121 188.463 223.174 188.151 223.067 187.846L219.538 170.966C219.484 170.649 219.297 170.525 218.977 170.593L218.255 170.747C217.987 170.803 217.8 171.007 217.693 171.358L214.084 189.755V190.001C214.084 190.657 214.405 190.917 215.046 190.781L222.105 189.28ZM249.48 203.47C247.073 203.981 245.87 202.733 245.87 199.727C245.87 197.923 245.95 195.774 246.111 193.28C246.325 189.079 246.432 185.476 246.432 182.469V168.365C246.432 165.359 246.325 161.801 246.111 157.692C245.95 155.266 245.87 153.151 245.87 151.347C245.87 148.34 247.073 146.581 249.48 146.07L254.613 144.978C257.019 144.467 258.222 145.715 258.222 148.721C258.222 150.525 258.142 152.674 257.982 155.168C257.768 159.368 257.661 162.972 257.661 165.979V167.701C257.661 168.029 257.768 168.306 257.982 168.534C258.196 168.708 258.49 168.754 258.864 168.675L268.489 166.629C268.863 166.549 269.157 166.378 269.371 166.113C269.585 165.795 269.692 165.471 269.692 165.143V163.421C269.692 160.415 269.585 156.857 269.371 152.747C269.211 150.322 269.131 148.207 269.131 146.403C269.131 143.396 270.334 141.637 272.74 141.125L277.873 140.034C280.28 139.523 281.483 140.77 281.483 143.777C281.483 145.581 281.402 147.73 281.242 150.224C281.028 154.424 280.921 158.028 280.921 161.034V175.138C280.921 178.145 281.028 181.703 281.242 185.812C281.402 188.238 281.483 190.353 281.483 192.157C281.483 195.164 280.28 196.923 277.873 197.434L272.74 198.525C270.334 199.037 269.131 197.789 269.131 194.783C269.131 192.979 269.211 190.83 269.371 188.335C269.585 184.135 269.692 180.532 269.692 177.525V175.803C269.692 175.421 269.558 175.148 269.291 174.986C269.077 174.813 268.81 174.761 268.489 174.829L258.864 176.875C258.543 176.943 258.249 177.115 257.982 177.39C257.768 177.654 257.661 177.978 257.661 178.361V180.083C257.661 183.089 257.768 186.647 257.982 190.756C258.142 193.182 258.222 195.297 258.222 197.101C258.222 200.108 257.019 201.867 254.613 202.378L249.48 203.47ZM295.283 193.734C292.877 194.245 291.674 192.998 291.674 189.991C291.674 188.187 291.754 186.038 291.914 183.544C292.128 179.344 292.235 175.74 292.235 172.734V158.63C292.235 155.623 292.128 152.065 291.914 147.956C291.754 145.53 291.674 143.415 291.674 141.611C291.674 138.604 292.877 136.845 295.283 136.334L299.614 135.413C302.021 134.902 303.224 136.149 303.224 139.156C303.224 140.96 303.143 143.109 302.983 145.603C302.769 149.803 302.662 153.407 302.662 156.413V167.237C302.662 167.565 302.823 167.695 303.143 167.627C303.464 167.559 303.678 167.349 303.785 166.999L316.538 133.702C317.073 132.331 317.955 131.515 319.185 131.253L323.917 130.247C326.324 129.736 327.527 130.983 327.527 133.99C327.527 135.794 327.446 137.943 327.286 140.437C327.072 144.637 326.965 148.241 326.965 151.247V165.351C326.965 168.358 327.072 171.916 327.286 176.025C327.446 178.451 327.527 180.566 327.527 182.37C327.527 185.377 326.324 187.136 323.917 187.647L319.586 188.568C317.18 189.079 315.977 187.832 315.977 184.825C315.977 183.021 316.057 180.872 316.217 178.378C316.431 174.178 316.538 170.574 316.538 167.568V156.744C316.538 156.416 316.378 156.286 316.057 156.354C315.79 156.411 315.576 156.62 315.415 156.982L302.662 190.279C302.341 191.058 301.967 191.63 301.539 191.994C301.165 192.347 300.657 192.591 300.015 192.728L295.283 193.734ZM368.21 178.643C367.568 178.779 366.873 178.899 366.125 179.004C365.429 179.097 364.761 179.184 364.119 179.266L361.232 179.716L341.34 183.944C338.934 184.455 337.731 183.208 337.731 180.201C337.731 178.397 337.811 176.248 337.972 173.754C338.185 169.554 338.292 165.95 338.292 162.944V148.84C338.292 145.833 338.185 142.275 337.972 138.166C337.811 135.74 337.731 133.625 337.731 131.821C337.731 128.814 338.934 127.055 341.34 126.544L360.43 122.486L363.317 121.709C363.959 121.518 364.627 121.321 365.322 121.118C366.071 120.905 366.766 120.729 367.408 120.593C369.547 120.138 370.616 120.868 370.616 122.781V126.881C370.616 128.794 369.547 129.978 367.408 130.433C366.766 130.569 366.071 130.69 365.322 130.794C364.627 130.887 363.959 130.975 363.317 131.057L360.43 131.506L351.527 133.399C350.938 133.524 350.457 133.817 350.083 134.28C349.709 134.742 349.521 135.274 349.521 135.875V146.945C349.521 147.546 349.709 147.999 350.083 148.302C350.457 148.605 350.938 148.694 351.527 148.569L357.623 147.273L360.51 146.495C361.152 146.304 361.82 146.107 362.515 145.905C363.264 145.691 363.959 145.516 364.601 145.38C366.739 144.925 367.809 145.655 367.809 147.568V151.258C367.809 153.171 366.739 154.355 364.601 154.81C363.959 154.946 363.264 155.067 362.515 155.171C361.82 155.264 361.152 155.352 360.51 155.433L357.623 155.883L351.527 157.179C350.938 157.304 350.457 157.597 350.083 158.06C349.709 158.522 349.521 159.054 349.521 159.655V171.135C349.521 171.736 349.709 172.189 350.083 172.492C350.457 172.795 350.938 172.884 351.527 172.759L361.232 170.696L364.119 169.918C364.761 169.727 365.429 169.53 366.125 169.328C366.873 169.114 367.568 168.939 368.21 168.803C370.349 168.348 371.418 169.077 371.418 170.991V175.091C371.418 177.004 370.349 178.188 368.21 178.643ZM378.806 190.166C378.539 189.95 378.405 189.65 378.405 189.268C378.405 188.721 378.887 187.799 379.849 186.501C384.234 180.594 386.426 176.93 386.426 175.509C386.426 175.126 386.239 174.865 385.865 174.726C385.544 174.63 384.902 174.685 383.94 174.889L380.812 175.554C380.223 175.679 379.742 175.617 379.368 175.369C378.994 175.066 378.806 174.586 378.806 173.93V165.976C378.806 165.32 378.994 164.788 379.368 164.381C379.742 163.919 380.223 163.625 380.812 163.5L388.592 161.846C389.18 161.721 389.661 161.81 390.036 162.113C390.41 162.362 390.597 162.814 390.597 163.47V172.244C390.597 173.009 390.49 173.852 390.276 174.772C389.688 176.592 388.485 178.98 386.667 181.935C384.849 184.946 383.271 187.277 381.935 188.927C381.239 189.786 380.544 190.289 379.849 190.437C379.421 190.528 379.074 190.437 378.806 190.166ZM451.59 160.51C449.183 161.021 447.98 159.774 447.98 156.767C447.98 154.963 448.06 152.814 448.221 150.32C448.435 146.12 448.542 142.516 448.542 139.51V125.406C448.542 122.399 448.435 118.841 448.221 114.732C448.06 112.306 447.98 110.191 447.98 108.387C447.98 105.38 449.183 103.621 451.59 103.11L456.723 102.019C459.129 101.507 460.332 102.755 460.332 105.761C460.332 107.565 460.252 109.714 460.092 112.209C459.878 116.409 459.771 120.012 459.771 123.019V123.921C459.771 124.522 459.958 124.974 460.332 125.277C460.707 125.581 461.188 125.67 461.776 125.545L463.621 125.152C468.166 124.186 470.439 121.107 470.439 115.913L470.358 112.486C470.251 109.994 470.198 107.6 470.198 105.304C470.198 103.446 470.599 101.884 471.401 100.621C472.203 99.3022 473.38 98.4781 474.93 98.1485L480.705 96.921C481.293 96.796 481.721 96.8964 481.989 97.2222C482.309 97.5367 482.416 98.006 482.309 98.63C481.989 100.557 481.828 102.586 481.828 104.718L481.908 107.899C481.962 108.38 481.989 109.058 481.989 109.932C481.989 113.759 481.4 116.945 480.224 119.491C479.048 122.037 477.203 124.124 474.69 125.752C474.529 125.84 474.449 125.967 474.449 126.131V126.459C474.449 126.568 474.529 126.66 474.69 126.736C477.631 127.259 479.716 128.537 480.946 130.572C482.229 132.595 482.871 135.848 482.871 140.331C482.871 144.212 483.539 147.815 484.876 151.138C484.983 151.444 485.036 151.706 485.036 151.924C485.036 152.362 484.876 152.751 484.555 153.093C484.288 153.423 483.887 153.645 483.352 153.758L475.652 155.395C474.262 155.691 473.139 155.383 472.283 154.471C471.428 153.56 471 152.175 471 150.316L471.08 146.199C471.187 143.661 471.241 141.19 471.241 138.785C471.241 136.215 470.679 134.394 469.556 133.321C468.487 132.181 466.589 131.902 463.861 132.481L461.776 132.925C461.188 133.05 460.707 133.343 460.332 133.805C459.958 134.268 459.771 134.799 459.771 135.401V137.123C459.771 140.129 459.878 143.687 460.092 147.797C460.252 150.222 460.332 152.337 460.332 154.141C460.332 157.148 459.129 158.907 456.723 159.419L451.59 160.51ZM512.497 148.384C503.62 150.27 497.605 147.039 494.45 138.689C492.792 134.177 491.963 129.023 491.963 123.228C491.963 117.324 492.792 111.818 494.45 106.709C497.605 97.0189 503.62 91.2303 512.497 89.3435C521.426 87.4454 527.442 90.6768 530.543 99.0376C532.201 103.441 533.03 108.595 533.03 114.499C533.03 120.294 532.201 125.8 530.543 131.018C527.442 140.697 521.426 146.485 512.497 148.384ZM512.497 140.184C514.742 139.706 516.4 138.616 517.47 136.913C518.592 135.143 519.395 132.403 519.876 128.693C520.25 125.333 520.437 121.494 520.437 117.176C520.437 112.802 520.25 109.043 519.876 105.897C519.395 102.391 518.592 100.02 517.47 98.7825C516.4 97.4792 514.742 97.0662 512.497 97.5435C510.251 98.0209 508.566 99.1442 507.444 100.914C506.374 102.617 505.599 105.324 505.118 109.034C504.743 112.339 504.556 116.178 504.556 120.551C504.556 124.87 504.743 128.63 505.118 131.83C505.599 135.336 506.374 137.74 507.444 139.044C508.566 140.281 510.251 140.661 512.497 140.184ZM546.035 140.435C543.629 140.946 542.426 139.699 542.426 136.692C542.426 134.888 542.506 132.739 542.666 130.245C542.88 126.045 542.987 122.441 542.987 119.435V105.331C542.987 102.324 542.88 98.7659 542.666 94.6567C542.506 92.2308 542.426 90.1159 542.426 88.3119C542.426 85.3052 543.629 83.5462 546.035 83.0347L551.168 81.9436C553.575 81.4321 554.778 82.6797 554.778 85.6864C554.778 87.4904 554.698 89.6394 554.537 92.1335C554.323 96.3337 554.216 99.9371 554.216 102.944V104.666C554.216 104.994 554.323 105.272 554.537 105.5C554.751 105.673 555.045 105.72 555.42 105.64L565.044 103.594C565.419 103.515 565.713 103.343 565.927 103.079C566.141 102.76 566.248 102.436 566.248 102.108V100.386C566.248 97.3797 566.141 93.8218 565.927 89.7126C565.766 87.2867 565.686 85.1717 565.686 83.3677C565.686 80.3611 566.889 78.602 569.296 78.0906L574.429 76.9994C576.835 76.488 578.038 77.7356 578.038 80.7422C578.038 82.5462 577.958 84.6953 577.798 87.1894C577.584 91.3895 577.477 94.9929 577.477 97.9996V112.104C577.477 115.11 577.584 118.668 577.798 122.777C577.958 125.203 578.038 127.318 578.038 129.122C578.038 132.129 576.835 133.888 574.429 134.399L569.296 135.491C566.889 136.002 565.686 134.754 565.686 131.748C565.686 129.944 565.766 127.795 565.927 125.301C566.141 121.1 566.248 117.497 566.248 114.49V112.768C566.248 112.386 566.114 112.113 565.847 111.952C565.633 111.778 565.365 111.726 565.044 111.794L555.42 113.84C555.099 113.908 554.805 114.08 554.537 114.356C554.323 114.62 554.216 114.943 554.216 115.326V117.048C554.216 120.054 554.323 123.612 554.537 127.722C554.698 130.147 554.778 132.262 554.778 134.066C554.778 137.073 553.575 138.832 551.168 139.344L546.035 140.435ZM592.24 130.614C589.833 131.125 588.63 129.877 588.63 126.871C588.63 125.067 588.71 122.918 588.871 120.424C589.085 116.224 589.192 112.62 589.192 109.613V95.5095C589.192 92.5028 589.085 88.9449 588.871 84.8357C588.71 82.4098 588.63 80.2948 588.63 78.4908C588.63 75.4842 589.833 73.7251 592.24 73.2136L597.373 72.1225C599.779 71.6111 600.982 72.8587 600.982 75.8653C600.982 77.6693 600.902 79.8184 600.742 82.3125C600.528 86.5126 600.421 90.116 600.421 93.1227V94.0247C600.421 94.626 600.608 95.0782 600.982 95.3813C601.357 95.6844 601.838 95.7735 602.426 95.6484L604.271 95.2563C608.816 94.2902 611.089 91.2105 611.089 86.0172L611.008 82.5902C610.901 80.0983 610.848 77.7043 610.848 75.4083C610.848 73.5497 611.249 71.9884 612.051 70.7246C612.853 69.4061 614.029 68.5821 615.58 68.2524L621.355 67.0249C621.943 66.8999 622.371 67.0003 622.638 67.3262C622.959 67.6406 623.066 68.1099 622.959 68.734C622.638 70.6608 622.478 72.6903 622.478 74.8223L622.558 78.0032C622.612 78.4838 622.638 79.1615 622.638 80.0362C622.638 83.8628 622.05 87.0492 620.874 89.5952C619.698 92.1413 617.853 94.2281 615.34 95.8556C615.179 95.9444 615.099 96.0707 615.099 96.2347V96.5627C615.099 96.6721 615.179 96.7644 615.34 96.8396C618.281 97.3625 620.366 98.6412 621.596 100.676C622.879 102.699 623.521 105.952 623.521 110.435C623.521 114.316 624.189 117.919 625.526 121.242C625.633 121.548 625.686 121.81 625.686 122.028C625.686 122.466 625.526 122.855 625.205 123.197C624.938 123.527 624.537 123.749 624.002 123.862L616.302 125.499C614.912 125.795 613.789 125.487 612.933 124.575C612.078 123.664 611.65 122.279 611.65 120.42L611.73 116.303C611.837 113.765 611.891 111.294 611.891 108.889C611.891 106.319 611.329 104.498 610.206 103.425C609.137 102.285 607.239 102.006 604.511 102.585L602.426 103.028C601.838 103.153 601.357 103.447 600.982 103.909C600.608 104.372 600.421 104.903 600.421 105.505V107.227C600.421 110.233 600.528 113.791 600.742 117.9C600.902 120.326 600.982 122.441 600.982 124.245C600.982 127.252 599.779 129.011 597.373 129.523L592.24 130.614ZM634.057 121.725C633.469 121.85 632.988 121.761 632.613 121.458C632.239 121.155 632.052 120.703 632.052 120.101V114.771C632.052 114.17 632.239 113.638 632.613 113.176C632.988 112.714 633.469 112.42 634.057 112.295L639.11 111.221C640.554 110.914 641.516 110.491 641.998 109.951C642.532 109.4 643.014 108.287 643.441 106.61L643.842 104.967C643.896 104.792 643.923 104.458 643.923 103.966C643.923 103.31 643.869 102.884 643.762 102.688L633.897 76.0032C633.897 76.0032 633.335 74.5918 632.212 71.7692C632.105 71.5186 631.704 70.5652 631.009 68.9089C630.742 68.1457 630.608 67.5455 630.608 67.1082C630.608 65.7415 631.383 64.8934 632.934 64.5637L638.067 63.4726C640.26 63.0066 641.757 63.973 642.559 66.3719C642.773 67.0371 643.04 68.0463 643.361 69.3994L644.645 73.8006L648.896 87.083C649.003 87.3883 649.216 87.5068 649.537 87.4387C649.912 87.3591 650.125 87.1496 650.179 86.8103L654.189 71.8538C654.564 70.4623 654.965 68.7917 655.392 66.8421L656.195 63.4736C656.569 62.082 657.13 61.006 657.879 60.2456C658.681 59.4191 659.59 58.8979 660.606 58.6819L664.135 57.9318C665.686 57.6022 666.461 58.148 666.461 59.5694C666.461 60.1707 666.354 60.7948 666.14 61.4416C665.819 62.4938 665.392 63.7873 664.857 65.3223L663.413 69.7292L652.024 107.656C651.115 110.637 650.286 112.891 649.537 114.417C648.789 115.942 647.773 117.17 646.489 118.099C645.259 119.016 643.522 119.713 641.276 120.191L634.057 121.725ZM675.406 112.936C673 113.448 671.796 112.2 671.796 109.193C671.796 107.389 671.877 105.24 672.037 102.746C672.251 98.546 672.358 94.9426 672.358 91.936V77.832C672.358 74.8253 672.251 71.2674 672.037 67.1582C671.877 64.7323 671.796 62.6173 671.796 60.8133C671.796 57.8066 673 56.0476 675.406 55.5361L691.287 52.1605C697.062 50.933 701.473 51.5259 704.521 53.9394C707.569 56.2982 709.093 60.047 709.093 65.1856C709.093 70.3243 707.569 74.7482 704.521 78.4574C701.473 82.1119 697.062 84.553 691.287 85.7805L685.592 86.9909C685.004 87.116 684.523 87.4096 684.148 87.8718C683.774 88.334 683.587 88.8658 683.587 89.4671V89.5491C683.587 92.5558 683.694 96.1137 683.908 100.223C684.068 102.649 684.148 104.764 684.148 106.568C684.148 109.574 682.945 111.334 680.539 111.845L675.406 112.936ZM688.239 78.6383C694.388 77.3312 697.463 73.671 697.463 67.6577C697.463 61.6444 694.388 59.2912 688.239 60.5983L685.592 61.1609C685.004 61.286 684.523 61.5796 684.148 62.0418C683.774 62.504 683.587 63.0358 683.587 63.6371V77.5771C683.587 78.1785 683.774 78.6307 684.148 78.9338C684.523 79.2369 685.004 79.326 685.592 79.2009L688.239 78.6383ZM735.354 101.014C731.29 101.878 727.788 101.501 724.847 99.8851C721.906 98.2142 719.66 95.3023 718.109 91.1492C716.452 86.6362 715.623 81.4824 715.623 75.6877C715.623 69.7837 716.452 64.2776 718.109 59.1692C719.66 54.3569 721.906 50.5176 724.847 47.6511C727.788 44.73 731.29 42.8375 735.354 41.9737C739.097 41.1781 742.332 41.3652 745.059 42.5348C747.786 43.7045 749.845 45.7543 751.235 48.6841C752.626 51.6139 753.267 55.2768 753.16 59.6729C753.16 60.2742 752.946 60.8117 752.519 61.2853C752.144 61.7475 751.663 62.0411 751.075 62.1662L745.139 63.4278C743.803 63.7119 743.107 63.1763 743.054 61.821C742.68 56.8713 741.904 53.6467 740.728 52.1475C739.552 50.5935 737.894 50.0439 735.755 50.4985C733.83 50.9077 732.306 51.9696 731.183 53.6843C730.06 55.3989 729.258 58.1388 728.777 61.9037C728.403 65.2086 728.216 68.9111 728.216 73.0111C728.216 77.0564 728.403 80.6793 728.777 83.8797C729.258 87.4401 730.06 89.8389 731.183 91.0763C732.306 92.3136 733.83 92.7277 735.755 92.3185C737.894 91.8639 739.552 90.6642 740.728 88.7195C741.904 86.7201 742.653 83.3356 742.974 78.5661C743.027 77.9534 743.241 77.4433 743.615 77.0357C743.99 76.5735 744.471 76.2799 745.059 76.1548L750.995 74.8932C751.583 74.7682 752.064 74.8572 752.438 75.1603C752.866 75.4521 753.08 75.8986 753.08 76.5C753.187 80.6319 752.519 84.4366 751.075 87.9142C749.685 91.3257 747.626 94.1686 744.899 96.4429C742.172 98.7173 738.99 100.241 735.354 101.014Z" fill="white"/>
<path d="M10.4689 346.313C9.92635 345.943 9.65507 345.307 9.65507 344.406V342.742C9.65507 341.84 9.92635 341.089 10.4689 340.489L16.776 333.532C17.0473 333.266 17.3016 333.108 17.5389 333.058C17.7424 333.015 17.9119 333.065 18.0476 333.21C18.2171 333.312 18.3019 333.485 18.3019 333.728V337.16C18.3019 337.68 18.2341 338.093 18.0984 338.399C17.9967 338.663 17.7763 338.987 17.4372 339.371L16.1148 340.849C15.8774 341.142 15.6231 341.386 15.3518 341.583C15.1144 341.772 14.8601 341.947 14.5889 342.109C14.3176 342.271 14.1819 342.438 14.1819 342.611C14.1819 342.785 14.3006 342.898 14.538 342.952C14.7754 343.005 15.0127 343.076 15.2501 343.164C15.5214 343.211 15.8096 343.34 16.1148 343.553L17.4372 344.467C17.7763 344.707 17.9967 344.955 18.0984 345.211C18.2341 345.425 18.3019 345.792 18.3019 346.312V349.744C18.3019 349.986 18.2171 350.212 18.0476 350.422C17.9119 350.589 17.7424 350.695 17.5389 350.738C17.3016 350.788 17.0473 350.738 16.776 350.588L10.4689 346.313ZM20.3873 344.62C19.8448 344.25 19.5735 343.615 19.5735 342.713V340.217C19.5735 339.316 19.8448 338.565 20.3873 337.964L25.9314 331.846C26.2027 331.58 26.457 331.422 26.6944 331.372C26.8979 331.329 27.0674 331.379 27.203 331.524C27.3726 331.626 27.4574 331.799 27.4574 332.042V335.214C27.4574 335.734 27.3895 336.147 27.2539 336.453C27.1522 336.717 26.9318 337.041 26.5927 337.425L25.3719 338.777C24.9989 339.203 24.6429 339.539 24.3038 339.784C23.9986 339.987 23.7782 340.156 23.6426 340.288C23.5069 340.387 23.4391 340.505 23.4391 340.644C23.4391 340.748 23.49 340.841 23.5917 340.923C23.6934 340.971 23.9139 341.046 24.2529 341.147C24.6259 341.241 24.9989 341.422 25.3719 341.689L26.5927 342.521C26.9318 342.761 27.1522 343.009 27.2539 343.265C27.3895 343.479 27.4574 343.846 27.4574 344.366V347.538C27.4574 347.78 27.3726 348.006 27.203 348.216C27.0674 348.383 26.8979 348.489 26.6944 348.532C26.457 348.582 26.2027 348.532 25.9314 348.382L20.3873 344.62ZM45.9646 350.676C43.3875 351.224 41.1665 350.985 39.3015 349.96C37.4365 348.901 36.0123 347.054 35.0289 344.42C33.9778 341.558 33.4522 338.29 33.4522 334.615C33.4522 330.871 33.9778 327.38 35.0289 324.14C36.0123 321.089 37.4365 318.654 39.3015 316.836C41.1665 314.984 43.3875 313.784 45.9646 313.236C48.3383 312.731 50.3898 312.85 52.1191 313.592C53.8485 314.333 55.154 315.633 56.0356 317.491C56.9173 319.349 57.3242 321.672 57.2564 324.46C57.2564 324.841 57.1207 325.182 56.8495 325.482C56.6121 325.775 56.3069 325.961 55.9339 326.041L52.17 326.841C51.3223 327.021 50.8815 326.681 50.8475 325.822C50.6102 322.683 50.1185 320.638 49.3725 319.687C48.6265 318.702 47.5753 318.353 46.219 318.642C44.9982 318.901 44.0318 319.575 43.3197 320.662C42.6076 321.749 42.099 323.487 41.7938 325.874C41.5564 327.97 41.4378 330.318 41.4378 332.918C41.4378 335.483 41.5564 337.781 41.7938 339.81C42.099 342.068 42.6076 343.589 43.3197 344.374C44.0318 345.159 44.9982 345.421 46.219 345.162C47.5753 344.873 48.6265 344.113 49.3725 342.879C50.1185 341.612 50.5932 339.465 50.7967 336.441C50.8306 336.052 50.9662 335.729 51.2036 335.47C51.441 335.177 51.7461 334.991 52.1191 334.912L55.883 334.112C56.2561 334.032 56.5612 334.089 56.7986 334.281C57.0699 334.466 57.2055 334.749 57.2055 335.13C57.2733 337.751 56.8495 340.163 55.9339 342.369C55.0523 344.532 53.7468 346.335 52.0174 347.777C50.288 349.219 48.2705 350.186 45.9646 350.676ZM65.5603 345.991C64.0344 346.315 63.2714 345.524 63.2714 343.617C63.2714 342.473 63.3223 341.11 63.424 339.529C63.5597 336.865 63.6275 334.58 63.6275 332.673V323.729C63.6275 321.823 63.5597 319.567 63.424 316.961C63.3223 315.422 63.2714 314.081 63.2714 312.937C63.2714 311.03 64.0344 309.915 65.5603 309.591L68.8156 308.899C70.3415 308.574 71.1044 309.365 71.1044 311.272C71.1044 312.416 71.0536 313.779 70.9519 315.361C70.8162 318.024 70.7484 320.309 70.7484 322.216V323.308C70.7484 323.516 70.8162 323.692 70.9519 323.837C71.0875 323.946 71.274 323.976 71.5114 323.926L77.615 322.628C77.8524 322.578 78.0389 322.469 78.1745 322.301C78.3101 322.099 78.378 321.894 78.378 321.686V320.594C78.378 318.687 78.3101 316.431 78.1745 313.825C78.0728 312.287 78.0219 310.946 78.0219 309.802C78.0219 307.895 78.7849 306.78 80.3108 306.455L83.566 305.763C85.092 305.439 85.8549 306.23 85.8549 308.137C85.8549 309.281 85.8041 310.644 85.7023 312.225C85.5667 314.889 85.4989 317.174 85.4989 319.081V328.025C85.4989 329.931 85.5667 332.187 85.7023 334.793C85.8041 336.332 85.8549 337.673 85.8549 338.817C85.8549 340.724 85.092 341.839 83.566 342.163L80.3108 342.855C78.7849 343.18 78.0219 342.388 78.0219 340.482C78.0219 339.338 78.0728 337.975 78.1745 336.393C78.3101 333.73 78.378 331.445 78.378 329.538V328.446C78.378 328.203 78.2932 328.031 78.1236 327.928C77.988 327.818 77.8185 327.785 77.615 327.828L71.5114 329.126C71.3079 329.169 71.1214 329.278 70.9519 329.453C70.8162 329.62 70.7484 329.825 70.7484 330.068V331.16C70.7484 333.067 70.8162 335.323 70.9519 337.929C71.0536 339.467 71.1044 340.808 71.1044 341.952C71.1044 343.859 70.3415 344.974 68.8156 345.299L65.5603 345.991ZM92.168 340.335C90.9473 340.594 90.3369 340.187 90.3369 339.112C90.3369 339.008 90.3708 338.741 90.4387 338.311L90.9473 336.382L91.8628 332.808L98.526 303.832C98.5938 303.436 98.7633 303.105 99.0346 302.839C99.3059 302.539 99.628 302.349 100.001 302.27L104.579 301.297C105.46 301.11 106.003 301.41 106.206 302.199L113.073 328.351C113.243 329.009 113.531 329.97 113.938 331.236C114.277 332.273 114.463 332.875 114.497 333.041C114.565 333.269 114.599 333.574 114.599 333.955C114.599 335.03 114.073 335.679 113.022 335.902L109.513 336.648C108.868 336.785 108.309 336.696 107.834 336.381C107.359 336.066 107.054 335.507 106.918 334.704L106.156 330.186C106.054 329.479 105.647 329.202 104.935 329.353L98.8312 330.651C98.2547 330.773 97.9156 331.209 97.8139 331.959C97.5087 333.896 97.2374 335.513 97.0001 336.812C96.6271 338.555 95.7454 339.575 94.3552 339.87L92.168 340.335ZM104.223 325.085C104.46 325.034 104.63 324.929 104.731 324.769C104.867 324.566 104.901 324.369 104.833 324.175L102.595 313.471C102.561 313.27 102.442 313.191 102.239 313.234L101.781 313.332C101.612 313.368 101.493 313.497 101.425 313.719L99.1363 325.386V325.542C99.1363 325.958 99.3398 326.123 99.7467 326.036L104.223 325.085ZM133.192 331.615C131.666 331.939 130.904 331.148 130.904 329.241C130.904 328.097 130.954 326.735 131.056 325.153C131.192 322.49 131.26 320.204 131.26 318.298V317.83C131.26 317.622 131.192 317.48 131.056 317.405C130.92 317.295 130.734 317.283 130.497 317.368C129.072 318.017 127.563 318.511 125.97 318.85C123.698 319.333 121.901 319.455 120.578 319.216C119.29 318.935 118.357 318.267 117.781 317.211C117.204 316.12 116.916 314.552 116.916 312.507V312.403C116.916 310.496 116.848 308.24 116.713 305.634C116.611 304.095 116.56 302.754 116.56 301.61C116.56 299.704 117.323 298.588 118.849 298.264L122.104 297.572C123.63 297.248 124.393 298.039 124.393 299.945C124.393 301.089 124.342 302.452 124.24 304.034C124.105 306.697 124.037 308.965 124.037 310.837C124.037 311.704 124.122 312.344 124.291 312.759C124.495 313.166 124.851 313.42 125.359 313.52C125.902 313.578 126.699 313.495 127.75 313.272C128.903 313.027 129.835 312.69 130.547 312.261C130.717 312.156 130.87 312.002 131.005 311.8C131.175 311.556 131.26 311.312 131.26 311.07V309.354C131.26 307.447 131.192 305.191 131.056 302.585C130.954 301.047 130.904 299.705 130.904 298.561C130.904 296.655 131.666 295.539 133.192 295.215L136.448 294.523C137.974 294.199 138.737 294.99 138.737 296.897C138.737 298.041 138.686 299.403 138.584 300.985C138.448 303.648 138.38 305.934 138.38 307.84V316.784C138.38 318.691 138.448 320.947 138.584 323.553C138.686 325.091 138.737 326.433 138.737 327.577C138.737 329.483 137.974 330.599 136.448 330.923L133.192 331.615ZM145.015 329.102C143.795 329.361 143.184 328.954 143.184 327.879C143.184 327.775 143.218 327.508 143.286 327.077L143.795 325.149L144.71 321.575L151.373 292.598C151.441 292.203 151.611 291.872 151.882 291.606C152.153 291.306 152.475 291.116 152.848 291.037L157.426 290.064C158.308 289.877 158.85 290.177 159.054 290.966L165.92 317.118C166.09 317.776 166.378 318.737 166.785 320.003C167.124 321.04 167.311 321.642 167.345 321.808C167.412 322.036 167.446 322.341 167.446 322.722C167.446 323.797 166.921 324.446 165.87 324.669L162.36 325.415C161.716 325.552 161.156 325.463 160.681 325.148C160.207 324.833 159.902 324.274 159.766 323.471L159.003 318.953C158.901 318.246 158.494 317.969 157.782 318.12L151.679 319.418C151.102 319.54 150.763 319.976 150.661 320.726C150.356 322.663 150.085 324.28 149.848 325.579C149.475 327.322 148.593 328.341 147.203 328.637L145.015 329.102ZM157.07 313.852C157.308 313.801 157.477 313.696 157.579 313.535C157.714 313.333 157.748 313.135 157.681 312.942L155.443 302.238C155.409 302.037 155.29 301.958 155.086 302.001L154.629 302.099C154.459 302.135 154.34 302.264 154.273 302.486L151.984 314.153V314.309C151.984 314.725 152.187 314.889 152.594 314.803L157.07 313.852ZM173.009 323.412C171.483 323.736 170.466 323.848 169.957 323.748C169.448 323.614 169.143 323.28 169.041 322.747C168.94 322.353 168.889 321.67 168.889 320.699C168.889 320.145 168.923 319.618 168.991 319.118C169.126 318.43 169.347 317.95 169.652 317.677C169.991 317.397 170.601 317.163 171.483 316.976C172.331 316.796 172.958 316.541 173.365 316.212C173.806 315.876 174.111 315.481 174.28 315.029C174.484 314.536 174.721 313.757 174.993 312.694L175.298 311.485C175.772 309.651 176.247 306.465 176.722 301.926C177.231 297.346 177.604 292.466 177.841 287.285C177.875 286.827 178.044 286.427 178.35 286.085C178.689 285.7 179.062 285.465 179.469 285.379L192.032 282.708C193.558 282.384 194.321 283.175 194.321 285.082C194.321 286.226 194.27 287.589 194.168 289.17C194.032 291.834 193.965 294.119 193.965 296.025V304.969C193.965 306.876 194.032 309.132 194.168 311.738C194.27 313.277 194.321 314.618 194.321 315.762C194.321 317.668 193.558 318.784 192.032 319.108L188.777 319.8C187.251 320.125 186.488 319.333 186.488 317.427C186.488 316.283 186.539 314.92 186.64 313.338C186.776 310.675 186.844 308.39 186.844 306.483V290.311C186.844 290.068 186.759 289.896 186.589 289.793C186.454 289.683 186.284 289.65 186.081 289.693L183.334 290.277C183.131 290.32 182.944 290.429 182.775 290.604C182.639 290.771 182.554 290.98 182.52 291.23C182.181 296.918 181.757 301.896 181.249 306.164C180.74 310.432 180.231 313.73 179.723 316.057C179.248 318.134 178.502 319.783 177.485 321.004C176.468 322.191 174.976 322.994 173.009 323.412ZM200.645 317.278C199.424 317.537 198.813 317.129 198.813 316.055C198.813 315.951 198.847 315.684 198.915 315.253L199.424 313.325L200.339 309.75L207.003 280.774C207.07 280.378 207.24 280.048 207.511 279.782C207.782 279.482 208.105 279.292 208.478 279.213L213.055 278.24C213.937 278.052 214.479 278.353 214.683 279.142L221.55 305.294C221.719 305.951 222.007 306.913 222.414 308.178C222.753 309.216 222.94 309.817 222.974 309.983C223.042 310.212 223.075 310.516 223.075 310.898C223.075 311.972 222.55 312.621 221.499 312.845L217.989 313.591C217.345 313.728 216.785 313.639 216.311 313.324C215.836 313.009 215.531 312.449 215.395 311.646L214.632 307.128C214.53 306.422 214.123 306.145 213.411 306.296L207.308 307.593C206.731 307.716 206.392 308.152 206.29 308.902C205.985 310.838 205.714 312.456 205.477 313.754C205.104 315.498 204.222 316.517 202.832 316.813L200.645 317.278ZM212.699 302.027C212.937 301.977 213.106 301.871 213.208 301.711C213.344 301.509 213.377 301.311 213.31 301.118L211.072 290.413C211.038 290.212 210.919 290.134 210.716 290.177L210.258 290.274C210.088 290.31 209.97 290.439 209.902 290.662L207.613 302.328V302.484C207.613 302.9 207.816 303.065 208.223 302.979L212.699 302.027ZM252.437 306.789C249.86 307.337 247.639 307.098 245.774 306.073C243.909 305.013 242.485 303.167 241.501 300.533C240.45 297.671 239.925 294.403 239.925 290.728C239.925 286.984 240.45 283.493 241.501 280.253C242.485 277.202 243.909 274.767 245.774 272.949C247.639 271.097 249.86 269.897 252.437 269.349C254.811 268.844 256.862 268.963 258.591 269.705C260.321 270.446 261.626 271.746 262.508 273.604C263.39 275.462 263.797 277.785 263.729 280.573C263.729 280.954 263.593 281.295 263.322 281.595C263.084 281.888 262.779 282.074 262.406 282.154L258.642 282.954C257.795 283.134 257.354 282.794 257.32 281.935C257.083 278.796 256.591 276.751 255.845 275.8C255.099 274.815 254.048 274.466 252.691 274.755C251.471 275.014 250.504 275.688 249.792 276.775C249.08 277.862 248.571 279.6 248.266 281.987C248.029 284.083 247.91 286.431 247.91 289.031C247.91 291.596 248.029 293.894 248.266 295.923C248.571 298.181 249.08 299.702 249.792 300.487C250.504 301.272 251.471 301.534 252.691 301.275C254.048 300.986 255.099 300.226 255.845 298.992C256.591 297.724 257.066 295.578 257.269 292.554C257.303 292.165 257.439 291.842 257.676 291.583C257.913 291.29 258.218 291.104 258.591 291.025L262.355 290.225C262.728 290.145 263.034 290.202 263.271 290.394C263.542 290.579 263.678 290.862 263.678 291.243C263.746 293.864 263.322 296.276 262.406 298.482C261.525 300.645 260.219 302.448 258.49 303.89C256.76 305.332 254.743 306.299 252.437 306.789ZM284.073 300.324C282.751 300.605 281.869 300.637 281.429 300.418C280.988 300.2 280.767 299.796 280.767 299.207V296.867C280.767 296.416 280.615 296.085 280.31 295.872C280.004 295.625 279.648 295.545 279.241 295.631L278.631 295.761C275.172 296.496 272.392 295.978 270.289 294.206C268.221 292.392 267.187 289.128 267.187 284.414C267.187 279.699 268.221 276.012 270.289 273.354C272.392 270.654 275.172 268.936 278.631 268.201L279.241 268.071C279.682 267.978 280.038 267.746 280.31 267.376C280.615 266.999 280.767 266.603 280.767 266.187V264.887C280.767 264.298 280.988 263.8 281.429 263.394C281.869 262.989 282.751 262.645 284.073 262.364C285.396 262.083 286.278 262.052 286.718 262.27C287.159 262.488 287.38 262.892 287.38 263.481V264.781C287.38 265.232 287.532 265.581 287.837 265.828C288.143 266.041 288.499 266.104 288.905 266.017L289.516 265.887C292.975 265.152 295.738 265.691 297.807 267.505C299.909 269.277 300.96 272.52 300.96 277.235C300.96 281.949 299.909 285.657 297.807 288.357C295.738 291.015 292.975 292.712 289.516 293.447L288.905 293.577C288.465 293.671 288.092 293.906 287.786 294.283C287.515 294.653 287.38 295.045 287.38 295.461V297.801C287.38 298.391 287.159 298.888 286.718 299.294C286.278 299.7 285.396 300.043 284.073 300.324ZM280.055 291.298C280.53 291.197 280.767 290.922 280.767 290.471V272.583C280.767 272.132 280.53 271.957 280.055 272.058L279.801 272.112C278.038 272.487 276.732 273.493 275.884 275.129C275.037 276.73 274.613 279.299 274.613 282.835C274.613 286.371 275.037 288.777 275.884 290.053C276.732 291.294 278.038 291.727 279.801 291.352L280.055 291.298ZM288.346 289.536C290.109 289.161 291.415 288.173 292.262 286.572C293.11 284.935 293.534 282.349 293.534 278.813C293.534 275.277 293.11 272.889 292.262 271.648C291.415 270.372 290.109 269.921 288.346 270.296L288.092 270.35C287.617 270.451 287.38 270.727 287.38 271.177V289.065C287.38 289.516 287.617 289.691 288.092 289.59L288.346 289.536ZM318.956 292.65C313.327 293.846 309.512 291.797 307.512 286.502C306.461 283.64 305.935 280.372 305.935 276.697C305.935 272.953 306.461 269.462 307.512 266.222C309.512 260.077 313.327 256.406 318.956 255.21C324.619 254.006 328.434 256.055 330.4 261.357C331.452 264.15 331.977 267.418 331.977 271.162C331.977 274.837 331.452 278.328 330.4 281.637C328.434 287.775 324.619 291.446 318.956 292.65ZM318.956 287.45C320.38 287.147 321.431 286.456 322.11 285.375C322.822 284.253 323.33 282.516 323.635 280.163C323.873 278.033 323.992 275.598 323.992 272.859C323.992 270.086 323.873 267.702 323.635 265.707C323.33 263.484 322.822 261.98 322.11 261.195C321.431 260.369 320.38 260.107 318.956 260.41C317.532 260.712 316.464 261.425 315.752 262.547C315.073 263.627 314.582 265.343 314.277 267.696C314.039 269.792 313.921 272.227 313.921 275C313.921 277.739 314.039 280.123 314.277 282.152C314.582 284.375 315.073 285.9 315.752 286.727C316.464 287.511 317.532 287.752 318.956 287.45ZM344.588 286.681C343.062 287.006 342.299 286.215 342.299 284.308C342.299 283.164 342.35 281.801 342.452 280.22C342.587 277.556 342.655 275.271 342.655 273.364V258.492C342.655 258.042 342.502 257.71 342.197 257.498C341.892 257.25 341.536 257.17 341.129 257.257L340.366 257.419L338.535 257.912C338.128 258.033 337.687 258.162 337.213 258.297C336.772 258.426 336.348 258.533 335.941 258.619C334.585 258.908 333.906 258.445 333.906 257.232V254.112C333.906 252.899 334.585 252.148 335.941 251.859C336.348 251.773 336.772 251.7 337.213 251.641C337.687 251.575 338.128 251.516 338.535 251.464L340.366 251.179L352.065 248.692L353.896 248.199C354.303 248.078 354.727 247.953 355.167 247.825C355.642 247.689 356.083 247.578 356.49 247.492C357.846 247.203 358.524 247.666 358.524 248.879V251.999C358.524 253.212 357.846 253.963 356.49 254.252C356.083 254.338 355.642 254.414 355.167 254.481C354.727 254.54 354.303 254.595 353.896 254.647L352.065 254.932L351.302 255.094C350.861 255.188 350.488 255.423 350.183 255.8C349.912 256.17 349.776 256.563 349.776 256.979V271.851C349.776 273.757 349.844 276.014 349.979 278.619C350.081 280.158 350.132 281.499 350.132 282.643C350.132 284.55 349.369 285.665 347.843 285.99L344.588 286.681ZM365.013 282.34C363.487 282.664 362.724 281.873 362.724 279.966C362.724 278.822 362.775 277.46 362.877 275.878C363.013 273.215 363.08 270.929 363.08 269.023V260.079C363.08 258.172 363.013 255.916 362.877 253.31C362.775 251.772 362.724 250.43 362.724 249.286C362.724 247.38 363.487 246.264 365.013 245.94L368.268 245.248C369.794 244.924 370.557 245.715 370.557 247.621C370.557 248.765 370.506 250.128 370.405 251.71C370.269 254.373 370.201 256.659 370.201 258.565V259.137C370.201 259.519 370.32 259.805 370.557 259.998C370.795 260.19 371.1 260.246 371.473 260.167L372.643 259.918C375.525 259.306 376.966 257.353 376.966 254.059L376.915 251.886C376.847 250.306 376.814 248.788 376.814 247.332C376.814 246.153 377.068 245.163 377.577 244.362C378.085 243.525 378.831 243.003 379.815 242.794L383.477 242.015C383.85 241.936 384.121 242 384.291 242.206C384.494 242.406 384.562 242.703 384.494 243.099C384.291 244.321 384.189 245.608 384.189 246.96L384.24 248.977C384.274 249.282 384.291 249.712 384.291 250.266C384.291 252.693 383.918 254.714 383.172 256.328C382.426 257.943 381.256 259.266 379.662 260.298C379.56 260.355 379.509 260.435 379.509 260.539V260.747C379.509 260.816 379.56 260.875 379.662 260.922C381.527 261.254 382.849 262.065 383.629 263.355C384.443 264.638 384.85 266.701 384.85 269.543C384.85 272.005 385.274 274.289 386.122 276.397C386.189 276.591 386.223 276.757 386.223 276.896C386.223 277.173 386.122 277.42 385.918 277.636C385.749 277.846 385.494 277.987 385.155 278.059L380.272 279.097C379.391 279.284 378.679 279.089 378.136 278.511C377.593 277.933 377.322 277.054 377.322 275.876L377.373 273.265C377.441 271.656 377.475 270.088 377.475 268.563C377.475 266.934 377.119 265.779 376.407 265.098C375.728 264.376 374.525 264.198 372.795 264.566L371.473 264.847C371.1 264.926 370.795 265.112 370.557 265.406C370.32 265.699 370.201 266.036 370.201 266.417V267.509C370.201 269.416 370.269 271.672 370.405 274.278C370.506 275.816 370.557 277.158 370.557 278.302C370.557 280.208 369.794 281.324 368.268 281.648L365.013 282.34ZM390.975 276.822C389.754 277.081 389.144 276.673 389.144 275.599C389.144 275.495 389.178 275.228 389.246 274.797L389.754 272.869L390.67 269.294L397.333 240.318C397.401 239.922 397.57 239.592 397.842 239.326C398.113 239.026 398.435 238.836 398.808 238.757L403.386 237.784C404.268 237.596 404.81 237.897 405.014 238.686L411.88 264.838C412.05 265.495 412.338 266.457 412.745 267.722C413.084 268.76 413.27 269.361 413.304 269.527C413.372 269.756 413.406 270.06 413.406 270.442C413.406 271.516 412.88 272.165 411.829 272.389L408.32 273.135C407.675 273.272 407.116 273.183 406.641 272.868C406.166 272.553 405.861 271.993 405.726 271.19L404.963 266.672C404.861 265.966 404.454 265.689 403.742 265.84L397.638 267.137C397.062 267.26 396.723 267.696 396.621 268.445C396.316 270.382 396.045 272 395.807 273.298C395.434 275.042 394.553 276.061 393.162 276.357L390.975 276.822ZM403.03 261.571C403.267 261.521 403.437 261.415 403.538 261.255C403.674 261.053 403.708 260.855 403.64 260.662L401.402 249.957C401.368 249.756 401.25 249.678 401.046 249.721L400.588 249.818C400.419 249.854 400.3 249.983 400.232 250.206L397.943 261.872V262.028C397.943 262.444 398.147 262.609 398.554 262.523L403.03 261.571ZM420.189 270.612C418.663 270.936 417.9 270.145 417.9 268.238C417.9 267.094 417.951 265.732 418.053 264.15C418.189 261.486 418.256 259.201 418.256 257.295V248.351C418.256 246.444 418.189 244.188 418.053 241.582C417.951 240.044 417.9 238.702 417.9 237.558C417.9 235.652 418.663 234.536 420.189 234.212L422.936 233.628C424.462 233.304 425.225 234.095 425.225 236.002C425.225 237.146 425.174 238.508 425.072 240.09C424.937 242.754 424.869 245.039 424.869 246.945V253.809C424.869 254.017 424.97 254.1 425.174 254.056C425.377 254.013 425.513 253.88 425.581 253.658L433.668 232.543C434.007 231.673 434.567 231.156 435.347 230.99L438.348 230.352C439.873 230.028 440.636 230.819 440.636 232.726C440.636 233.87 440.586 235.233 440.484 236.814C440.348 239.478 440.28 241.763 440.28 243.669V252.613C440.28 254.52 440.348 256.776 440.484 259.382C440.586 260.921 440.636 262.262 440.636 263.406C440.636 265.312 439.873 266.428 438.348 266.752L435.601 267.336C434.075 267.66 433.312 266.869 433.312 264.963C433.312 263.819 433.363 262.456 433.465 260.874C433.6 258.211 433.668 255.926 433.668 254.019V247.155C433.668 246.947 433.566 246.865 433.363 246.908C433.193 246.944 433.058 247.077 432.956 247.306L424.869 268.421C424.665 268.915 424.428 269.278 424.157 269.509C423.919 269.732 423.597 269.888 423.19 269.974L420.189 270.612ZM429.294 230.405C427.497 230.787 425.852 230.79 424.36 230.413C422.868 230.037 421.681 229.284 420.8 228.154C419.918 226.99 419.477 225.489 419.477 223.651C419.477 223.201 419.579 222.832 419.782 222.546C420.02 222.253 420.342 222.063 420.749 221.977L424.614 221.155C425.123 221.047 425.411 221.194 425.479 221.596C425.683 223.043 426.056 224.073 426.598 224.686C427.175 225.256 428.073 225.412 429.294 225.153C430.515 224.893 431.396 224.359 431.939 223.55C432.515 222.7 432.905 221.508 433.109 219.974C433.143 219.551 433.431 219.281 433.973 219.166L437.839 218.344C438.246 218.258 438.551 218.314 438.754 218.514C438.992 218.706 439.111 219.027 439.111 219.478C439.111 221.315 438.67 223.004 437.788 224.543C436.906 226.048 435.72 227.305 434.228 228.316C432.736 229.326 431.091 230.023 429.294 230.405ZM446.144 274.091C445.975 273.954 445.89 273.764 445.89 273.521C445.89 273.174 446.195 272.59 446.805 271.766C449.586 268.021 450.976 265.697 450.976 264.796C450.976 264.553 450.857 264.388 450.62 264.3C450.417 264.239 450.01 264.273 449.399 264.403L447.416 264.825C447.043 264.904 446.737 264.865 446.5 264.707C446.263 264.515 446.144 264.211 446.144 263.795V258.751C446.144 258.335 446.263 257.998 446.5 257.739C446.737 257.446 447.043 257.26 447.416 257.181L452.349 256.132C452.722 256.053 453.028 256.109 453.265 256.301C453.502 256.459 453.621 256.746 453.621 257.162V262.726C453.621 263.211 453.553 263.746 453.418 264.329C453.045 265.483 452.282 266.997 451.129 268.872C449.976 270.781 448.975 272.259 448.128 273.305C447.687 273.85 447.246 274.169 446.805 274.262C446.534 274.32 446.314 274.263 446.144 274.091ZM477.065 258.523C475.539 258.847 474.776 258.056 474.776 256.149C474.776 255.005 474.826 253.642 474.928 252.061C475.064 249.397 475.132 247.112 475.132 245.206V236.262C475.132 234.355 475.064 232.099 474.928 229.493C474.826 227.954 474.776 226.613 474.776 225.469C474.776 223.563 475.539 222.447 477.065 222.123L495.07 218.295C496.596 217.971 497.359 218.762 497.359 220.669C497.359 221.813 497.308 223.176 497.207 224.757C497.071 227.421 497.003 229.706 497.003 231.613V240.557C497.003 242.463 497.071 244.72 497.207 247.325C497.308 248.864 497.359 250.205 497.359 251.349C497.359 253.256 496.596 254.371 495.07 254.695L491.815 255.387C490.289 255.712 489.526 254.921 489.526 253.014C489.526 251.87 489.577 250.507 489.679 248.925C489.814 246.262 489.882 243.977 489.882 242.07V225.898C489.882 225.656 489.797 225.483 489.628 225.38C489.492 225.27 489.323 225.237 489.119 225.28L483.016 226.578C482.812 226.621 482.626 226.73 482.456 226.905C482.32 227.072 482.253 227.277 482.253 227.52V243.692C482.253 245.599 482.32 247.855 482.456 250.461C482.558 251.999 482.609 253.34 482.609 254.484C482.609 256.391 481.846 257.506 480.32 257.831L477.065 258.523ZM516.388 250.684C510.759 251.881 506.944 249.832 504.944 244.537C503.893 241.675 503.367 238.407 503.367 234.732C503.367 230.988 503.893 227.496 504.944 224.257C506.944 218.112 510.759 214.441 516.388 213.244C522.051 212.041 525.866 214.09 527.832 219.392C528.884 222.184 529.409 225.452 529.409 229.196C529.409 232.871 528.884 236.363 527.832 239.672C525.866 245.81 522.051 249.481 516.388 250.684ZM516.388 245.484C517.812 245.181 518.864 244.49 519.542 243.41C520.254 242.288 520.762 240.55 521.068 238.198C521.305 236.067 521.424 233.633 521.424 230.894C521.424 228.121 521.305 225.736 521.068 223.742C520.762 221.518 520.254 220.015 519.542 219.23C518.864 218.403 517.812 218.141 516.388 218.444C514.964 218.747 513.896 219.459 513.184 220.581C512.506 221.661 512.014 223.378 511.709 225.731C511.471 227.827 511.353 230.261 511.353 233.035C511.353 235.773 511.471 238.157 511.709 240.187C512.014 242.41 512.506 243.935 513.184 244.761C513.896 245.546 514.964 245.787 516.388 245.484ZM542.02 244.716C540.494 245.04 539.731 244.249 539.731 242.343C539.731 241.199 539.782 239.836 539.884 238.254C540.019 235.591 540.087 233.306 540.087 231.399V216.527C540.087 216.076 539.934 215.745 539.629 215.532C539.324 215.285 538.968 215.205 538.561 215.291L537.798 215.453L535.967 215.947C535.56 216.068 535.119 216.196 534.645 216.332C534.204 216.46 533.78 216.567 533.373 216.654C532.017 216.942 531.339 216.48 531.339 215.266V212.146C531.339 210.933 532.017 210.182 533.373 209.894C533.78 209.807 534.204 209.735 534.645 209.676C535.119 209.609 535.56 209.55 535.967 209.499L537.798 209.213L549.497 206.727L551.328 206.234C551.735 206.112 552.159 205.988 552.6 205.859C553.074 205.724 553.515 205.613 553.922 205.526C555.278 205.238 555.957 205.7 555.957 206.914V210.034C555.957 211.247 555.278 211.998 553.922 212.286C553.515 212.373 553.074 212.449 552.6 212.515C552.159 212.574 551.735 212.63 551.328 212.682L549.497 212.967L548.734 213.129C548.293 213.223 547.92 213.458 547.615 213.835C547.344 214.204 547.208 214.597 547.208 215.013V229.885C547.208 231.792 547.276 234.048 547.411 236.654C547.513 238.192 547.564 239.534 547.564 240.678C547.564 242.584 546.801 243.7 545.275 244.024L542.02 244.716ZM570.875 239.103C565.246 240.299 561.431 238.25 559.43 232.955C558.379 230.093 557.854 226.825 557.854 223.15C557.854 219.406 558.379 215.915 559.43 212.675C561.431 206.53 565.246 202.859 570.875 201.663C576.538 200.459 580.352 202.508 582.319 207.81C583.37 210.603 583.896 213.871 583.896 217.615C583.896 221.29 583.37 224.781 582.319 228.09C580.352 234.228 576.538 237.899 570.875 239.103ZM570.875 233.903C572.299 233.6 573.35 232.909 574.028 231.828C574.74 230.706 575.249 228.969 575.554 226.616C575.792 224.486 575.91 222.051 575.91 219.312C575.91 216.539 575.792 214.155 575.554 212.16C575.249 209.937 574.74 208.433 574.028 207.648C573.35 206.822 572.299 206.56 570.875 206.863C569.451 207.165 568.382 207.878 567.67 209C566.992 210.08 566.5 211.797 566.195 214.149C565.958 216.245 565.839 218.68 565.839 221.453C565.839 224.192 565.958 226.576 566.195 228.605C566.5 230.829 566.992 232.353 567.67 233.18C568.382 233.964 569.451 234.205 570.875 233.903ZM591.943 234.105C590.417 234.429 589.654 233.638 589.654 231.731C589.654 230.587 589.705 229.224 589.806 227.643C589.942 224.979 590.01 222.694 590.01 220.787V211.843C590.01 209.937 589.942 207.681 589.806 205.075C589.705 203.536 589.654 202.195 589.654 201.051C589.654 199.144 590.417 198.029 591.943 197.705L599.572 196.083C600.013 195.989 600.403 196.062 600.742 196.302C601.115 196.535 601.335 196.835 601.403 197.202L604.76 214.22C604.76 214.359 604.777 214.459 604.811 214.521C604.879 214.576 604.947 214.596 605.015 214.582L605.32 214.517C605.388 214.503 605.438 214.457 605.472 214.381C605.54 214.297 605.574 214.168 605.574 213.995L608.728 195.697C608.796 195.232 608.999 194.824 609.338 194.475C609.711 194.084 610.101 193.845 610.508 193.758L618.239 192.115C619.765 191.791 620.528 192.582 620.528 194.489C620.528 195.633 620.477 196.995 620.375 198.577C620.24 201.241 620.172 203.526 620.172 205.432V214.376C620.172 216.283 620.24 218.539 620.375 221.145C620.477 222.683 620.528 224.025 620.528 225.169C620.528 227.075 619.765 228.191 618.239 228.515L615.238 229.153C613.712 229.477 612.949 228.686 612.949 226.779C612.949 225.635 613 224.273 613.102 222.691C613.238 220.028 613.305 217.742 613.305 215.836V200.08C613.305 199.976 613.255 199.935 613.153 199.956L612.899 200.01C612.831 200.025 612.763 200.074 612.695 200.158C612.661 200.234 612.644 200.359 612.644 200.532L607.812 229.171C607.744 229.637 607.524 230.065 607.151 230.456C606.812 230.805 606.439 231.023 606.032 231.11L603.896 231.564C603.455 231.658 603.048 231.605 602.675 231.407C602.336 231.167 602.132 230.847 602.065 230.445L596.775 203.854C596.775 203.715 596.741 203.618 596.673 203.563C596.639 203.501 596.588 203.477 596.52 203.492L596.266 203.546C596.164 203.567 596.113 203.63 596.113 203.734V219.49C596.113 221.397 596.181 223.653 596.317 226.259C596.419 227.797 596.47 229.138 596.47 230.282C596.47 232.189 595.707 233.305 594.181 233.629L591.943 234.105ZM654.455 221.337C651.878 221.885 649.657 221.646 647.792 220.621C645.927 219.562 644.503 217.715 643.52 215.082C642.469 212.22 641.943 208.951 641.943 205.277C641.943 201.533 642.469 198.041 643.52 194.802C644.503 191.75 645.927 189.315 647.792 187.497C649.657 185.645 651.878 184.445 654.455 183.897C656.829 183.393 658.881 183.511 660.61 184.253C662.339 184.995 663.645 186.294 664.526 188.152C665.408 190.01 665.815 192.333 665.747 195.121C665.747 195.502 665.612 195.843 665.34 196.143C665.103 196.437 664.798 196.623 664.425 196.702L660.661 197.502C659.813 197.682 659.372 197.343 659.338 196.483C659.101 193.344 658.609 191.299 657.863 190.349C657.117 189.363 656.066 189.015 654.71 189.303C653.489 189.563 652.523 190.236 651.811 191.323C651.098 192.411 650.59 194.148 650.285 196.536C650.047 198.631 649.929 200.979 649.929 203.579C649.929 206.145 650.047 208.442 650.285 210.472C650.59 212.729 651.098 214.251 651.811 215.035C652.523 215.82 653.489 216.083 654.71 215.823C656.066 215.535 657.117 214.774 657.863 213.541C658.609 212.273 659.084 210.127 659.288 207.102C659.321 206.713 659.457 206.39 659.694 206.132C659.932 205.838 660.237 205.652 660.61 205.573L664.374 204.773C664.747 204.694 665.052 204.75 665.289 204.942C665.561 205.127 665.696 205.41 665.696 205.792C665.764 208.412 665.34 210.825 664.425 213.03C663.543 215.193 662.238 216.996 660.508 218.439C658.779 219.881 656.761 220.847 654.455 221.337ZM680.104 215.729C678.239 216.126 677.306 215.544 677.306 213.984V187.1C677.306 186.719 677.188 186.432 676.95 186.24C676.713 186.047 676.408 185.991 676.035 186.07L674.153 186.47L672.322 186.963C671.915 187.085 671.474 187.213 670.999 187.349C670.558 187.477 670.135 187.584 669.728 187.671C668.371 187.959 667.693 187.497 667.693 186.283V183.163C667.693 181.95 668.371 181.199 669.728 180.911C670.135 180.824 670.558 180.752 670.999 180.693C671.474 180.626 671.915 180.567 672.322 180.515L674.153 180.23L682.494 178.457C684.02 178.133 684.783 178.924 684.783 180.831C684.783 181.975 684.732 183.338 684.631 184.919C684.495 187.583 684.427 189.868 684.427 191.774V191.826C684.427 192.208 684.546 192.494 684.783 192.687C685.021 192.879 685.326 192.935 685.699 192.856L689.819 191.98C693.481 191.202 696.279 191.578 698.211 193.108C700.144 194.604 701.111 196.982 701.111 200.24C701.111 203.499 700.144 206.304 698.211 208.656C696.279 210.974 693.481 212.522 689.819 213.3L689.514 213.365C688.768 213.524 688.005 213.703 687.225 213.904C686.445 214.104 685.716 214.294 685.038 214.473C682.664 215.116 681.019 215.535 680.104 215.729ZM687.632 208.825C691.531 207.996 693.481 205.675 693.481 201.862C693.481 198.049 691.531 196.556 687.632 197.385L685.699 197.796C685.326 197.875 685.021 198.062 684.783 198.355C684.546 198.648 684.427 198.985 684.427 199.366V208.206C684.427 208.588 684.546 208.874 684.783 209.067C685.021 209.259 685.326 209.315 685.699 209.236L687.632 208.825ZM725.909 205.889C725.502 205.976 725.061 206.052 724.586 206.118C724.145 206.177 723.722 206.233 723.315 206.285L721.484 206.57L708.869 209.251C707.343 209.575 706.58 208.784 706.58 206.878C706.58 205.734 706.631 204.371 706.733 202.789C706.869 200.126 706.937 197.841 706.937 195.934V186.99C706.937 185.083 706.869 182.827 706.733 180.221C706.631 178.683 706.58 177.342 706.58 176.198C706.58 174.291 707.343 173.175 708.869 172.851L720.975 170.278L722.806 169.785C723.213 169.664 723.637 169.539 724.078 169.41C724.552 169.275 724.993 169.164 725.4 169.077C726.756 168.789 727.435 169.252 727.435 170.465V173.065C727.435 174.278 726.756 175.029 725.4 175.317C724.993 175.404 724.552 175.48 724.078 175.546C723.637 175.605 723.213 175.661 722.806 175.713L720.975 175.998L715.329 177.198C714.956 177.277 714.651 177.464 714.413 177.757C714.176 178.05 714.057 178.387 714.057 178.768V185.788C714.057 186.17 714.176 186.456 714.413 186.649C714.651 186.841 714.956 186.897 715.329 186.818L719.195 185.996L721.026 185.503C721.433 185.382 721.857 185.257 722.297 185.129C722.772 184.993 723.213 184.882 723.62 184.796C724.976 184.507 725.654 184.97 725.654 186.183V188.523C725.654 189.737 724.976 190.487 723.62 190.776C723.213 190.862 722.772 190.939 722.297 191.005C721.857 191.064 721.433 191.119 721.026 191.171L719.195 191.456L715.329 192.278C714.956 192.357 714.651 192.544 714.413 192.837C714.176 193.13 714.057 193.467 714.057 193.848V201.128C714.057 201.51 714.176 201.796 714.413 201.989C714.651 202.181 714.956 202.237 715.329 202.158L721.484 200.85L723.315 200.357C723.722 200.235 724.145 200.111 724.586 199.982C725.061 199.847 725.502 199.736 725.909 199.649C727.265 199.361 727.943 199.823 727.943 201.037V203.637C727.943 204.85 727.265 205.601 725.909 205.889ZM735.988 203.487C734.463 203.811 733.7 203.02 733.7 201.113C733.7 199.969 733.75 198.606 733.852 197.025C733.988 194.361 734.056 192.076 734.056 190.17V181.226C734.056 179.319 733.988 177.063 733.852 174.457C733.75 172.918 733.7 171.577 733.7 170.433C733.7 168.527 734.463 167.411 735.988 167.087L739.244 166.395C740.77 166.07 741.533 166.862 741.533 168.768C741.533 169.912 741.482 171.275 741.38 172.857C741.244 175.52 741.177 177.805 741.177 179.712V196.144C741.177 196.352 741.244 196.528 741.38 196.673C741.516 196.783 741.702 196.812 741.939 196.762L748.043 195.464C748.28 195.414 748.467 195.305 748.603 195.137C748.738 194.935 748.806 194.73 748.806 194.522V178.09C748.806 176.184 748.738 173.927 748.603 171.321C748.501 169.783 748.45 168.442 748.45 167.298C748.45 165.391 749.213 164.276 750.739 163.951L753.994 163.259C755.52 162.935 756.283 163.726 756.283 165.633C756.283 166.777 756.232 168.14 756.13 169.721C755.995 172.385 755.927 174.67 755.927 176.577V193.009C755.927 193.251 755.995 193.428 756.13 193.537C756.3 193.64 756.487 193.67 756.69 193.626L762.794 192.329C762.997 192.286 763.167 192.18 763.302 192.013C763.472 191.838 763.557 191.63 763.557 191.387V174.955C763.557 173.048 763.489 170.792 763.353 168.186C763.251 166.648 763.201 165.307 763.201 164.163C763.201 162.256 763.963 161.14 765.489 160.816L768.745 160.124C770.271 159.8 771.034 160.591 771.034 162.498C771.034 163.642 770.983 165.004 770.881 166.586C770.745 169.25 770.677 171.535 770.677 173.441V182.385C770.677 184.292 770.745 186.548 770.881 189.154C770.983 190.692 771.034 192.034 771.034 193.178C771.034 195.084 770.271 196.2 768.745 196.524L735.988 203.487ZM780.96 194.292C779.095 194.688 778.162 194.106 778.162 192.546V171.85C778.162 169.944 778.095 167.687 777.959 165.082C777.857 163.543 777.806 162.202 777.806 161.058C777.806 159.151 778.569 158.036 780.095 157.712L783.351 157.02C784.876 156.695 785.639 157.486 785.639 159.393C785.639 160.537 785.589 161.9 785.487 163.482C785.351 166.145 785.283 168.43 785.283 170.337V170.389C785.283 170.77 785.402 171.057 785.639 171.249C785.877 171.441 786.182 171.498 786.555 171.418L790.421 170.597C794.083 169.818 796.88 170.194 798.813 171.725C800.746 173.221 801.712 175.598 801.712 178.857C801.712 182.115 800.746 184.921 798.813 187.273C796.88 189.59 794.083 191.138 790.421 191.917L790.115 191.982C789.098 192.198 787.504 192.606 785.334 193.206C784.758 193.363 784.08 193.542 783.3 193.742C782.554 193.936 781.774 194.119 780.96 194.292ZM788.233 187.442C792.133 186.613 794.083 184.292 794.083 180.478C794.083 176.665 792.133 175.173 788.233 176.002L786.555 176.358C786.182 176.438 785.877 176.624 785.639 176.917C785.402 177.21 785.283 177.547 785.283 177.929V186.769C785.283 187.15 785.402 187.437 785.639 187.629C785.877 187.821 786.182 187.878 786.555 187.798L788.233 187.442ZM817.892 180.306C817.654 180.564 817.4 180.722 817.129 180.78C816.925 180.823 816.739 180.793 816.569 180.691C816.434 180.546 816.366 180.353 816.366 180.11V176.678C816.366 176.158 816.417 175.766 816.518 175.502C816.654 175.195 816.891 174.85 817.231 174.466L818.553 172.989C818.79 172.696 819.028 172.455 819.265 172.266C819.536 172.069 819.808 171.89 820.079 171.729C820.35 171.567 820.486 171.4 820.486 171.226C820.486 171.053 820.367 170.939 820.13 170.886C819.892 170.832 819.638 170.782 819.367 170.736C819.129 170.648 818.858 170.498 818.553 170.285L817.231 169.37C816.891 169.13 816.654 168.903 816.518 168.69C816.417 168.434 816.366 168.046 816.366 167.526V164.094C816.366 163.851 816.434 163.646 816.569 163.479C816.739 163.269 816.925 163.143 817.129 163.1C817.4 163.042 817.654 163.092 817.892 163.25L824.199 167.525C824.741 167.895 825.013 168.531 825.013 169.432V171.096C825.013 171.997 824.741 172.748 824.199 173.349L817.892 180.306ZM808.736 181.992C808.499 182.25 808.245 182.408 807.973 182.466C807.77 182.509 807.583 182.479 807.414 182.377C807.278 182.232 807.21 182.039 807.21 181.796V178.624C807.21 178.104 807.261 177.712 807.363 177.448C807.499 177.141 807.736 176.796 808.075 176.412L809.296 175.061C809.669 174.635 810.008 174.32 810.313 174.117C810.652 173.871 810.89 173.699 811.025 173.601C811.161 173.468 811.229 173.333 811.229 173.194C811.229 173.09 811.178 173.014 811.076 172.966C810.974 172.884 810.737 172.796 810.364 172.702C810.025 172.6 809.669 172.416 809.296 172.149L808.075 171.316C807.736 171.076 807.499 170.849 807.363 170.636C807.261 170.38 807.21 169.992 807.21 169.472V166.3C807.21 166.057 807.278 165.852 807.414 165.685C807.583 165.475 807.77 165.349 807.973 165.306C808.245 165.248 808.499 165.298 808.736 165.456L814.28 169.217C814.823 169.587 815.094 170.223 815.094 171.124V173.62C815.094 174.522 814.823 175.273 814.28 175.873L808.736 181.992Z" fill="white"/>
<defs>
<linearGradient id="paint0_linear_1002_73" x1="611.5" y1="0" x2="611.5" y2="197" gradientUnits="userSpaceOnUse">
<stop stop-color="#E42313"/>
<stop offset="1" stop-color="#FC5E51"/>
</linearGradient>
</defs>
</svg>
