<svg width="124" height="84" viewBox="0 0 124 84" fill="none" xmlns="http://www.w3.org/2000/svg">
<g clip-path="url(#clip0_670_132)">
<mask id="mask0_670_132" style="mask-type:luminance" maskUnits="userSpaceOnUse" x="-1" y="-1" width="126" height="85">
<path d="M124.007 -0.0561523H-0.0117188V83.9998H124.007V-0.0561523Z" fill="white"/>
</mask>
<g mask="url(#mask0_670_132)">
<path d="M4.80078 50.1166C4.84608 22.3901 30.4863 -0.0372787 62.0713 0.0186591C93.6564 0.0745969 119.217 22.5877 119.161 50.3105L119.119 53.1037L119.168 61.4832L119.225 66.6705C119.256 69.1699 118.412 71.6033 116.836 73.5583C115.488 75.2028 112.336 77.9624 106.327 77.9774H105.761C104.289 77.9774 103.074 77.955 101.67 77.9401H101.413C99.4729 77.9102 97.0459 77.873 92.9883 77.858C92.2976 77.858 90.1234 77.858 90.1234 77.858C83.2216 77.8507 76.3348 78.4925 69.5562 79.7748H69.4807C68.5899 79.965 66.1893 80.5207 64.7928 80.9756L62.3167 81.7625L59.8142 81.0912C57.4853 80.4722 55.1489 79.8867 54.7299 79.8009C48.0303 78.5321 41.222 77.9076 34.4004 77.9363H34.0419C28.1536 77.9363 25.1378 78.0072 22.7184 78.0445H22.4692C20.9179 78.0743 19.5817 78.1004 17.8681 78.0967H17.8266C10.2398 78.0967 4.94043 73.4949 4.90269 66.9278L4.81587 53.3162L4.80078 50.1166Z" fill="#164194"/>
<path d="M4.79297 55.3002C4.84581 27.074 30.5464 6.85433 62.0975 6.91027C93.6486 6.96621 119.274 27.2679 119.217 55.5203V55.9752L4.80429 56.199L4.79297 55.3002Z" fill="white"/>
</g>
<mask id="mask1_670_132" style="mask-type:luminance" maskUnits="userSpaceOnUse" x="12" y="8" width="101" height="45">
<path d="M61.9878 8.16699C40.9072 8.16699 22.5065 17.3259 12.957 31.9107C17.8412 43.8218 38.4161 52.7942 63.0787 52.8352C86.3938 52.8763 106.085 44.9219 112.328 34.0028C103.217 18.2358 84.1366 8.20801 62.0935 8.16699H61.9878Z" fill="white"/>
</mask>
<g mask="url(#mask1_670_132)">
<path d="M12.9738 8.00467L12.8945 52.8779L112.345 53.0494L112.424 8.17616L12.9738 8.00467Z" fill="url(#paint0_radial_670_132)"/>
</g>
<mask id="mask2_670_132" style="mask-type:luminance" maskUnits="userSpaceOnUse" x="5" y="8" width="114" height="47">
<path d="M5.99609 54.9643L118.027 54.7294C117.586 27.5361 92.6927 8.24131 62.0928 8.18164H61.9871C31.274 8.18164 6.24899 27.6182 5.99609 54.9643Z" fill="white"/>
</mask>
<g mask="url(#mask2_670_132)">
<path d="M87.5998 28.7818C85.1162 27.1185 79.4884 23.0425 76.5632 22.2296C72.2187 21.0288 67.3345 24.758 64.6923 25.2651C62.0502 25.7723 60.1025 22.6547 57.6378 22.595C55.66 22.5615 46.0501 26.3615 43.3438 27.3609L49.2546 29.852C50.0699 30.3704 72.0187 35.0953 88.9133 30.348L87.5998 28.7818Z" fill="white"/>
<path d="M43.3359 27.3682C46.0423 26.3688 55.6521 22.5687 57.63 22.6023C58.7057 22.6023 59.6833 23.225 60.6496 23.8665C59.2681 23.4935 56.8222 22.0019 55.7427 24.5377C55.1803 25.8243 54.2594 28.6398 53.1006 29.0128C50.232 30.4821 43.3511 27.3533 43.3511 27.3533" fill="#0BBBEF"/>
<path d="M68.7084 25.5819C70.9731 24.3587 71.6488 23.3444 72.0111 22.4121C69.0519 23.2102 65.8398 25.2426 64.2507 25.3134C63.8187 25.3297 63.3874 25.2665 62.9787 25.127C62.7087 25.97 62.3573 26.7855 61.9294 27.5621C61.2613 28.9307 59.7402 29.5237 58.6984 30.3329L58.6758 30.359C60.5177 31.0564 62.0728 32.9098 63.9601 32.5965L64.8169 32.1938C65.1642 31.0042 66.0851 27.0027 68.7197 25.5894" fill="#ECF7FD"/>
<path d="M1.72055 26.2868C1.72055 26.2868 7.03506 25.9997 31.6373 21.9162C42.9079 20.0516 58.8741 32.8688 68.5142 31.7053C78.1543 30.5418 91.7878 26.1414 101.764 25.8691C110.128 25.6342 118.372 29.4342 118.372 29.4342L118.334 50.0753L1.66016 49.8702L1.72055 26.2868Z" fill="#006C3B"/>
<path d="M1.66016 35.1733C1.66016 35.1733 33.785 34.558 45.0103 32.2869C54.6731 30.3365 63.128 34.6549 68.0008 34.6102C72.8737 34.5654 75.4366 31.817 85.439 31.9587C97.2193 32.1265 118.406 35.7961 118.406 35.7961L118.334 50.1945L1.70167 49.9968L1.66016 35.1733Z" fill="#FFED00"/>
<path d="M1.63672 42.7511C1.63672 42.7511 33.1123 35.7812 44.8284 34.1739C54.6194 32.8277 63.7009 36.4748 68.5775 36.4338C73.4542 36.3928 75.5189 34.2597 85.5251 34.3977C97.2978 34.573 118.397 41.2146 118.397 41.2146L120.979 56.5341L1.65936 56.6908L1.63672 42.7511Z" fill="#76B82A"/>
<path d="M72.6202 22.248C70.4612 22.8 67.5548 24.1499 65.894 24.8809C65.2184 25.1904 66.0563 27.4726 66.1469 28.4795C66.7552 27.3481 67.7087 26.4348 68.8721 25.8691C70.8726 24.7988 71.9143 24.1313 72.2125 23.2959L72.5522 22.427L72.6202 22.248Z" fill="#93D5F6"/>
</g>
<mask id="mask3_670_132" style="mask-type:luminance" maskUnits="userSpaceOnUse" x="-1" y="-1" width="126" height="85">
<path d="M124.007 -0.0561523H-0.0117188V83.9998H124.007V-0.0561523Z" fill="white"/>
</mask>
<g mask="url(#mask3_670_132)">
<path d="M59.6084 83.3062C57.0833 82.6499 54.5544 82.0271 54.1014 81.9264C46.8347 80.5994 39.4595 79.9378 32.0696 79.95H31.6922C25.3057 79.95 22.0408 80.0245 19.4251 80.073H19.1457C17.4736 80.1066 16.0205 80.1327 14.1558 80.1327H14.1181C5.87836 80.1327 0.133559 75.2437 0.0920395 68.285L0.00145512 53.8456C-0.0257773 52.1674 0.329541 50.5046 1.04108 48.9805C1.75262 47.4564 2.80213 46.11 4.11188 45.041C5.87458 43.5866 9.01875 41.8712 13.9784 41.8675H14.7862C16.296 41.8675 17.5491 41.8936 18.9872 41.9122H19.2703C21.1009 41.9383 23.8601 41.9868 28.4952 41.998C29.4275 41.998 30.4277 41.998 31.5148 41.998C39.0124 42.0129 46.4948 41.3325 53.8636 39.9656C54.8865 39.7567 57.4721 39.1563 58.9705 38.6865L61.8769 37.7803L64.7908 38.6715C66.3006 39.1414 68.9428 39.7418 69.9204 39.9357C77.1706 41.2631 84.5295 41.9247 91.9031 41.9122H92.3032C98.6783 41.9122 101.932 41.8451 104.544 41.7892H104.6C106.348 41.7556 107.858 41.7332 109.84 41.7258H109.915C118.102 41.7258 123.85 46.6296 123.881 53.6256L123.93 62.5123L123.975 68.0165C124.019 70.6743 123.105 73.2608 121.397 75.3146C119.933 77.0636 116.513 79.9984 110.009 80.0096H109.394C107.79 80.0096 106.48 79.9872 104.963 79.9574H104.706C102.585 79.9313 99.9616 79.8828 95.5568 79.8828H92.4617C84.9911 79.8684 77.5355 80.5438 70.1921 81.9003L70.1015 81.9227C69.1277 82.1092 66.5309 82.7319 65.0211 83.1906L62.3336 84.026L59.6084 83.3062Z" fill="#E42313"/>
<path d="M60.9868 78.0629C60.9453 78.0629 56.1668 76.8136 55.1741 76.6234C47.5599 75.2141 39.8283 74.5161 32.0817 74.5388H31.7042C25.2461 74.5388 21.966 74.6096 19.3314 74.6618H19.0257C17.3762 74.6917 15.9683 74.7178 14.1641 74.7178H14.1188C11.4502 74.7178 9.14025 73.998 7.6078 72.7003C6.95435 72.1556 6.43349 71.4724 6.0839 70.7016C5.73431 69.9307 5.56496 69.092 5.58844 68.2476L5.49408 53.797C5.47148 52.9175 5.65176 52.0444 6.02124 51.2439C6.39072 50.4434 6.93972 49.7364 7.62667 49.1765C8.69108 48.3002 10.6727 47.2486 13.9943 47.256H14.7982C16.2665 47.256 17.5574 47.2821 18.9275 47.3008H19.2069C21.0299 47.3418 23.7929 47.3828 28.4959 47.3865H31.5419C39.3932 47.4023 47.2285 46.6869 54.9438 45.2497C56.0762 45.0222 58.8467 44.3845 60.6282 43.8289L61.8927 43.4336L63.1798 43.8252C64.9803 44.3734 67.7998 45.0148 68.8416 45.2236C76.4433 46.6206 84.1603 47.3147 91.8925 47.297H92.319C98.7356 47.297 102.008 47.2262 104.647 47.1777H104.711C106.436 47.1441 107.934 47.118 109.852 47.1218H109.904C112.547 47.1218 114.86 47.8452 116.385 49.1393C117.045 49.6931 117.57 50.3859 117.923 51.1668C118.276 51.9477 118.447 52.7968 118.423 53.6516L118.473 62.5308L118.525 68.05C118.555 69.4341 118.088 70.7839 117.208 71.8612C116.355 72.8793 114.29 74.5798 110.006 74.5984H109.406C107.919 74.5984 106.681 74.5761 105.254 74.5537H104.805C102.672 74.5276 100.023 74.4866 95.5877 74.4791H92.47C84.6308 74.4586 76.807 75.1666 69.102 76.5936L68.9699 76.6197C67.8942 76.8397 65.1312 77.4736 63.3723 78.033L62.1985 78.3836L60.9868 78.0629Z" fill="white"/>
<path d="M10.366 51.4028L15.1068 51.4103L15.0955 57.4516H18.6057L18.6208 51.4178L23.3692 51.4289L23.3352 68.9412L18.602 68.93L18.6057 62.1392L15.0955 62.1354L15.0804 68.9226H10.332L10.366 51.4028Z" fill="#164194"/>
<path d="M66.695 51.4961L71.213 51.5036L71.1866 69.0196H66.4609L66.4949 51.4961" fill="#164194"/>
<path d="M31.5016 65.2347C32.5018 65.2347 34.0682 64.6567 34.0494 62.1954C34.0305 59.7342 32.4867 59.1524 31.4714 59.1598C30.4561 59.1673 28.901 59.7304 28.9123 62.1991C28.9236 64.6679 30.4862 65.2384 31.5016 65.2347ZM24.832 62.2514C24.832 56.8627 28.867 55.2964 31.494 55.2852C34.1211 55.274 38.1409 56.8328 38.1296 62.2215C38.1183 67.6102 34.1362 69.3443 31.5129 69.3443C28.8896 69.3443 24.8245 67.6177 24.832 62.2588" fill="#164194"/>
<path d="M84.617 59.5737C84.617 56.0645 81.8201 55.3262 79.378 55.3262C77.4643 55.3262 75.7431 55.5462 74.2786 56.7992L73.9842 60.1555C75.7582 59.2418 76.8868 58.5818 78.6155 58.5855C79.3704 58.5855 80.2159 58.6675 80.2423 59.6073C80.3065 61.498 72.9386 60.4426 72.9688 65.4994C72.9688 68.3149 74.6485 69.4262 77.4303 69.4076C77.9974 69.3912 78.5547 69.2577 79.0663 69.0155C79.5779 68.7734 80.0325 68.428 80.4008 68.0017V69.0384H84.5981L84.617 59.5737ZM79.8535 65.8798C79.4598 66.1466 78.9908 66.2836 78.5136 66.2713C78.0116 66.2713 77.1887 65.932 77.1774 65.1526C77.1774 64.0338 78.3362 63.7168 78.8155 63.5416C79.8611 63.1948 80.8198 63.109 80.8085 62.7957C80.8384 63.2183 80.8295 63.6427 80.7821 64.0637C80.7028 64.9549 80.4046 65.5553 79.8535 65.8872" fill="#164194"/>
<path d="M107.106 65.5364C108 65.5364 109.37 64.9286 109.37 62.3331C109.37 59.7375 107.97 59.1521 107.076 59.1521C106.181 59.1521 104.652 59.7711 104.656 62.3592C104.66 64.9472 106.207 65.5364 107.098 65.5364M109.435 68.035C108.706 68.8815 107.547 69.4446 105.883 69.4521C102.252 69.4521 100.734 65.5998 100.734 61.934C100.734 59.07 102.146 55.3893 106.019 55.3744C107.468 55.3744 108.944 55.7473 109.318 56.4708H109.355V51.5669H114.077L114.051 69.0941H109.442L109.435 68.035Z" fill="#164194"/>
<path d="M86.5305 55.7438H91.275V57.0005H91.2448C92.1318 55.6356 93.3208 55.3037 95.2156 55.3037C97.4199 55.3037 99.5034 56.6649 99.5185 59.7787V69.0682H94.7815L94.8117 61.744C94.8117 60.0659 94.3701 59.4655 93.083 59.4655C91.9809 59.4655 91.2562 60.0547 91.2675 61.703V69.0644H86.5078L86.5305 55.7438Z" fill="#164194"/>
<path d="M59.725 69.0049V61.8075C59.725 60.1257 59.2796 59.5364 57.985 59.529C56.8941 59.529 56.2185 60.1443 56.2298 61.7889V68.9974H51.5117L51.5457 51.4702H56.2148V57.064C57.0942 55.7028 58.2643 55.356 60.1516 55.3635C62.3634 55.3635 64.4054 56.7209 64.4281 59.8385V69.0123L59.725 69.0049Z" fill="#164194"/>
<path d="M49.5987 65.0032C49.1911 65.2643 47.7756 65.5961 46.3904 65.5961C44.6466 65.5961 43.9143 64.2723 43.9105 62.6352C43.9105 60.6438 45.0429 59.8532 46.4885 59.6332C47.0207 59.5511 48.9457 59.6779 49.6138 60.2485V56.0569C48.8589 55.4527 47.0245 55.311 45.6581 55.311C41.2948 55.311 39.2037 58.19 39.2188 62.3704C39.2377 66.0623 40.7286 69.3664 45.258 69.3664C46.1149 69.3664 48.7759 69.2508 49.5761 68.9077L49.5987 65.0032Z" fill="#164194"/>
</g>
</g>
<defs>
<radialGradient id="paint0_radial_670_132" cx="0" cy="0" r="1" gradientUnits="userSpaceOnUse" gradientTransform="translate(62.4393 26.5042) rotate(0.0987995) scale(51.6465 26.123)">
<stop stop-color="#E1F2FC"/>
<stop offset="0.3" stop-color="#DFF1FC"/>
<stop offset="0.41" stop-color="#D8EEFB"/>
<stop offset="0.49" stop-color="#CCEAFA"/>
<stop offset="0.51" stop-color="#C8E8F9"/>
<stop offset="0.73" stop-color="#ABDEF7"/>
<stop offset="1" stop-color="#83D0F4"/>
</radialGradient>
<clipPath id="clip0_670_132">
<rect width="124" height="84" fill="white"/>
</clipPath>
</defs>
</svg>
