<svg width="186" height="226" viewBox="0 0 186 226" fill="none" xmlns="http://www.w3.org/2000/svg">
<path d="M19.7305 100.505C19.7887 64.2838 52.9007 34.9761 93.6995 35.0575C134.498 35.139 167.506 64.5398 167.436 100.761L167.377 104.404L167.447 115.345L167.517 122.131C167.557 125.396 166.466 128.574 164.431 131.128C162.684 133.281 158.607 136.878 150.851 136.948H150.128C148.218 136.948 146.634 136.948 144.841 136.948H144.503C141.999 136.948 138.878 136.866 133.625 136.855H129.933C121.021 136.815 112.126 137.622 103.366 139.264H103.262C102.097 139.508 99.0105 140.253 97.2169 140.824L94.014 141.86L90.7762 140.987C87.7713 140.172 84.7548 139.404 84.219 139.299C75.5638 137.641 66.768 136.827 57.9554 136.866H57.5012C49.8958 136.866 45.9941 136.959 42.8727 137.006H42.5583C40.555 137.006 38.8313 137.076 36.6067 137.076C26.8117 137.076 19.9634 131.058 19.9168 122.48L19.8003 104.695L19.7305 100.505Z" fill="#164194"/>
<path d="M19.7188 107.303C19.7886 70.4177 52.9821 44.0081 93.7344 44.078C134.487 44.1478 167.575 70.6737 167.505 107.582V108.175L19.7304 108.466L19.7188 107.303Z" fill="white"/>
<mask id="mask0_670_206" style="mask-type:luminance" maskUnits="userSpaceOnUse" x="30" y="45" width="129" height="60">
<path d="M93.5933 45.7308C66.363 45.7308 42.5918 57.6843 30.2578 76.7495C36.5704 92.2995 63.1485 104.02 95.0026 104.078C125.11 104.078 150.546 93.7428 158.606 79.473C146.843 58.8715 122.198 45.7773 93.7214 45.7191L93.5933 45.7308Z" fill="white"/>
</mask>
<g mask="url(#mask0_670_206)">
<path d="M30.2742 45.528L30.1719 104.143L158.625 104.367L158.727 45.7521L30.2742 45.528Z" fill="url(#paint0_radial_670_206)"/>
</g>
<mask id="mask1_670_206" style="mask-type:luminance" maskUnits="userSpaceOnUse" x="21" y="45" width="145" height="62">
<path d="M21.2773 106.837L165.966 106.534C165.395 71.0113 133.25 45.8006 93.7556 45.7308H93.6275C53.9584 45.7308 21.6384 71.1277 21.3123 106.849" fill="white"/>
</mask>
<g mask="url(#mask1_670_206)">
<path d="M126.67 72.6525C123.468 70.4876 116.188 65.1568 112.415 64.0976C106.801 62.5147 100.5 67.4032 97.0759 68.0666C93.6517 68.73 91.1476 64.6446 87.9681 64.5748C85.4057 64.5748 73.0019 69.4982 69.5078 70.8018L77.1365 74.0841C78.1847 74.7592 106.533 80.928 128.383 74.7243L126.67 72.6525Z" fill="white"/>
<path d="M69.4727 70.8018C72.9667 69.4982 85.3706 64.5282 87.9329 64.5748C89.3637 64.7458 90.7166 65.3189 91.8346 66.2276C90.041 65.762 86.8847 63.795 85.4754 67.1005C84.7533 68.7882 83.5537 72.4429 82.0629 72.9202C78.3825 74.8872 69.4727 70.8018 69.4727 70.8018Z" fill="#0BBBEF"/>
<path d="M102.272 68.474C105.207 66.8794 106.069 65.5642 106.534 64.342C102.714 65.3779 98.5681 68.0317 96.5182 68.1248C95.9606 68.1423 95.4043 68.0595 94.876 67.8804C94.5228 68.98 94.0666 70.0439 93.5133 71.0579C92.6515 72.8504 90.6831 73.6186 89.3438 74.6777C91.6731 75.5972 93.7113 78.0066 96.1455 77.5992L97.3102 77.0754C97.7644 75.5158 98.9524 70.2897 102.353 68.4391" fill="#ECF7FD"/>
<path d="M15.7457 69.4284C15.7457 69.4284 22.6174 69.0559 54.3899 63.7135C68.9485 61.2692 89.5634 78.0298 102.014 76.5167C114.464 75.0036 132.074 69.2538 144.967 68.893C155.764 68.5904 166.421 73.5487 166.421 73.5487L166.363 100.517L15.6875 100.249L15.7457 69.4284Z" fill="#006C3B"/>
<path d="M15.6641 81.0677C15.6641 81.0677 57.1618 80.2529 71.6504 77.2966C84.1358 74.7476 95.0489 80.3926 101.35 80.3344C107.651 80.2762 110.947 76.6797 123.875 76.8426C139.086 77.0638 166.456 81.8592 166.456 81.8592L166.363 100.668L15.699 100.401L15.6641 81.0677Z" fill="#FFED00"/>
<path d="M15.6406 90.9028C15.6406 90.9028 56.2881 81.8009 71.429 79.6826C84.0658 77.925 95.7942 82.6972 102.083 82.639C108.373 82.5808 111.052 79.799 123.98 79.9736C139.179 80.2063 166.432 88.8893 166.432 88.8893L169.763 108.897L15.6639 109.118L15.6406 90.9028Z" fill="#76B82A"/>
<path d="M107.311 64.1208C104.333 65.0702 101.429 66.2373 98.6229 67.6126C97.7494 68.02 98.8325 70.9997 98.949 72.2683C99.7244 70.7887 100.947 69.5913 102.443 68.8464C105.029 67.4497 106.368 66.5185 106.752 65.4826L107.195 64.3187L107.311 64.1208Z" fill="#93D5F6"/>
</g>
<path d="M90.5155 143.92C87.2427 143.07 83.9816 142.255 83.3993 142.127C74.0152 140.39 64.4897 139.529 54.9461 139.555H54.4336C46.1876 139.555 41.9715 139.648 38.5939 139.706H38.2328C36.0782 139.706 34.203 139.788 31.7921 139.788C21.1469 139.788 13.7279 133.398 13.6813 124.319L13.5648 105.382C13.5257 103.192 13.9783 101.021 14.8893 99.0292C15.8004 97.0371 17.1467 95.2744 18.8292 93.8708C22.4503 91.0232 26.9663 89.5546 31.5708 89.7272H32.6191C34.5524 89.7272 36.183 89.7272 38.0465 89.7272H38.4075C40.7369 89.7272 44.3358 89.832 50.3223 89.832C51.4869 89.832 52.8263 89.832 54.2356 89.832C63.9161 89.8738 73.579 89.0047 83.0965 87.2364C84.4242 86.9687 87.7552 86.1773 89.6886 85.572L93.4505 84.4081L97.2124 85.572C99.1807 86.1889 102.558 86.9687 103.839 87.2248C113.205 88.9569 122.71 89.818 132.234 89.7971H132.747C140.981 89.7971 145.186 89.7156 148.552 89.6341H148.668C150.928 89.6341 152.873 89.5643 155.435 89.5526H155.528C166.103 89.5526 173.534 95.9659 173.592 105.103V116.742L173.651 123.935C173.708 127.407 172.528 130.786 170.32 133.468C168.433 135.796 164.019 139.578 155.621 139.59H154.829C152.756 139.59 151.056 139.59 149.099 139.52H148.738C146.001 139.52 142.612 139.415 136.928 139.415H132.933C123.275 139.393 113.635 140.278 104.142 142.057H104.026C102.78 142.302 99.3671 143.117 97.4687 143.71L93.9746 144.804L90.5155 143.92Z" fill="#E42313"/>
<path d="M92.2869 137.041C92.2869 137.041 86.0675 135.4 84.7864 135.155C74.9506 133.32 64.9646 132.408 54.9588 132.432H54.4464C46.1072 132.432 41.8678 132.525 38.4669 132.595H38.0243C35.8929 132.595 34.076 132.665 31.7467 132.665C28.7213 132.804 25.7436 131.872 23.3376 130.034C22.495 129.321 21.8232 128.428 21.3717 127.42C20.9202 126.413 20.7005 125.318 20.7288 124.214L20.5541 105.336C20.5201 104.187 20.7503 103.047 21.2268 102.002C21.7034 100.956 22.4135 100.034 23.3027 99.3064C25.6581 97.5108 28.5797 96.6188 31.537 96.7923H32.5736H37.9078H38.2572C40.5866 96.7923 44.1855 96.8971 50.2535 96.9087H54.2018C64.3612 96.933 74.5002 95.9977 84.4835 94.1153C85.9277 93.8126 89.5266 92.9513 91.8327 92.253L93.4633 91.7408L95.1171 92.253C97.4465 92.9746 101.092 93.8126 102.443 94.0803C112.261 95.902 122.227 96.806 132.212 96.7807H132.771C141.041 96.7807 145.28 96.6875 148.693 96.6294H148.774C150.999 96.6294 152.932 96.5479 155.413 96.5595H155.483C158.497 96.4388 161.458 97.3732 163.857 99.2016C164.707 99.9251 165.385 100.829 165.84 101.848C166.296 102.867 166.517 103.975 166.489 105.091V116.73L166.559 123.947C166.598 125.756 165.995 127.52 164.858 128.928C163.752 130.255 161.085 132.42 155.541 132.502H154.772C152.85 132.502 151.278 132.502 149.391 132.443H148.821C146.06 132.443 142.636 132.35 136.918 132.339H132.946C122.822 132.326 112.72 133.257 102.769 135.12H102.594C101.208 135.411 97.6445 136.284 95.3733 136.971L93.8593 137.425L92.2869 137.041Z" fill="white"/>
<path d="M26.9138 102.216H33.04L33.0284 110.119H37.559L37.5823 102.228L43.7085 102.239L43.6619 125.122L37.5473 125.111L37.559 116.242L33.0284 116.23L33.0051 125.099H26.8672L26.9138 102.216Z" fill="#164194"/>
<path d="M99.6583 102.333L105.505 102.344L105.458 125.227H99.3555L99.4021 102.333" fill="#164194"/>
<path d="M54.2124 120.28C55.5052 120.28 57.5201 119.524 57.4968 116.3C57.4735 113.076 55.4819 112.331 54.1658 112.342C52.8498 112.354 50.8465 113.087 50.8698 116.311C50.8931 119.535 52.8963 120.28 54.2124 120.28ZM45.5938 116.358C45.5938 109.374 50.8116 107.279 54.2008 107.256C57.59 107.233 62.7845 109.281 62.7729 116.323C62.7612 123.365 57.6133 125.634 54.2241 125.634C50.8349 125.634 45.5821 123.388 45.5938 116.323" fill="#164194"/>
<path d="M122.813 112.878C122.813 108.292 119.203 107.337 116.047 107.337C113.577 107.337 111.388 107.617 109.454 109.258L109.07 113.658C111.399 112.494 112.82 111.597 115.045 111.597C116.035 111.597 117.118 111.714 117.153 112.936C117.235 115.403 107.719 114.03 107.754 120.641C107.754 124.319 109.932 125.762 113.577 125.739C114.309 125.718 115.029 125.543 115.689 125.226C116.349 124.91 116.935 124.458 117.409 123.9V125.262H122.825L122.813 112.878ZM116.664 121.118C116.156 121.472 115.547 121.652 114.928 121.631C114.508 121.654 114.094 121.514 113.773 121.241C113.452 120.969 113.249 120.583 113.205 120.164C113.205 118.697 114.696 118.29 115.324 118.057C116.664 117.603 117.91 117.487 117.898 117.08C117.94 117.634 117.94 118.19 117.898 118.744C117.903 119.196 117.8 119.644 117.597 120.048C117.395 120.453 117.099 120.804 116.734 121.072" fill="#164194"/>
<path d="M151.859 120.641C153.024 120.641 154.806 119.85 154.794 116.451C154.783 113.052 152.989 112.296 151.836 112.296C150.683 112.296 148.703 113.099 148.703 116.486C148.703 119.873 150.706 120.641 151.859 120.641ZM154.876 123.9C154.294 124.526 153.581 125.017 152.788 125.337C151.995 125.657 151.141 125.798 150.287 125.751C145.628 125.751 143.637 120.723 143.637 115.927C143.637 112.191 145.465 107.384 150.462 107.361C152.337 107.361 154.247 107.838 154.725 108.792V102.379H160.816V125.262H154.853L154.876 123.9Z" fill="#164194"/>
<path d="M125.281 107.838H131.419V109.479C132.584 107.698 134.098 107.268 136.555 107.268C139.397 107.268 142.087 109.048 142.111 113.087V125.227H135.996V115.66C135.996 113.471 135.426 112.68 133.76 112.68C132.339 112.68 131.431 113.448 131.431 115.601V125.215H125.258L125.281 107.838Z" fill="#164194"/>
<path d="M90.6689 125.204V115.799C90.6689 113.599 90.0865 112.831 88.421 112.82C87.0118 112.82 86.0917 113.634 86.0917 115.776V125.192H80.0586V102.298H86.0917V109.607C87.2563 107.826 88.7355 107.372 91.1813 107.384C94.0348 107.384 96.667 109.153 96.7019 113.204V125.18L90.6689 125.204Z" fill="#164194"/>
<path d="M77.6245 119.978C76.3126 120.526 74.8998 120.792 73.4782 120.758C71.2304 120.758 70.287 119.023 70.287 116.882C70.239 116.405 70.2876 115.923 70.4298 115.465C70.5719 115.008 70.8048 114.583 71.1145 114.217C71.4242 113.851 71.8044 113.551 72.2325 113.335C72.6606 113.119 73.1278 112.991 73.6063 112.959C75.003 112.828 76.4077 113.107 77.6478 113.762V108.292C76.6694 107.5 74.3051 107.314 72.5465 107.291C66.9094 107.291 64.2073 111.05 64.2306 116.521C64.2306 121.34 66.164 125.658 72.034 125.658C73.9111 125.679 75.784 125.476 77.6128 125.052L77.6245 119.978Z" fill="#164194"/>
<path d="M23.1999 159.051H21.6975V150.845H20.1484V149.448H24.7489V150.845H23.1999V159.051Z" fill="#83D0F5"/>
<path d="M30.1859 152.358C30.1859 154.151 29.5803 155.373 27.612 155.373H27.0063V159.051H25.5039V149.448H27.6353C29.4056 149.448 30.1859 150.321 30.1859 152.358ZM27.0063 153.941H27.5421C28.4622 153.941 28.7068 153.417 28.7068 152.37C28.7068 151.322 28.4273 150.857 27.5421 150.857H26.9947L27.0063 153.941Z" fill="#83D0F5"/>
<path d="M33.5869 157.049H31.8165C31.6884 157.712 31.572 158.387 31.4555 159.051H29.9414C30.5936 155.838 31.2226 152.661 31.8748 149.448H33.5286L35.4737 159.051H33.9596L33.5869 157.049ZM32.0378 155.664H33.3656L32.7366 151.671H32.6668C32.4921 152.998 32.2824 154.29 32.0495 155.664" fill="#83D0F5"/>
<path d="M36.9765 160.867H35.6953V157.805L36.2544 157.689C36.7886 157.006 37.0352 156.142 36.9415 155.28L37.1162 149.46H41.4023V157.712H42.0079V160.878H40.7966V159.051H36.9765V160.867ZM37.8966 157.701H39.9581V150.833H38.4323L38.3159 155.268C38.3659 156.1 38.2224 156.933 37.8966 157.701Z" fill="#83D0F5"/>
<path d="M44.4091 159.051H42.9766V149.448H44.4324V155.536H44.4907L46.4823 149.448H47.9381V159.051H46.4706V153.045H46.424L44.4091 159.051Z" fill="#83D0F5"/>
<path d="M53.9595 157.666H54.5768V160.878H53.3306V159.051H49.3008V149.448H50.7916V157.666H52.4687V149.448H53.9595V157.666Z" fill="#83D0F5"/>
<path d="M56.8466 159.051H55.4141V149.448H56.8699V155.536H56.9282L58.9198 149.448H60.3756V159.051H58.9081V153.045H58.8615L56.8466 159.051Z" fill="#83D0F5"/>
<path d="M63.1356 159.051H61.6914V149.448H63.1473V155.536H63.2055L65.2088 149.448H66.653V159.051H65.1855V153.045H65.1505L63.1356 159.051Z" fill="#83D0F5"/>
<path d="M72.2451 159.051H70.8125V149.448H72.2567V155.536H72.3149L74.3182 149.448H75.7624V159.051H74.3066V153.045H74.26L72.2451 159.051Z" fill="#83D0F5"/>
<path d="M79.9531 149.448H81.4323V153.499H81.7351C82.399 153.499 82.8182 153.173 83.0395 152.184C83.1094 151.846 83.552 149.856 83.6102 149.46H85.0078C84.7982 150.438 84.6119 151.38 84.4022 152.335C84.3631 152.697 84.2367 153.043 84.0338 153.346C83.831 153.648 83.5577 153.896 83.2375 154.069C83.5878 154.216 83.8907 154.457 84.1126 154.765C84.3346 155.073 84.4671 155.436 84.4954 155.815C84.7283 156.909 84.938 157.957 85.1709 159.016H83.6801C83.5054 158.073 83.3307 157.142 83.1211 156.199C82.9114 155.256 82.5154 154.826 81.8516 154.826H81.4439V159.051H79.9531V149.448Z" fill="#83D0F5"/>
<path d="M89.1064 157.049H87.3361C87.2196 157.712 87.0915 158.387 86.975 159.051H85.4609C86.1132 155.838 86.7537 152.661 87.3943 149.448H89.0482L91.0048 159.051H89.4791L89.1064 157.049ZM87.5574 155.664H88.8735L88.2562 151.671H88.1863C87.9999 152.998 87.7903 154.29 87.5574 155.664Z" fill="#83D0F5"/>
<path d="M92.7643 152.952C92.7643 153.767 93.0788 153.976 93.6844 153.976C93.948 153.966 94.2079 153.911 94.4531 153.813V149.448H95.9439V159.051H94.4531V155.128C94.0976 155.233 93.7287 155.284 93.3583 155.28C92.0888 155.28 91.2852 154.733 91.2852 153.15V149.448H92.7643V152.952Z" fill="#83D0F5"/>
<path d="M97.3672 149.448H101.642V150.857H98.858V153.464H101.281V154.884H98.858V157.654H101.642V159.051H97.3672V149.448Z" fill="#83D0F5"/>
<path d="M107.136 151.59L105.692 151.962C105.692 151.253 105.436 150.799 104.842 150.799C104.248 150.799 104.003 151.462 104.003 151.962V156.839C104.003 157.212 104.131 157.794 104.807 157.794C105.482 157.794 105.634 157.386 105.645 156.63C106.146 156.723 106.647 156.781 107.136 156.851C107.165 157.164 107.124 157.479 107.017 157.775C106.91 158.07 106.74 158.338 106.517 158.56C106.295 158.783 106.026 158.953 105.731 159.06C105.435 159.167 105.12 159.207 104.807 159.179C104.49 159.223 104.168 159.194 103.865 159.093C103.562 158.992 103.287 158.821 103.061 158.596C102.835 158.37 102.665 158.095 102.563 157.792C102.462 157.489 102.433 157.167 102.477 156.851V152.056C102.477 150.624 103.071 149.437 104.807 149.437C105.114 149.391 105.428 149.416 105.724 149.509C106.021 149.603 106.291 149.764 106.516 149.978C106.741 150.193 106.914 150.456 107.021 150.747C107.129 151.039 107.168 151.351 107.136 151.66" fill="#83D0F5"/>
<path d="M110.594 159.051H109.092V150.845H107.543V149.448H112.143V150.845H110.594V159.051Z" fill="#83D0F5"/>
<path d="M117.503 156.141C117.503 158.143 116.664 159.051 114.894 159.051H112.914V149.448H115.01C116.699 149.448 117.421 150.356 117.421 152.056C117.471 152.441 117.399 152.832 117.215 153.174C117.031 153.517 116.745 153.793 116.396 153.964V154.034C117.247 154.302 117.561 155.198 117.561 156.141M114.894 150.903H114.416V153.382H114.894C115.663 153.382 116.059 152.952 116.059 152.137C116.059 151.322 115.744 150.903 114.894 150.903ZM114.987 154.733H114.416V157.712H115.01C115.966 157.712 116.105 156.967 116.105 156.071C116.105 155.175 115.814 154.733 114.941 154.733" fill="#83D0F5"/>
<path d="M121.079 159.132C119.46 159.132 118.75 158.294 118.75 156.804V151.974C118.75 150.473 119.414 149.425 121.079 149.425C122.745 149.425 123.409 150.368 123.409 151.962V156.618C123.409 158.283 122.675 159.156 121.079 159.156M121.079 150.787C120.381 150.787 120.241 151.474 120.241 151.951V156.781C120.241 157.27 120.462 157.736 121.068 157.736C121.673 157.736 121.906 157.27 121.906 156.676V151.8C121.906 151.252 121.732 150.764 121.079 150.764" fill="#83D0F5"/>
<path d="M132.144 151.59L130.688 151.962C130.688 151.252 130.443 150.799 129.849 150.799C129.255 150.799 129.011 151.462 129.011 151.962V156.839C129.011 157.212 129.127 157.794 129.803 157.794C130.478 157.794 130.63 157.386 130.653 156.63C131.142 156.723 131.643 156.781 132.144 156.851C132.172 157.164 132.132 157.479 132.025 157.775C131.918 158.07 131.747 158.338 131.525 158.56C131.303 158.783 131.034 158.953 130.739 159.06C130.443 159.167 130.128 159.207 129.814 159.179C129.498 159.223 129.176 159.194 128.873 159.093C128.57 158.992 128.295 158.821 128.069 158.596C127.843 158.37 127.672 158.095 127.571 157.792C127.47 157.489 127.44 157.167 127.485 156.851V152.056C127.485 150.624 128.079 149.437 129.814 149.437C130.121 149.393 130.434 149.42 130.73 149.514C131.025 149.609 131.295 149.769 131.519 149.983C131.743 150.197 131.916 150.459 132.024 150.75C132.132 151.04 132.173 151.351 132.144 151.66" fill="#83D0F5"/>
<path d="M138.047 151.124L136.742 152.172V150.566L138.128 149.448H139.526V159.051H138.047V151.124Z" fill="#83D0F5"/>
<path d="M143.116 155.082C142.219 155.082 141.625 154.605 141.625 153.231V151.555C141.593 151.264 141.626 150.969 141.722 150.692C141.817 150.415 141.973 150.163 142.178 149.954C142.383 149.745 142.632 149.583 142.907 149.482C143.182 149.38 143.476 149.341 143.768 149.367C144.041 149.333 144.318 149.36 144.579 149.447C144.84 149.534 145.078 149.678 145.276 149.869C145.473 150.06 145.626 150.293 145.722 150.55C145.818 150.808 145.855 151.084 145.83 151.357V152.579C145.842 153.211 145.752 153.84 145.562 154.442L143.792 159.097H142.219L143.78 155.012H143.722C143.539 155.121 143.329 155.177 143.116 155.175M143.733 154.011C144.164 154.011 144.351 153.673 144.351 153.301V151.45C144.351 151.078 144.106 150.892 143.733 150.892C143.654 150.882 143.574 150.889 143.498 150.912C143.422 150.936 143.352 150.976 143.292 151.028C143.232 151.081 143.185 151.146 143.153 151.219C143.12 151.292 143.104 151.371 143.104 151.45V153.429C143.1 153.511 143.114 153.592 143.145 153.668C143.176 153.743 143.223 153.811 143.283 153.867C143.343 153.922 143.414 153.964 143.492 153.989C143.57 154.014 143.652 154.021 143.733 154.011Z" fill="#83D0F5"/>
<path d="M148.671 152.067L147.203 151.904C147.203 150.252 148.065 149.32 149.381 149.32C150.918 149.32 151.524 150.205 151.524 151.578C151.538 152.349 151.345 153.108 150.965 153.778L149.008 157.596H151.431V159.051H147.285V157.759C148.112 156.199 148.904 154.64 149.707 153.103C149.937 152.654 150.042 152.152 150.01 151.648C150.01 151.322 149.917 150.799 149.369 150.799C148.822 150.799 148.671 151.136 148.671 152.137" fill="#83D0F5"/>
<path d="M153.154 159.051L155.495 150.822H154.121V151.858H152.805V149.448H157.044V150.705L154.622 159.051H153.154Z" fill="#83D0F5"/>
<path d="M162.729 159.051H161.25V149.448H165.396V150.857H162.729V159.051Z" fill="#83D0F5"/>
<path d="M166.42 157.386H164.871V159.051H166.42V157.386Z" fill="#83D0F5"/>
<path fill-rule="evenodd" clip-rule="evenodd" d="M158.908 170.76C157.522 168.758 156.206 166.733 154.738 164.812C153.986 163.944 153.054 163.249 152.006 162.777C150.958 162.304 149.82 162.066 148.67 162.077C143.884 161.74 142.078 166.872 142.09 170.481C142.09 176.836 145.584 183.668 149.078 188.754C149.672 189.604 151 191.513 152.06 191.874C152.362 189.895 150.895 188.684 150.301 187.509C149.136 185.181 147.913 182.853 146.807 180.525C145.615 177.761 145.001 174.783 145.002 171.773C144.927 169.453 145.683 167.184 147.133 165.371C147.867 164.405 148.135 164.335 149.136 164.673C150.094 164.952 150.949 165.506 151.594 166.267C152.483 167.198 153.3 168.194 154.04 169.247C154.792 170.664 155.408 172.148 155.88 173.681C155.998 174.281 156.32 174.822 156.791 175.213C157.262 175.603 157.853 175.818 158.465 175.823C158.802 175.851 159.139 175.766 159.423 175.583C159.708 175.4 159.924 175.129 160.038 174.81C160.901 172.964 162.031 171.254 163.392 169.736C164.384 168.727 165.573 167.935 166.886 167.408C168.796 166.721 170.077 167.862 170.077 170.201C170.079 170.742 170.016 171.281 169.891 171.807C169.477 173.655 168.839 175.445 167.992 177.138C167.48 178.069 166.828 178.942 166.21 179.839C162.344 185.519 158.687 191.164 152.91 195.051C150.492 196.592 148.244 198.382 146.201 200.394C154.354 197.298 160.725 191.652 165.815 184.715C166.979 183.098 168.039 181.375 169.064 179.745C170.607 177.118 171.628 174.217 172.069 171.202C172.2 170.056 172.113 168.895 171.813 167.78C171.705 167.337 171.476 166.932 171.151 166.611C170.826 166.29 170.418 166.066 169.972 165.965C166.886 164.975 163.846 165.58 160.9 168.548C160.201 169.258 159.514 170.027 158.85 170.748" fill="white"/>
<path fill-rule="evenodd" clip-rule="evenodd" d="M97.983 194.574C97.997 194.733 97.997 194.892 97.983 195.051C97.9647 195.276 97.9096 195.496 97.8199 195.703C97.5584 196.303 97.1733 196.841 96.6896 197.282C96.206 197.723 95.6347 198.058 95.013 198.264C94.5008 198.487 93.9321 198.548 93.3842 198.437C92.8363 198.327 92.3356 198.051 91.9499 197.647C91.717 197.949 91.4724 198.24 91.2511 198.543C91.0544 198.858 90.7806 199.118 90.4556 199.298C90.1306 199.478 89.7651 199.573 89.3934 199.573C89.0218 199.573 88.6562 199.478 88.3312 199.298C88.0063 199.118 87.7325 198.858 87.5358 198.543C87.3261 198.24 87.1747 197.903 86.9767 197.554L86.6739 198.019C86.2151 198.798 85.5811 199.46 84.822 199.951C84.5323 200.105 84.2163 200.204 83.8903 200.242C83.6131 200.292 83.3272 200.251 83.0753 200.125C82.8234 199.999 82.619 199.795 82.4927 199.544C82.1808 199.906 81.8503 200.252 81.5027 200.58C81.2249 200.824 80.8988 201.007 80.5457 201.117C80.1927 201.227 79.8203 201.262 79.4529 201.22C79.1227 201.203 78.8067 201.081 78.5511 200.871C78.2954 200.662 78.1135 200.376 78.0319 200.056C77.9155 199.684 77.8223 199.311 77.7175 198.892L77.3448 199.265C76.8294 199.827 76.148 200.21 75.3997 200.359C75.2018 200.359 75.1086 200.487 75.1552 200.673C75.2018 200.859 75.2483 201.232 75.3182 201.511C75.3881 201.79 75.4696 201.93 75.5162 202.151C75.5628 202.372 75.5162 202.524 75.5162 202.617C75.5162 202.71 75.1901 202.617 75.0387 202.617C74.6738 202.532 74.3475 202.327 74.1114 202.037C73.8752 201.746 73.7425 201.385 73.7343 201.01C73.7062 200.757 73.5958 200.52 73.4198 200.335C73.2444 200.086 73.1288 199.799 73.082 199.497C73.082 199.497 73.1869 199.334 73.28 199.288C73.3884 199.275 73.4978 199.275 73.6061 199.288C73.6061 199.043 73.711 198.799 73.7343 198.543C73.8158 197.565 73.8973 196.588 73.9555 195.61C73.9555 195.121 73.9555 195.109 74.5146 195.039C74.7466 195.01 74.9814 195.01 75.2134 195.039C75.621 195.039 75.7492 195.237 75.7026 195.621C75.621 196.436 75.5046 197.239 75.4114 198.042C75.4114 198.205 75.4114 198.357 75.4114 198.578C75.5947 198.511 75.7704 198.425 75.9355 198.322C76.5179 197.891 77.1002 197.449 77.6709 196.983C77.7994 196.833 77.8876 196.653 77.9271 196.459C78.1018 195.889 78.2532 195.296 78.4396 194.737C78.5106 194.462 78.6288 194.203 78.789 193.969C78.8753 193.818 79.0087 193.7 79.1686 193.633C79.3285 193.566 79.5062 193.553 79.6741 193.596C79.8768 193.628 80.0638 193.724 80.2067 193.871C80.3496 194.018 80.4407 194.208 80.4661 194.411C80.4742 194.758 80.4108 195.102 80.2798 195.424C80.0352 195.971 79.7091 196.506 79.4296 197.041C79.3158 197.245 79.2333 197.465 79.185 197.693C79.1152 198.241 79.0918 198.794 79.1151 199.346C79.1151 199.963 79.6043 200.196 80.1983 199.928C80.6044 199.7 80.9936 199.443 81.3629 199.16C81.4445 199.102 81.491 199.02 81.5609 198.962C82.0242 198.577 82.3273 198.033 82.4112 197.437C82.6271 195.959 83.2895 194.583 84.3096 193.491C84.7012 193.055 85.1985 192.726 85.7538 192.537C86.2123 192.392 86.7046 192.392 87.1631 192.537C87.4161 192.338 87.7327 192.238 88.0541 192.255C88.3754 192.273 88.6796 192.406 88.9101 192.63C88.9564 192.708 88.9864 192.795 88.9984 192.885C89.0104 192.975 89.0042 193.066 88.98 193.154C88.6841 194.208 88.5198 195.295 88.4908 196.39C88.4906 196.855 88.5374 197.319 88.6306 197.775C88.747 198.345 89.143 198.508 89.6904 198.275C90.359 197.97 90.9517 197.521 91.4258 196.96C91.4432 196.926 91.4523 196.888 91.4523 196.849C91.4523 196.811 91.4432 196.773 91.4258 196.739C91.2225 196.057 91.1672 195.34 91.2636 194.636C91.36 193.931 91.6059 193.255 91.9849 192.653C92.2702 192.12 92.6355 191.633 93.068 191.21C93.2776 191.014 93.5306 190.871 93.8065 190.791C94.0823 190.712 94.373 190.699 94.6548 190.753C94.9366 190.808 95.2015 190.928 95.4278 191.105C95.654 191.281 95.8352 191.509 95.9564 191.769C96.1428 192.13 95.9564 192.409 95.5371 192.432C95.3133 192.467 95.0854 192.467 94.8616 192.432C94.7735 192.397 94.677 192.388 94.584 192.407C94.4909 192.425 94.4053 192.471 94.3375 192.537C94.1719 192.683 94.0234 192.847 93.8949 193.026C93.4119 193.825 93.0508 194.692 92.8234 195.598C92.6901 196.003 92.6901 196.439 92.8234 196.844C92.8974 197.048 93.0482 197.216 93.2438 197.312C93.4394 197.407 93.6646 197.423 93.8716 197.356C94.4859 197.23 95.061 196.958 95.5488 196.564C96.2476 196.017 96.9115 195.4 97.587 194.853C97.6802 194.783 97.75 194.702 97.9014 194.574M86.3827 193.957C86.0044 194.106 85.6797 194.366 85.451 194.702C84.8322 195.507 84.3664 196.418 84.0766 197.391C83.9524 197.812 83.8513 198.239 83.7738 198.671C83.7738 198.764 83.7738 198.869 83.8437 198.974C83.9422 198.949 84.0364 198.91 84.1232 198.857C84.2867 198.726 84.4316 198.573 84.5542 198.403C85.1132 197.53 85.7189 196.681 86.1847 195.773C86.413 195.28 86.5887 194.765 86.7088 194.236C86.7088 193.992 86.6389 193.899 86.3827 193.957Z" fill="white"/>
<path fill-rule="evenodd" clip-rule="evenodd" d="M132.225 186.624C132.586 186.287 132.947 185.949 133.297 185.6C133.297 185.542 133.366 185.414 133.401 185.321C133.599 184.622 133.774 183.912 133.995 183.214C134.124 182.807 134.426 182.713 134.857 182.888C135.064 182.938 135.245 183.064 135.364 183.241C135.482 183.417 135.53 183.632 135.498 183.842C135.3 184.785 135.079 185.716 134.799 186.648C134.312 188.149 133.923 189.681 133.634 191.233C133.634 191.233 133.634 191.315 133.634 191.361C133.518 191.746 133.308 191.943 132.994 191.943C132.819 191.953 132.646 191.899 132.508 191.792C132.369 191.686 132.273 191.533 132.237 191.361C132.162 191.018 132.138 190.665 132.167 190.314C132.167 189.685 132.318 189.069 132.353 188.393C132.106 188.632 131.876 188.889 131.666 189.162C131.189 189.93 130.769 190.733 130.292 191.489C130.079 191.799 129.833 192.084 129.558 192.339C129.404 192.502 129.21 192.621 128.995 192.684C128.78 192.748 128.553 192.753 128.335 192.7C127.823 192.595 127.333 192.444 126.763 192.304L126.32 192.688C126.048 192.958 125.709 193.15 125.337 193.243C124.965 193.336 124.575 193.328 124.208 193.218C123.841 193.108 123.51 192.902 123.251 192.62C122.991 192.339 122.812 191.992 122.733 191.618C122.605 191.094 122.558 190.547 122.477 190.011L121.953 190.745C121.335 191.606 120.73 192.49 120.101 193.352C119.892 193.632 119.654 193.89 119.39 194.12C119.257 194.25 119.098 194.35 118.924 194.413C118.749 194.477 118.563 194.502 118.378 194.488C118.192 194.473 118.012 194.42 117.849 194.33C117.687 194.241 117.545 194.117 117.434 193.969C117.234 193.683 117.062 193.379 116.921 193.061C116.755 193.312 116.563 193.546 116.35 193.759C115.975 194.118 115.561 194.435 115.116 194.702C114.779 194.897 114.382 194.962 114 194.885C113.618 194.808 113.278 194.594 113.043 194.283C112.608 193.749 112.333 193.104 112.251 192.421C112.251 192.199 112.251 191.978 112.146 191.687C111.89 192.211 111.692 192.677 111.459 193.119C111.204 193.665 110.83 194.146 110.364 194.527C110.031 194.799 109.611 194.939 109.182 194.922C108.753 194.905 108.345 194.731 108.035 194.434C107.822 194.258 107.671 194.018 107.606 193.749C107.541 193.481 107.565 193.198 107.674 192.944C107.73 192.772 107.837 192.62 107.98 192.509C108.123 192.397 108.296 192.33 108.477 192.316C108.636 192.302 108.794 192.335 108.935 192.409C109.075 192.483 109.191 192.596 109.269 192.735C109.584 193.131 109.723 193.131 110.003 192.735C110.624 191.786 111.11 190.756 111.447 189.674C111.68 188.929 111.983 188.184 112.251 187.451C112.344 187.195 112.519 187.136 112.775 187.218C113.648 187.52 113.94 187.87 113.823 188.568C113.707 189.266 113.613 189.639 113.532 190.174C113.374 191.14 113.542 192.131 114.009 192.991C114.068 193.11 114.138 193.223 114.219 193.328C114.332 193.49 114.504 193.601 114.697 193.638C114.891 193.675 115.091 193.635 115.256 193.526C115.724 193.164 116.171 192.776 116.595 192.362C116.686 192.281 116.757 192.18 116.803 192.067C116.849 191.954 116.87 191.832 116.863 191.711C116.95 190.071 117.208 188.444 117.632 186.857C117.681 186.675 117.744 186.496 117.818 186.322C117.993 185.938 118.156 185.844 118.575 186.007C118.905 186.141 119.211 186.325 119.483 186.554C119.619 186.671 119.712 186.829 119.748 187.004C119.784 187.178 119.761 187.36 119.681 187.52C119.414 188.277 119.122 189.022 118.924 189.848C118.726 190.675 118.575 191.489 118.435 192.316C118.437 192.507 118.473 192.696 118.54 192.875C118.68 192.755 118.813 192.627 118.936 192.49C119.926 191.012 120.928 189.546 121.929 188.068C122.185 187.683 122.372 187.253 122.616 186.904C123.001 186.263 123.432 186.194 124.061 186.671C124.234 186.776 124.369 186.932 124.449 187.118C124.528 187.303 124.547 187.509 124.503 187.707C124.317 188.743 124.165 189.79 124.037 190.838C124.018 191.164 124.058 191.491 124.154 191.804C124.159 191.872 124.181 191.938 124.218 191.996C124.256 192.053 124.307 192.1 124.367 192.133C124.427 192.165 124.495 192.182 124.564 192.182C124.632 192.181 124.7 192.163 124.759 192.13C125.237 191.967 125.68 191.746 126.145 191.536C126.145 191.536 126.227 191.455 126.239 191.408C126.368 190.969 126.66 190.594 127.054 190.36C127.613 189.965 128.219 189.592 128.778 189.197C128.924 189.092 129.08 189.002 129.243 188.929C129.692 188.767 130.08 188.471 130.355 188.082C130.629 187.693 130.778 187.229 130.781 186.752C130.833 186.242 130.833 185.727 130.781 185.216C130.723 184.727 130.373 184.599 129.966 184.89C129.111 185.416 128.49 186.249 128.23 187.218C128.214 187.311 128.172 187.397 128.111 187.468C128.049 187.54 127.969 187.593 127.88 187.623C127.791 187.653 127.695 187.658 127.603 187.638C127.511 187.618 127.426 187.573 127.357 187.509C127.095 187.345 126.902 187.092 126.812 186.797C126.722 186.502 126.742 186.184 126.868 185.903C126.961 185.677 127.091 185.469 127.252 185.286C127.785 184.719 128.358 184.19 128.964 183.703C129.185 183.528 129.443 183.405 129.717 183.343C129.992 183.281 130.278 183.281 130.553 183.344C130.827 183.406 131.085 183.529 131.306 183.704C131.526 183.879 131.705 184.102 131.829 184.355C132.181 184.985 132.324 185.71 132.237 186.426C132.242 186.484 132.242 186.543 132.237 186.601H132.307" fill="white"/>
<path fill-rule="evenodd" clip-rule="evenodd" d="M141.602 188.615C141.468 189.023 141.468 189.463 141.602 189.872C141.665 190.062 141.788 190.227 141.951 190.344C142.114 190.461 142.31 190.524 142.51 190.523C143.428 190.552 144.337 190.335 145.142 189.895C145.878 189.531 146.547 189.047 147.122 188.463C147.196 188.376 147.293 188.312 147.402 188.277C147.414 188.428 147.414 188.58 147.402 188.731C147.237 189.369 146.859 189.931 146.33 190.326C145.621 190.965 144.752 191.399 143.815 191.583C143.25 191.699 142.665 191.676 142.111 191.516C141.557 191.355 141.051 191.063 140.635 190.663C140.443 190.454 140.275 190.223 140.134 189.976C139.668 190.349 139.191 190.768 138.69 191.14C138.168 191.537 137.529 191.75 136.873 191.746C136.342 191.744 135.831 191.544 135.44 191.184C135.05 190.824 134.809 190.331 134.765 189.802C134.709 189.079 134.809 188.353 135.056 187.672C135.369 186.739 135.816 185.857 136.384 185.053C136.541 184.836 136.72 184.637 136.92 184.459C137.174 184.241 137.501 184.127 137.836 184.14C138.171 184.153 138.489 184.292 138.725 184.529C138.84 184.617 138.924 184.738 138.966 184.876C139.007 185.014 139.005 185.161 138.958 185.297C138.865 185.553 138.597 185.553 138.341 185.588C138.228 185.603 138.122 185.652 138.038 185.728C137.663 186.149 137.335 186.61 137.06 187.101C136.732 187.894 136.456 188.706 136.233 189.534C136.173 189.665 136.155 189.812 136.183 189.954C136.21 190.096 136.28 190.225 136.384 190.326C136.664 190.547 136.978 190.419 137.258 190.326C138.214 189.944 139.1 189.405 139.878 188.731C139.954 188.638 140.003 188.525 140.018 188.405C140.176 187.485 140.567 186.622 141.155 185.896C141.742 185.171 142.505 184.608 143.372 184.261C143.611 184.152 143.872 184.095 144.135 184.095C144.398 184.095 144.659 184.152 144.898 184.261C145.071 184.321 145.228 184.421 145.355 184.552C145.483 184.683 145.577 184.843 145.632 185.018C145.808 185.781 145.708 186.582 145.349 187.278C144.991 187.975 144.398 188.523 143.675 188.824C142.995 189.032 142.262 188.987 141.613 188.696M142.068 187.625L142.126 187.753C142.332 187.714 142.534 187.66 142.732 187.59C142.937 187.479 143.119 187.329 143.267 187.148C143.698 186.636 144.106 186.112 144.502 185.577C144.502 185.519 144.502 185.39 144.502 185.297C144.502 185.204 144.292 185.297 144.222 185.356C143.327 185.918 142.59 186.699 142.079 187.625" fill="white"/>
<path fill-rule="evenodd" clip-rule="evenodd" d="M104.018 188.556L103.249 188.149C102.888 187.951 102.515 187.777 102.177 187.555C101.777 187.333 101.465 186.982 101.291 186.559C101.118 186.136 101.093 185.666 101.222 185.228C101.539 184.106 102.1 183.069 102.864 182.19C103.051 182.062 103.074 181.712 103.435 181.817C103.628 181.862 103.806 181.955 103.952 182.087C104.099 182.219 104.21 182.387 104.274 182.574C104.277 182.695 104.24 182.814 104.169 182.911C103.808 183.575 103.424 184.238 103.074 184.913C102.951 185.148 102.86 185.399 102.806 185.658C102.731 185.959 102.76 186.276 102.886 186.559C103.013 186.841 103.231 187.073 103.505 187.218C103.983 187.52 104.472 187.8 104.938 188.126C105.522 188.551 106.024 189.079 106.417 189.685C106.617 189.965 106.751 190.286 106.807 190.625C106.864 190.964 106.842 191.312 106.743 191.641C106.37 192.805 105.928 193.969 105.473 195.074C105.286 195.545 104.922 195.925 104.46 196.134C104.052 196.253 103.62 196.258 103.209 196.15C102.799 196.041 102.426 195.822 102.131 195.517C101.884 195.224 101.698 194.884 101.584 194.519C101.47 194.153 101.43 193.768 101.467 193.387C101.545 191.932 102.002 190.524 102.795 189.301C102.873 189.191 102.959 189.086 103.051 188.987C103.146 188.856 103.276 188.753 103.426 188.692C103.576 188.63 103.741 188.611 103.901 188.638L103.971 188.556M103.144 194.376C103.226 194.527 103.295 194.62 103.354 194.725C103.469 194.668 103.571 194.589 103.656 194.492C103.83 194.224 103.986 193.944 104.122 193.654C104.46 192.863 104.81 192.071 105.101 191.257C105.177 190.931 105.177 190.593 105.101 190.267C105.072 190.174 105.023 190.089 104.956 190.019C104.89 189.948 104.808 189.894 104.716 189.86C104.612 189.86 104.425 190.023 104.285 190.128C104.23 190.168 104.19 190.225 104.169 190.291C103.854 191.14 103.482 191.978 103.237 192.851C103.139 193.354 103.092 193.864 103.097 194.376" fill="white"/>
<path fill-rule="evenodd" clip-rule="evenodd" d="M60.2716 201.848C59.9338 202.756 59.5728 203.653 59.2583 204.572C58.9438 205.492 58.7691 206.19 58.5245 206.993C58.4798 207.168 58.4049 207.333 58.3033 207.482C58.227 207.633 58.109 207.759 57.9633 207.845C57.8175 207.931 57.6501 207.973 57.481 207.967C57.3118 207.961 57.1479 207.907 57.0088 207.81C56.8697 207.714 56.7611 207.58 56.696 207.424C56.5748 207.169 56.4773 206.904 56.4048 206.632C56.4048 206.562 56.4048 206.481 56.4048 206.388C56.0904 206.772 55.8108 207.156 55.4847 207.482C55.1096 207.927 54.6344 208.277 54.098 208.504C53.5616 208.73 52.9792 208.827 52.3983 208.785C51.8004 208.744 51.2285 208.525 50.7561 208.157C50.5698 208.541 50.4067 208.913 50.2087 209.321C50.0508 209.649 49.8108 209.932 49.5118 210.141C49.2128 210.349 48.865 210.477 48.5019 210.513C48.1389 210.548 47.7729 210.489 47.4394 210.341C47.1059 210.193 46.8162 209.962 46.5982 209.67C46.3541 209.372 46.1322 209.057 45.9343 208.727C45.8528 208.902 45.7945 209.065 45.713 209.228C45.385 209.93 44.94 210.572 44.3969 211.125C44.1158 211.452 43.73 211.671 43.3052 211.745C42.8804 211.819 42.443 211.744 42.0676 211.532C41.8374 211.934 41.5847 212.323 41.3105 212.696C40.0643 214.256 38.7249 213.476 38.1076 212.405C37.8281 211.928 37.6418 211.393 37.3972 210.869L37.3273 211.171C37.2057 211.984 36.9499 212.771 36.5703 213.499C36.4166 213.838 36.1586 214.119 35.8339 214.302C35.5091 214.484 35.1346 214.557 34.765 214.512C34.5418 214.467 34.3234 214.401 34.1128 214.314C33.7401 214.768 33.3907 215.245 32.9481 215.676C32.6426 216.014 32.2712 216.287 31.8567 216.477C31.4421 216.667 30.9932 216.771 30.5372 216.782C29.9382 216.856 29.3328 216.707 28.8367 216.363C28.3405 216.02 27.9881 215.506 27.8468 214.919C27.593 213.905 27.6359 212.84 27.9704 211.849C28.3049 210.859 28.9168 209.985 29.7336 209.332C29.9645 209.18 30.2209 209.069 30.4906 209.007C30.7338 208.943 30.9911 208.959 31.2242 209.054C31.4572 209.148 31.6534 209.315 31.7834 209.53C32.1293 210.181 32.2603 210.924 32.1578 211.654C32.0553 212.384 31.7245 213.062 31.2127 213.592C30.9754 213.801 30.6982 213.959 30.3979 214.057C30.0975 214.155 29.7804 214.191 29.4657 214.163H29.1978C29.2076 214.616 29.3582 215.056 29.6287 215.42C29.7308 215.564 29.8754 215.673 30.0424 215.732C30.2095 215.79 30.3906 215.795 30.5605 215.746C31.3967 215.509 32.1532 215.05 32.7501 214.419C32.8782 214.291 32.9947 214.151 33.1111 214.023C33.2333 213.925 33.3253 213.794 33.3768 213.646C33.4283 213.498 33.4371 213.338 33.4023 213.185C33.3763 212.914 33.4463 212.642 33.6003 212.417C33.6535 212.315 33.7302 212.227 33.8242 212.161C33.9182 212.094 34.0267 212.051 34.1406 212.036C34.2546 212.02 34.3707 212.031 34.4793 212.069C34.5879 212.107 34.6859 212.17 34.765 212.254L34.8582 212.324C35.3473 212.743 35.4172 212.72 35.6502 212.138C36.0562 211.012 36.3107 209.838 36.4072 208.646C36.4072 207.947 36.6168 207.261 36.71 206.562C36.711 206.511 36.724 206.461 36.7481 206.415C36.7722 206.37 36.8066 206.331 36.8486 206.302C36.8906 206.272 36.9389 206.253 36.9897 206.246C37.0405 206.238 37.0924 206.243 37.141 206.26C37.9562 206.364 38.3639 206.621 38.3988 207.365C38.3988 207.912 38.3988 208.448 38.3988 208.995C38.4354 209.977 38.7819 210.922 39.3888 211.695C39.5164 211.845 39.6656 211.974 39.8314 212.079C39.9365 212.155 40.0628 212.196 40.1924 212.196C40.322 212.196 40.4483 212.155 40.5535 212.079C40.9645 211.771 41.2992 211.373 41.5318 210.915C41.5488 210.862 41.5488 210.805 41.5318 210.752C41.2641 209.592 41.341 208.378 41.7531 207.261C42.0048 206.362 42.4411 205.526 43.0343 204.805C43.2579 204.517 43.5371 204.277 43.8551 204.099C44.1732 203.921 44.5238 203.809 44.8861 203.769C45.0917 203.758 45.2978 203.758 45.5034 203.769C45.7225 203.561 46.0064 203.435 46.3076 203.412C46.6087 203.388 46.9087 203.469 47.1572 203.641C47.242 203.704 47.3054 203.791 47.3388 203.891C47.3722 203.991 47.3738 204.099 47.3436 204.2C47.1574 205.275 47.1104 206.371 47.2038 207.459C47.2497 207.925 47.3434 208.385 47.4833 208.832C47.658 209.391 48.0657 209.507 48.648 209.216C49.2787 208.821 49.8153 208.292 50.2204 207.668C50.2408 207.628 50.2514 207.585 50.2514 207.54C50.2514 207.495 50.2408 207.452 50.2204 207.412C49.2071 205.224 50.5814 202.465 52.0256 201.441C52.226 201.27 52.4607 201.145 52.7138 201.072C52.967 201 53.2327 200.983 53.4931 201.022C53.6638 201.052 53.8255 201.12 53.9666 201.221C54.1076 201.322 54.2244 201.452 54.3084 201.604C54.6419 202.296 54.7302 203.081 54.5587 203.829C54.3873 204.578 53.9664 205.246 53.365 205.724C53.078 205.909 52.7574 206.034 52.4216 206.094C52.0858 206.154 51.7414 206.147 51.4083 206.073C51.3882 206.344 51.4256 206.615 51.5179 206.87C51.6103 207.125 51.7555 207.357 51.9441 207.552C52.0889 207.665 52.262 207.737 52.4446 207.759C52.6272 207.782 52.8125 207.754 52.9806 207.68C53.7319 207.449 54.4209 207.051 54.9956 206.516L55.4265 206.097C55.7611 205.811 56.0262 205.453 56.2017 205.05C56.3773 204.646 56.4587 204.208 56.4398 203.769C56.3815 202.523 56.4398 201.266 56.4398 200.009C56.4398 199.253 56.7659 199.055 57.5113 199.311C58.2567 199.567 58.2217 199.707 58.1984 200.3C58.1984 201.313 58.082 202.314 58.0237 203.327C58.0237 203.396 58.0237 203.455 58.0237 203.524H58.1053C58.1 203.463 58.1 203.4 58.1053 203.338C58.443 202.558 58.7691 201.767 59.1185 201.01C59.2483 200.718 59.4042 200.437 59.5844 200.172C59.6799 200.021 59.8122 199.896 59.969 199.81C60.1259 199.723 60.3021 199.678 60.4812 199.678C60.6603 199.678 60.8366 199.723 60.9934 199.81C61.1502 199.896 61.2826 200.021 61.378 200.172C61.5712 200.449 61.706 200.762 61.774 201.092C61.9138 201.744 61.9953 202.407 62.1467 203.105L62.2515 202.838C62.6009 202 62.9503 201.173 63.323 200.335C63.4355 200.109 63.5639 199.891 63.7074 199.684C63.8096 199.522 63.9604 199.396 64.1382 199.325C64.316 199.254 64.5117 199.241 64.6974 199.288C65.1865 199.416 65.6175 199.625 65.6757 200.172C65.7339 200.719 65.6757 201.232 65.7456 201.767C65.7347 201.926 65.7347 202.085 65.7456 202.244C65.8038 202.523 65.9552 202.593 66.1998 202.419C66.4444 202.244 66.887 201.883 67.2014 201.592C67.7488 201.092 68.2729 200.556 68.8204 200.044L69.1814 199.742H69.2862C69.3102 199.876 69.3102 200.014 69.2862 200.149C69.1564 200.552 68.9887 200.942 68.7854 201.313C68.2451 202.176 67.5865 202.96 66.8287 203.641C65.9319 204.479 65.0701 204.293 64.6391 203.164C64.4411 202.652 64.313 202.128 64.15 201.592C64.106 201.651 64.067 201.713 64.0335 201.779C63.5676 202.745 63.1134 203.722 62.6708 204.7C62.5493 204.943 62.3583 205.145 62.1219 205.28C61.8855 205.414 61.6145 205.476 61.3431 205.457C61.2233 205.443 61.1121 205.388 61.029 205.301C60.9459 205.213 60.8963 205.1 60.8889 204.979C60.6909 204.072 60.5278 203.164 60.3415 202.256C60.3415 202.128 60.3415 201.988 60.3415 201.86H60.2716M45.3287 205.352C45.3172 205.306 45.2935 205.265 45.2601 205.232C45.2267 205.199 45.1849 205.176 45.1392 205.165C45.0936 205.154 45.0458 205.156 45.0012 205.171C44.9565 205.185 44.9167 205.212 44.8861 205.247C44.5803 205.502 44.3135 205.8 44.0941 206.132C43.4322 207.254 43.034 208.511 42.9294 209.81C42.9178 209.941 42.9178 210.074 42.9294 210.205C42.9541 210.298 42.9893 210.388 43.0343 210.473C43.1165 210.439 43.1947 210.397 43.2672 210.345C43.3812 210.232 43.4827 210.107 43.57 209.973C44.3111 208.823 44.8617 207.561 45.2006 206.236C45.2659 205.945 45.3087 205.65 45.3287 205.352ZM29.2793 212.999C29.4494 213.004 29.6165 212.954 29.7567 212.858C29.897 212.762 30.003 212.624 30.0597 212.463C30.3275 211.916 30.5605 211.3 30.7818 210.811C30.8401 210.634 30.8754 210.45 30.8866 210.264C30.8866 210.194 30.8866 210.112 30.8051 210.042C30.7235 209.973 30.642 210.042 30.6071 210.147C30.4314 210.344 30.2718 210.554 30.1296 210.776C29.7103 211.458 29.422 212.211 29.2793 212.999ZM51.5248 204.968C51.6513 204.995 51.783 204.984 51.9033 204.937C52.0236 204.889 52.127 204.807 52.2003 204.7C52.7437 204.034 53.1405 203.26 53.365 202.43C53.365 202.349 53.365 202.233 53.365 202.128C53.365 202.023 53.1204 202.209 53.0622 202.291C52.6778 202.861 52.2935 203.455 51.9674 204.037C51.823 204.336 51.7061 204.647 51.618 204.968" fill="white"/>
<path fill-rule="evenodd" clip-rule="evenodd" d="M18.3534 207.994C18.039 208.203 17.7361 208.378 17.4683 208.588C16.5738 209.23 15.8501 210.081 15.3602 211.067C15.1898 211.39 15.0856 211.743 15.0536 212.107C15.0216 212.471 15.0625 212.837 15.1738 213.185C15.2869 213.43 15.4235 213.664 15.5815 213.883C15.6747 214.035 15.8144 214.174 15.8959 214.337C15.9775 214.5 15.8959 214.652 15.6863 214.617C15.5166 214.591 15.3517 214.54 15.1971 214.465C14.5148 214.147 13.9782 213.583 13.6952 212.885C13.4121 212.188 13.4036 211.409 13.6714 210.706C14.1162 209.561 14.8554 208.553 15.8144 207.784C16.4201 207.249 17.0723 206.772 17.7245 206.295C17.9225 206.143 18.004 206.004 17.8759 205.783C17.832 205.721 17.8076 205.648 17.806 205.573C17.806 205.41 17.806 205.189 17.806 205.107C17.806 205.026 18.1321 205.107 18.2952 205.107C18.4022 205.114 18.5061 205.146 18.598 205.201C18.8286 205.34 19.0873 205.425 19.3554 205.452C19.6234 205.478 19.8939 205.444 20.147 205.352C21.4392 205.011 22.8106 205.143 24.0138 205.724C25.0938 206.283 25.925 207.225 26.3432 208.366C27.2268 210.527 27.3337 212.927 26.6457 215.157C25.9576 217.388 24.5172 219.311 22.5696 220.599C21.8311 221.146 20.9921 221.541 20.1005 221.763C19.5369 221.901 18.9428 221.835 18.4233 221.577C18.3457 221.541 18.2716 221.498 18.202 221.449C17.7827 221.135 17.7827 220.832 18.202 220.588C18.6213 220.343 19.1105 220.169 19.5763 219.971C19.632 219.954 19.6795 219.918 19.7097 219.868C19.7399 219.819 19.7504 219.76 19.7394 219.703C19.3551 215.85 19.0056 211.998 18.3534 208.18C18.3483 208.114 18.3483 208.048 18.3534 207.982M21.2884 219.144C22.0088 218.648 22.6591 218.057 23.2218 217.387C24.2041 216.336 24.9065 215.055 25.2647 213.662C25.6228 212.269 25.6252 210.808 25.2716 209.414C25.0905 208.547 24.5868 207.782 23.8624 207.272C23.2553 206.934 22.5717 206.756 21.8766 206.756C21.1815 206.756 20.4979 206.934 19.8908 207.272C20.345 211.218 20.8109 215.152 21.2884 219.168" fill="white"/>
<path fill-rule="evenodd" clip-rule="evenodd" d="M63.2268 195.377C63.4946 195.377 63.7742 195.284 64.042 195.272C64.1684 195.245 64.3004 195.264 64.4139 195.326C64.5274 195.388 64.6145 195.489 64.6593 195.61C64.6917 195.671 64.7117 195.738 64.7181 195.807C64.7245 195.875 64.7172 195.945 64.6966 196.011C64.6761 196.077 64.6426 196.138 64.5982 196.191C64.5539 196.244 64.4994 196.288 64.438 196.32C63.7509 196.75 63.0404 197.181 62.3183 197.565C61.5962 197.949 61.0372 198.229 60.3966 198.543C60.2801 198.543 60.152 198.636 60.0355 198.683C59.3833 198.892 59.0805 198.683 58.8708 198.124C58.8657 198.07 58.8657 198.015 58.8708 197.961C58.7427 197.356 58.7893 197.216 59.3833 196.972C60.6645 196.425 61.9689 195.924 63.2617 195.412" fill="white"/>
<path fill-rule="evenodd" clip-rule="evenodd" d="M35.9766 225.988C37.1583 224.905 38.4327 223.928 39.7851 223.067C43.4235 220.589 47.2164 218.346 51.1407 216.351C61.0406 211.23 75.5059 205.701 91.9746 201.523C106.029 197.915 120.298 195.197 134.695 193.387C140.216 192.7 144.688 192.281 147.798 192.06C149.396 191.851 151.012 191.808 152.62 191.932C151.054 192.311 149.461 192.568 147.856 192.7C144.781 193.107 140.332 193.713 134.858 194.539C120.581 196.666 106.42 199.51 92.4288 203.059C78.4136 206.501 64.7626 211.283 51.6649 217.34C46.6567 219.668 42.8249 221.996 40.1461 223.544C38.8327 224.476 37.4416 225.294 35.9882 225.988" fill="white"/>
<defs>
<radialGradient id="paint0_radial_670_206" cx="0" cy="0" r="1" gradientUnits="userSpaceOnUse" gradientTransform="translate(94.2068 70.4946) rotate(0.0999352) scale(66.7131 34.1264)">
<stop stop-color="#E1F2FC"/>
<stop offset="0.3" stop-color="#DFF1FC"/>
<stop offset="0.41" stop-color="#D8EEFB"/>
<stop offset="0.49" stop-color="#CCEAFA"/>
<stop offset="0.51" stop-color="#C8E8F9"/>
<stop offset="0.73" stop-color="#ABDEF7"/>
<stop offset="1" stop-color="#83D0F4"/>
</radialGradient>
</defs>
</svg>
