<svg width="161" height="126" viewBox="0 0 161 126" fill="none" xmlns="http://www.w3.org/2000/svg">
<g clip-path="url(#clip0_724_62)">
<path d="M6.73047 65.5052C6.7887 29.2838 39.9007 -0.0239325 80.6995 0.0575425C121.498 0.139018 154.506 29.5398 154.436 65.7613L154.377 69.4044L154.447 80.3453L154.517 87.131C154.557 90.3959 153.466 93.5743 151.431 96.1282C149.684 98.2815 145.607 101.878 137.851 101.948H137.128C135.218 101.948 133.634 101.948 131.841 101.948H131.503C128.999 101.948 125.878 101.866 120.625 101.855H116.933C108.021 101.815 99.1255 102.622 90.3664 104.264H90.2616C89.0969 104.508 86.0105 105.253 84.2169 105.824L81.014 106.86L77.7762 105.987C74.7713 105.172 71.7548 104.404 71.219 104.299C62.5638 102.641 53.768 101.827 44.9554 101.866H44.5012C36.8958 101.866 32.9941 101.959 29.8727 102.006H29.5583C27.555 102.006 25.8313 102.076 23.6067 102.076C13.8117 102.076 6.96341 96.0584 6.91682 87.4802L6.80035 69.6954L6.73047 65.5052Z" fill="#164194"/>
<path d="M6.71875 72.3026C6.78863 35.4177 39.9821 9.00812 80.7344 9.07796C121.487 9.14779 154.575 35.6737 154.505 72.5819V73.1755L6.7304 73.4665L6.71875 72.3026Z" fill="white"/>
<mask id="mask0_724_62" style="mask-type:luminance" maskUnits="userSpaceOnUse" x="17" y="10" width="129" height="60">
<path d="M80.5933 10.7308C53.363 10.7308 29.5918 22.6843 17.2578 41.7495C23.5704 57.2995 50.1485 69.0203 82.0026 69.0785C112.11 69.0785 137.546 58.7428 145.606 44.473C133.843 23.8715 109.198 10.7773 80.7214 10.7191L80.5933 10.7308Z" fill="white"/>
</mask>
<g mask="url(#mask0_724_62)">
<path d="M17.2742 10.528L17.1719 69.1434L145.625 69.3674L145.727 10.7521L17.2742 10.528Z" fill="url(#paint0_radial_724_62)"/>
</g>
<mask id="mask1_724_62" style="mask-type:luminance" maskUnits="userSpaceOnUse" x="8" y="10" width="145" height="62">
<path d="M8.27734 71.837L152.966 71.5344C152.395 36.0113 120.25 10.8006 80.7556 10.7308H80.6275C40.9584 10.7308 8.6384 36.1277 8.31229 71.8487" fill="white"/>
</mask>
<g mask="url(#mask1_724_62)">
<path d="M113.67 37.6525C110.468 35.4876 103.188 30.1568 99.4148 29.0976C93.801 27.5147 87.5 32.4032 84.0759 33.0666C80.6517 33.73 78.1476 29.6446 74.9681 29.5748C72.4057 29.5748 60.0019 34.4982 56.5078 35.8018L64.1365 39.0841C65.1847 39.7592 93.5331 45.928 115.383 39.7243L113.67 37.6525Z" fill="white"/>
<path d="M56.4727 35.8018C59.9667 34.4982 72.3706 29.5282 74.9329 29.5748C76.3637 29.7458 77.7166 30.3189 78.8346 31.2276C77.041 30.762 73.8847 28.795 72.4754 32.1005C71.7533 33.7882 70.5537 37.4429 69.0629 37.9202C65.3825 39.8872 56.4727 35.8018 56.4727 35.8018Z" fill="#0BBBEF"/>
<path d="M89.2717 33.474C92.2068 31.8794 93.0686 30.5642 93.5345 29.342C89.7143 30.3779 85.5681 33.0317 83.5182 33.1248C82.9606 33.1423 82.4043 33.0595 81.876 32.8804C81.5228 33.98 81.0666 35.0439 80.5133 36.0579C79.6515 37.8504 77.6831 38.6186 76.3438 39.6777C78.6731 40.5972 80.7113 43.0066 83.1455 42.5992L84.3102 42.0754C84.7644 40.5158 85.9524 35.2897 89.3533 33.4391" fill="#ECF7FD"/>
<path d="M2.74573 34.4284C2.74573 34.4284 9.61737 34.0559 41.3899 28.7135C55.9485 26.2692 76.5634 43.0298 89.0139 41.5167C101.464 40.0036 119.074 34.2538 131.967 33.893C142.764 33.5904 153.421 38.5487 153.421 38.5487L153.363 65.5169L2.6875 65.2492L2.74573 34.4284Z" fill="#006C3B"/>
<path d="M2.66406 46.0677C2.66406 46.0677 44.1618 45.2529 58.6504 42.2966C71.1358 39.7476 82.0489 45.3926 88.3499 45.3344C94.6508 45.2762 97.9468 41.6797 110.875 41.8426C126.086 42.0638 153.456 46.8592 153.456 46.8592L153.363 65.6682L2.69901 65.4005L2.66406 46.0677Z" fill="#FFED00"/>
<path d="M2.64062 55.9028C2.64062 55.9028 43.2881 46.8009 58.429 44.6826C71.0658 42.925 82.7942 47.6972 89.0835 47.639C95.3727 47.5808 98.0515 44.799 110.98 44.9736C126.179 45.2063 153.432 53.8893 153.432 53.8893L156.763 73.8972L2.66392 74.1183L2.64062 55.9028Z" fill="#76B82A"/>
<path d="M94.3114 29.1208C91.3335 30.0702 88.4295 31.2373 85.6229 32.6126C84.7494 33.02 85.8325 35.9997 85.949 37.2683C86.7244 35.7887 87.9471 34.5913 89.4431 33.8464C92.0287 32.4497 93.3681 31.5185 93.7524 30.4826L94.195 29.3187L94.3114 29.1208Z" fill="#93D5F6"/>
</g>
<path d="M77.5194 108.92C74.2466 108.07 70.9855 107.255 70.4032 107.127C61.0191 105.39 51.4937 104.529 41.95 104.555H41.4375C33.1915 104.555 28.9754 104.648 25.5978 104.706H25.2367C23.0821 104.706 21.2069 104.788 18.796 104.788C8.15084 104.788 0.731799 98.3978 0.685211 89.3192L0.568745 70.3821C0.529606 68.1921 0.982197 66.0213 1.89323 64.0292C2.80427 62.0371 4.15057 60.2744 5.83312 58.8708C9.45421 56.0232 13.9702 54.5546 18.5748 54.7272H19.623C21.5563 54.7272 23.1869 54.7272 25.0504 54.7272H25.4115C27.7408 54.7272 31.3397 54.832 37.3262 54.832C38.4908 54.832 39.8302 54.832 41.2395 54.832C50.92 54.8738 60.5829 54.0047 70.1004 52.2364C71.4281 51.9687 74.7591 51.1773 76.6925 50.572L80.4544 49.4081L84.2163 50.572C86.1847 51.1889 89.5622 51.9687 90.8434 52.2248C100.209 53.9569 109.714 54.818 119.238 54.7971H119.751C127.985 54.7971 132.19 54.7156 135.556 54.6341H135.672C137.932 54.6341 139.877 54.5643 142.439 54.5526H142.532C153.107 54.5526 160.538 60.9659 160.596 70.1027V81.742L160.655 88.9351C160.712 92.4071 159.532 95.7864 157.324 98.4677C155.437 100.796 151.023 104.578 142.625 104.59H141.833C139.76 104.59 138.06 104.59 136.103 104.52H135.742C133.005 104.52 129.616 104.415 123.932 104.415H119.937C110.279 104.393 100.639 105.278 91.1462 107.057H91.0297C89.7835 107.302 86.371 108.117 84.4726 108.71L80.9785 109.804L77.5194 108.92Z" fill="#E42313"/>
<path d="M79.2908 102.041C79.2908 102.041 73.0714 100.4 71.7903 100.155C61.9545 98.3201 51.9685 97.4083 41.9627 97.4318H41.4503C33.1111 97.4318 28.8717 97.5249 25.4708 97.5947H25.0282C22.8968 97.5947 21.0799 97.6646 18.7506 97.6646C15.7252 97.8039 12.7475 96.8724 10.3416 95.0341C9.4989 94.3208 8.82709 93.4276 8.37558 92.4205C7.92408 91.4133 7.70438 90.3177 7.73266 89.2145L7.55796 70.3355C7.52405 69.1874 7.75422 68.0468 8.23075 67.0015C8.70728 65.9563 9.41745 65.0342 10.3066 64.3064C12.662 62.5108 15.5836 61.6188 18.5409 61.7923H19.5775H24.9117H25.2612C27.5905 61.7923 31.1894 61.8971 37.2574 61.9087H41.2057C51.3651 61.933 61.5041 60.9977 71.4875 59.1153C72.9317 58.8126 76.5305 57.9513 78.8366 57.253L80.4672 56.7408L82.121 57.253C84.4504 57.9746 88.0958 58.8126 89.4469 59.0803C99.2646 60.902 109.231 61.806 119.216 61.7807H119.775C128.045 61.7807 132.284 61.6875 135.696 61.6294H135.778C138.003 61.6294 139.936 61.5479 142.417 61.5595H142.487C145.501 61.4388 148.462 62.3732 150.861 64.2016C151.711 64.9251 152.389 65.8294 152.844 66.8484C153.3 67.8675 153.521 68.9754 153.493 70.0911V81.7304L153.563 88.9467C153.602 90.7557 152.999 92.5202 151.862 93.9284C150.756 95.2552 148.089 97.4202 142.545 97.5016H141.776C139.854 97.5016 138.282 97.5016 136.395 97.4434H135.825C133.064 97.4434 129.64 97.3503 123.922 97.3387H119.95C109.826 97.3261 99.7235 98.2574 89.773 100.12H89.5983C88.2123 100.411 84.6484 101.284 82.3772 101.971L80.8632 102.425L79.2908 102.041Z" fill="white"/>
<path d="M13.9177 67.2162H20.0439L20.0323 75.1193H24.5629L24.5862 67.2278L30.7124 67.2395L30.6658 90.1223L24.5512 90.1107L24.5629 81.2415L20.0323 81.2299L20.009 90.099H13.8711L13.9177 67.2162Z" fill="#164194"/>
<path d="M86.6622 67.3326L92.5089 67.3442L92.4623 90.2271H86.3594L86.406 67.3326" fill="#164194"/>
<path d="M41.2163 85.2804C42.5091 85.2804 44.524 84.5238 44.5007 81.2997C44.4775 78.0756 42.4858 77.3307 41.1697 77.3424C39.8537 77.354 37.8504 78.0873 37.8737 81.3114C37.897 84.5354 39.9002 85.2804 41.2163 85.2804ZM32.5977 81.3579C32.5977 74.3744 37.8155 72.2793 41.2047 72.256C44.5939 72.2327 49.7884 74.2812 49.7768 81.323C49.7651 88.3648 44.6172 90.6344 41.228 90.6344C37.8388 90.6344 32.586 88.388 32.5977 81.323" fill="#164194"/>
<path d="M109.817 77.8778C109.817 73.2919 106.207 72.3375 103.05 72.3375C100.581 72.3375 98.3917 72.6168 96.4583 74.2579L96.074 78.6576C98.4034 77.4937 99.8243 76.5974 102.049 76.5974C103.039 76.5974 104.122 76.7138 104.157 77.936C104.238 80.4035 94.723 79.0301 94.7579 85.6412C94.7579 89.3192 96.9359 90.7625 100.581 90.7392C101.313 90.7178 102.033 90.5431 102.693 90.2263C103.353 89.9095 103.939 89.4577 104.413 88.9002V90.262H109.829L109.817 77.8778ZM103.668 86.1184C103.16 86.4719 102.551 86.6516 101.932 86.6305C101.512 86.6537 101.098 86.5145 100.777 86.2415C100.456 85.9685 100.253 85.5827 100.209 85.164C100.209 83.6974 101.699 83.29 102.328 83.0572C103.668 82.6033 104.914 82.4869 104.902 82.0795C104.944 82.6336 104.944 83.1899 104.902 83.744C104.907 84.1965 104.804 84.6436 104.601 85.0484C104.399 85.4532 104.103 85.804 103.738 86.0718" fill="#164194"/>
<path d="M138.863 85.6412C140.028 85.6412 141.81 84.8497 141.798 81.451C141.787 78.0524 139.993 77.2958 138.84 77.2958C137.687 77.2958 135.707 78.0989 135.707 81.486C135.707 84.873 137.71 85.6412 138.863 85.6412ZM141.88 88.9002C141.298 89.5265 140.585 90.017 139.792 90.3368C138.999 90.6567 138.145 90.798 137.291 90.7508C132.632 90.7508 130.641 85.7227 130.641 80.9273C130.641 77.1911 132.469 72.384 137.466 72.3608C139.341 72.3608 141.251 72.838 141.728 73.7924V67.3792H147.82V90.262H141.857L141.88 88.9002Z" fill="#164194"/>
<path d="M112.285 72.838H118.423V74.4791C119.588 72.6983 121.102 72.2676 123.559 72.2676C126.401 72.2676 129.091 74.0484 129.115 78.0873V90.2271H123V80.6596C123 78.4714 122.429 77.6799 120.764 77.6799C119.343 77.6799 118.435 78.4481 118.435 80.6014V90.2154H112.262L112.285 72.838Z" fill="#164194"/>
<path d="M77.6689 90.2038V80.7992C77.6689 78.5994 77.0865 77.8312 75.421 77.8196C74.0118 77.8196 73.0917 78.6343 73.0917 80.776V90.1921H67.0586V67.2977H73.0917V74.6071C74.2563 72.8263 75.7355 72.3724 78.1813 72.384C81.0348 72.384 83.667 74.1532 83.7019 78.2037V90.1805L77.6689 90.2038Z" fill="#164194"/>
<path d="M64.6245 84.9777C63.3126 85.5258 61.8998 85.7916 60.4782 85.7576C58.2304 85.7576 57.287 84.0233 57.287 81.8817C57.239 81.4048 57.2876 80.9231 57.4298 80.4654C57.5719 80.0076 57.8048 79.5831 58.1145 79.2171C58.4242 78.8512 58.8044 78.5512 59.2325 78.3351C59.6606 78.119 60.1278 77.9912 60.6063 77.9592C62.003 77.8276 63.4077 78.1068 64.6478 78.7623V73.2919C63.6694 72.5004 61.3051 72.3142 59.5465 72.2909C53.9094 72.2909 51.2073 76.0504 51.2306 81.5209C51.2306 86.3395 53.164 90.6577 59.034 90.6577C60.9111 90.679 62.784 90.4758 64.6128 90.0524L64.6245 84.9777Z" fill="#164194"/>
<path d="M10.1999 124.051H8.69747V115.845H7.14844V114.448H11.7489V115.845H10.1999V124.051Z" fill="#83D0F5"/>
<path d="M17.1898 117.358C17.1898 119.151 16.5842 120.373 14.6159 120.373H14.0103V124.051H12.5078V114.448H14.6392C16.4095 114.448 17.1898 115.321 17.1898 117.358ZM14.0103 118.941H14.546C15.4661 118.941 15.7107 118.417 15.7107 117.37C15.7107 116.322 15.4312 115.857 14.546 115.857H13.9986L14.0103 118.941Z" fill="#83D0F5"/>
<path d="M20.5908 122.049H18.8204C18.6923 122.712 18.5759 123.387 18.4594 124.051H16.9453C17.5975 120.838 18.2265 117.661 18.8787 114.448H20.5325L22.4776 124.051H20.9635L20.5908 122.049ZM19.0417 120.664H20.3695L19.7406 116.671H19.6707C19.496 117.998 19.2863 119.29 19.0534 120.664" fill="#83D0F5"/>
<path d="M23.9804 125.867H22.6992V122.805L23.2583 122.689C23.7925 122.006 24.0391 121.142 23.9454 120.28L24.1201 114.46H28.4062V122.712H29.0118V125.878H27.8005V124.051H23.9804V125.867ZM24.9005 122.701H26.962V115.833H25.4362L25.3198 120.268C25.3698 121.1 25.2263 121.933 24.9005 122.701Z" fill="#83D0F5"/>
<path d="M31.4091 124.051H29.9766V114.448H31.4324V120.536H31.4907L33.4823 114.448H34.9381V124.051H33.4706V118.045H33.424L31.4091 124.051Z" fill="#83D0F5"/>
<path d="M40.9595 122.666H41.5768V125.878H40.3306V124.051H36.3008V114.448H37.7916V122.666H39.4687V114.448H40.9595V122.666Z" fill="#83D0F5"/>
<path d="M43.8466 124.051H42.4141V114.448H43.8699V120.536H43.9282L45.9198 114.448H47.3756V124.051H45.9081V118.045H45.8615L43.8466 124.051Z" fill="#83D0F5"/>
<path d="M50.1395 124.051H48.6953V114.448H50.1512V120.536H50.2094L52.2127 114.448H53.6569V124.051H52.1894V118.045H52.1544L50.1395 124.051Z" fill="#83D0F5"/>
<path d="M59.2451 124.051H57.8125V114.448H59.2567V120.536H59.3149L61.3182 114.448H62.7624V124.051H61.3066V118.045H61.26L59.2451 124.051Z" fill="#83D0F5"/>
<path d="M66.957 114.448H68.4362V118.499H68.739C69.4029 118.499 69.8222 118.173 70.0434 117.184C70.1133 116.846 70.5559 114.856 70.6141 114.46H72.0118C71.8021 115.438 71.6158 116.38 71.4061 117.335C71.367 117.697 71.2406 118.043 71.0377 118.346C70.8349 118.648 70.5616 118.896 70.2414 119.069C70.5917 119.216 70.8946 119.457 71.1165 119.765C71.3385 120.073 71.471 120.436 71.4993 120.815C71.7322 121.909 71.9419 122.957 72.1748 124.016H70.684C70.5093 123.073 70.3346 122.142 70.125 121.199C69.9153 120.256 69.5193 119.826 68.8555 119.826H68.4478V124.051H66.957V114.448Z" fill="#83D0F5"/>
<path d="M76.1103 122.049H74.34C74.2235 122.712 74.0954 123.387 73.9789 124.051H72.4648C73.1171 120.838 73.7576 117.661 74.3982 114.448H76.0521L78.0087 124.051H76.483L76.1103 122.049ZM74.5613 120.664H75.8774L75.2601 116.671H75.1902C75.0039 117.998 74.7942 119.29 74.5613 120.664Z" fill="#83D0F5"/>
<path d="M79.7682 117.952C79.7682 118.767 80.0827 118.976 80.6883 118.976C80.9519 118.966 81.2118 118.911 81.457 118.813V114.448H82.9478V124.051H81.457V120.128C81.1015 120.233 80.7326 120.284 80.3622 120.28C79.0927 120.28 78.2891 119.733 78.2891 118.15V114.448H79.7682V117.952Z" fill="#83D0F5"/>
<path d="M84.3672 114.448H88.6416V115.857H85.858V118.464H88.2805V119.884H85.858V122.654H88.6416V124.051H84.3672V114.448Z" fill="#83D0F5"/>
<path d="M94.1399 116.59L92.6957 116.962C92.6957 116.253 92.4395 115.799 91.8455 115.799C91.2515 115.799 91.0069 116.462 91.0069 116.962V121.839C91.0069 122.212 91.135 122.794 91.8105 122.794C92.4861 122.794 92.6375 122.386 92.6491 121.63C93.1499 121.723 93.6507 121.781 94.1399 121.851C94.1685 122.164 94.128 122.479 94.021 122.775C93.9141 123.07 93.7434 123.338 93.5211 123.56C93.2989 123.783 93.0304 123.953 92.7348 124.06C92.4391 124.167 92.1236 124.207 91.8105 124.179C91.4942 124.223 91.1719 124.194 90.8689 124.093C90.5659 123.992 90.2906 123.821 90.0647 123.596C89.8389 123.37 89.6686 123.095 89.5673 122.792C89.466 122.489 89.4365 122.167 89.4812 121.851V117.056C89.4812 115.624 90.0752 114.437 91.8105 114.437C92.1179 114.391 92.4318 114.416 92.7281 114.509C93.0244 114.603 93.2953 114.764 93.5201 114.978C93.7449 115.193 93.9176 115.456 94.025 115.747C94.1325 116.039 94.1718 116.351 94.1399 116.66" fill="#83D0F5"/>
<path d="M97.5983 124.051H96.0959V115.845H94.5469V114.448H99.1474V115.845H97.5983V124.051Z" fill="#83D0F5"/>
<path d="M104.507 121.141C104.507 123.143 103.668 124.051 101.898 124.051H99.918V114.448H102.014C103.703 114.448 104.425 115.356 104.425 117.056C104.475 117.441 104.403 117.832 104.219 118.174C104.035 118.517 103.749 118.793 103.4 118.964V119.034C104.251 119.302 104.565 120.198 104.565 121.141M101.898 115.903H101.42V118.382H101.898C102.667 118.382 103.063 117.952 103.063 117.137C103.063 116.322 102.748 115.903 101.898 115.903ZM101.991 119.733H101.42V122.712H102.014C102.969 122.712 103.109 121.967 103.109 121.071C103.109 120.175 102.818 119.733 101.945 119.733" fill="#83D0F5"/>
<path d="M108.079 124.132C106.46 124.132 105.75 123.294 105.75 121.804V116.974C105.75 115.473 106.414 114.425 108.079 114.425C109.745 114.425 110.409 115.368 110.409 116.962V121.618C110.409 123.283 109.675 124.156 108.079 124.156M108.079 115.787C107.381 115.787 107.241 116.474 107.241 116.951V121.781C107.241 122.27 107.462 122.736 108.068 122.736C108.673 122.736 108.906 122.27 108.906 121.676V116.8C108.906 116.252 108.732 115.764 108.079 115.764" fill="#83D0F5"/>
<path d="M119.144 116.59L117.688 116.962C117.688 116.252 117.443 115.799 116.849 115.799C116.255 115.799 116.011 116.462 116.011 116.962V121.839C116.011 122.212 116.127 122.794 116.803 122.794C117.478 122.794 117.63 122.386 117.653 121.63C118.142 121.723 118.643 121.781 119.144 121.851C119.172 122.164 119.132 122.479 119.025 122.775C118.918 123.07 118.747 123.338 118.525 123.56C118.303 123.783 118.034 123.953 117.739 124.06C117.443 124.167 117.128 124.207 116.814 124.179C116.498 124.223 116.176 124.194 115.873 124.093C115.57 123.992 115.295 123.821 115.069 123.596C114.843 123.37 114.672 123.095 114.571 122.792C114.47 122.489 114.44 122.167 114.485 121.851V117.056C114.485 115.624 115.079 114.437 116.814 114.437C117.121 114.393 117.434 114.42 117.73 114.514C118.025 114.609 118.295 114.769 118.519 114.983C118.743 115.197 118.916 115.459 119.024 115.75C119.132 116.04 119.173 116.351 119.144 116.66" fill="#83D0F5"/>
<path d="M125.051 116.124L123.746 117.172V115.566L125.132 114.448H126.53V124.051H125.051V116.124Z" fill="#83D0F5"/>
<path d="M130.116 120.082C129.219 120.082 128.625 119.605 128.625 118.231V116.555C128.593 116.264 128.626 115.969 128.722 115.692C128.817 115.415 128.973 115.163 129.178 114.954C129.383 114.745 129.632 114.583 129.907 114.482C130.182 114.38 130.476 114.341 130.768 114.367C131.041 114.333 131.318 114.36 131.579 114.447C131.84 114.534 132.078 114.678 132.276 114.869C132.473 115.06 132.626 115.293 132.722 115.55C132.818 115.808 132.855 116.084 132.83 116.357V117.579C132.842 118.211 132.752 118.84 132.562 119.442L130.792 124.097H129.219L130.78 120.012H130.722C130.539 120.121 130.329 120.177 130.116 120.175M130.733 119.011C131.164 119.011 131.351 118.673 131.351 118.301V116.45C131.351 116.078 131.106 115.892 130.733 115.892C130.654 115.882 130.574 115.889 130.498 115.912C130.422 115.936 130.352 115.976 130.292 116.028C130.232 116.081 130.185 116.146 130.153 116.219C130.12 116.292 130.104 116.371 130.104 116.45V118.429C130.1 118.511 130.114 118.592 130.145 118.668C130.176 118.743 130.223 118.811 130.283 118.867C130.343 118.922 130.414 118.964 130.492 118.989C130.57 119.014 130.652 119.021 130.733 119.011Z" fill="#83D0F5"/>
<path d="M135.671 117.067L134.203 116.904C134.203 115.252 135.065 114.32 136.381 114.32C137.918 114.32 138.524 115.205 138.524 116.578C138.538 117.349 138.345 118.108 137.965 118.778L136.008 122.596H138.431V124.051H134.285V122.759C135.112 121.199 135.904 119.64 136.707 118.103C136.937 117.654 137.042 117.152 137.01 116.648C137.01 116.322 136.917 115.799 136.369 115.799C135.822 115.799 135.671 116.136 135.671 117.137" fill="#83D0F5"/>
<path d="M140.158 124.051L142.499 115.822H141.125V116.858H139.809V114.448H144.048V115.705L141.625 124.051H140.158Z" fill="#83D0F5"/>
<path d="M149.729 124.051H148.25V114.448H152.396V115.857H149.729V124.051Z" fill="#83D0F5"/>
<path d="M153.42 122.386H151.871V124.051H153.42V122.386Z" fill="#83D0F5"/>
</g>
<defs>
<radialGradient id="paint0_radial_724_62" cx="0" cy="0" r="1" gradientUnits="userSpaceOnUse" gradientTransform="translate(81.2068 35.4946) rotate(0.0999352) scale(66.7131 34.1264)">
<stop stop-color="#E1F2FC"/>
<stop offset="0.3" stop-color="#DFF1FC"/>
<stop offset="0.41" stop-color="#D8EEFB"/>
<stop offset="0.49" stop-color="#CCEAFA"/>
<stop offset="0.51" stop-color="#C8E8F9"/>
<stop offset="0.73" stop-color="#ABDEF7"/>
<stop offset="1" stop-color="#83D0F4"/>
</radialGradient>
<clipPath id="clip0_724_62">
<rect width="160.09" height="125.821" fill="white" transform="translate(0.566406 0.057373)"/>
</clipPath>
</defs>
</svg>
