<svg width="462" height="331" viewBox="0 0 462 331" fill="none" xmlns="http://www.w3.org/2000/svg">
<path d="M0 227.394C0 213.826 9.49636 202.108 22.7708 199.298L440.739 110.812C451.653 108.502 461.925 116.826 461.925 127.982V209.731C461.925 223.3 452.428 235.017 439.154 237.827L21.1853 326.313C10.2716 328.624 0 320.299 0 309.144V227.394Z" fill="url(#paint0_linear_1002_69)"/>
<path d="M35.849 176.213C32.8881 176.842 31.4076 175.307 31.4076 171.607C31.4076 169.387 31.5063 166.743 31.7037 163.674C31.9669 158.506 32.0985 154.071 32.0985 150.372V133.016C32.0985 129.316 31.9669 124.938 31.7037 119.882C31.5063 116.897 31.4076 114.294 31.4076 112.074C31.4076 108.374 32.8881 106.21 35.849 105.581L56.3783 101.217C62.7608 99.8602 67.6629 100.298 71.0844 102.531C74.5718 104.749 76.3154 108.617 76.3154 114.133C76.3154 118.169 75.3285 121.742 73.3545 124.852C71.4463 127.882 68.5841 130.273 64.7677 132.026C64.5703 132.135 64.4716 132.29 64.4716 132.492V132.896C64.4716 133.097 64.5703 133.211 64.7677 133.236C69.1104 133.121 72.4333 134.298 74.7363 136.768C77.105 139.224 78.2894 142.807 78.2894 147.516C78.2894 153.637 76.5128 158.825 72.9597 163.078C69.4065 167.331 64.4387 170.136 58.0562 171.493L35.849 176.213ZM52.6278 131.276C56.1151 130.535 58.7142 129.209 60.425 127.298C62.1357 125.32 62.9911 122.716 62.9911 119.487C62.9911 116.259 62.1357 114.052 60.425 112.869C58.7142 111.618 56.1151 111.363 52.6278 112.104L48.3837 113.007C47.66 113.16 47.0678 113.522 46.6072 114.09C46.1466 114.659 45.9163 115.314 45.9163 116.054V130.18C45.9163 130.92 46.1466 131.477 46.6072 131.85C47.0678 132.222 47.66 132.332 48.3837 132.178L52.6278 131.276ZM52.6278 162.556C56.1809 161.801 58.8787 160.353 60.7211 158.212C62.5634 156.072 63.4846 153.051 63.4846 149.149C63.4846 142.086 59.8657 139.323 52.6278 140.862L48.3837 141.764C47.66 141.918 47.0678 142.279 46.6072 142.848C46.1466 143.417 45.9163 144.071 45.9163 144.811V161.46C45.9163 162.2 46.1466 162.757 46.6072 163.13C47.0678 163.503 47.66 163.612 48.3837 163.458L52.6278 162.556ZM94.7953 163.684C91.8344 164.313 90.3539 162.778 90.3539 159.078C90.3539 156.858 90.4526 154.214 90.65 151.145C90.9132 145.976 91.0448 141.542 91.0448 137.842V120.487C91.0448 116.787 90.9132 112.409 90.65 107.352C90.4526 104.367 90.3539 101.765 90.3539 99.5448C90.3539 95.845 91.8344 93.6805 94.7953 93.0511L101.112 91.7084C104.073 91.0791 105.553 92.6143 105.553 96.3141C105.553 98.5339 105.455 101.178 105.257 104.247C104.994 109.416 104.863 113.85 104.863 117.55V118.66C104.863 119.4 105.093 119.956 105.553 120.329C106.014 120.702 106.606 120.812 107.33 120.658L109.6 120.175C115.193 118.986 117.99 115.197 117.99 108.806L117.891 104.589C117.759 101.523 117.693 98.577 117.693 95.7517C117.693 93.4646 118.187 91.5434 119.174 89.9882C120.161 88.3658 121.608 87.3518 123.517 86.9462L130.623 85.4357C131.347 85.2819 131.873 85.4054 132.202 85.8064C132.597 86.1933 132.728 86.7708 132.597 87.5387C132.202 89.9098 132.005 92.4071 132.005 95.0305L132.103 98.9448C132.169 99.5362 132.202 100.37 132.202 101.446C132.202 106.155 131.478 110.076 130.031 113.209C128.583 116.342 126.313 118.91 123.221 120.913C123.023 121.022 122.924 121.177 122.924 121.379V121.783C122.924 121.917 123.023 122.031 123.221 122.124C126.839 122.767 129.406 124.341 130.919 126.844C132.498 129.334 133.288 133.337 133.288 138.853C133.288 143.629 134.11 148.062 135.755 152.152C135.887 152.528 135.953 152.85 135.953 153.119C135.953 153.657 135.755 154.136 135.36 154.557C135.031 154.963 134.538 155.236 133.88 155.376L124.405 157.39C122.694 157.754 121.312 157.375 120.26 156.253C119.207 155.131 118.68 153.427 118.68 151.14L118.779 146.074C118.911 142.951 118.976 139.91 118.976 136.95C118.976 133.789 118.286 131.548 116.904 130.227C115.588 128.825 113.252 128.48 109.896 129.194L107.33 129.739C106.606 129.893 106.014 130.254 105.553 130.823C105.093 131.392 104.863 132.046 104.863 132.786V134.905C104.863 138.605 104.994 142.983 105.257 148.04C105.455 151.025 105.553 153.627 105.553 155.847C105.553 159.547 104.073 161.712 101.112 162.341L94.7953 163.684ZM146.319 152.732C145.595 152.886 145.003 152.776 144.543 152.403C144.082 152.03 143.852 151.474 143.852 150.734V144.175C143.852 143.435 144.082 142.781 144.543 142.212C145.003 141.643 145.595 141.282 146.319 141.128L152.537 139.806C154.314 139.429 155.498 138.908 156.09 138.244C156.748 137.566 157.341 136.195 157.867 134.133L158.36 132.111C158.426 131.895 158.459 131.484 158.459 130.879C158.459 130.072 158.393 129.547 158.262 129.306L146.122 96.4696C146.122 96.4696 145.431 94.7329 144.049 91.2596C143.918 90.9512 143.424 89.778 142.569 87.7399C142.24 86.8008 142.075 86.0622 142.075 85.524C142.075 83.8423 143.029 82.7987 144.937 82.3931L151.254 81.0504C153.952 80.477 155.794 81.6662 156.781 84.618C157.044 85.4366 157.373 86.6784 157.768 88.3435L159.347 93.7593L164.578 110.104C164.71 110.479 164.973 110.625 165.368 110.541C165.829 110.443 166.092 110.186 166.158 109.768L171.093 91.3637C171.553 89.6514 172.047 87.5957 172.573 85.1966L173.56 81.0516C174.021 79.3392 174.712 78.0152 175.633 77.0794C176.62 76.0624 177.738 75.421 178.988 75.1553L183.331 74.2322C185.239 73.8266 186.193 74.4983 186.193 76.2473C186.193 76.9873 186.062 77.7552 185.799 78.5511C185.404 79.8459 184.877 81.4377 184.219 83.3265L182.443 88.7493L168.428 135.42C167.309 139.088 166.289 141.861 165.368 143.739C164.447 145.616 163.197 147.126 161.618 148.269C160.104 149.398 157.966 150.256 155.202 150.844L146.319 152.732ZM214.66 139.215C209.66 140.277 205.35 139.815 201.731 137.826C198.112 135.77 195.348 132.186 193.44 127.076C191.4 121.523 190.381 115.181 190.381 108.05C190.381 100.785 191.4 94.0095 193.44 87.7235C195.348 81.8019 198.112 77.0774 201.731 73.5501C205.35 69.9556 209.66 67.6269 214.66 66.5639C219.266 65.5849 223.247 65.8151 226.603 67.2544C229.959 68.6937 232.492 71.216 234.203 74.8212C235.914 78.4265 236.703 82.9338 236.571 88.3433C236.571 89.0833 236.308 89.7447 235.782 90.3274C235.321 90.8962 234.729 91.2575 234.005 91.4114L226.702 92.9638C225.057 93.3135 224.201 92.6544 224.135 90.9867C223.675 84.8958 222.721 80.928 221.273 79.083C219.826 77.1709 217.786 76.4945 215.154 77.0539C212.785 77.5574 210.91 78.8642 209.528 80.9741C208.146 83.0841 207.159 86.4555 206.567 91.0884C206.107 95.1552 205.876 99.7112 205.876 104.756C205.876 109.734 206.107 114.192 206.567 118.131C207.159 122.512 208.146 125.464 209.528 126.986C210.91 128.509 212.785 129.018 215.154 128.515C217.786 127.955 219.826 126.479 221.273 124.086C222.721 121.626 223.642 117.461 224.037 111.592C224.103 110.838 224.366 110.21 224.826 109.709C225.287 109.14 225.879 108.779 226.603 108.625L233.907 107.072C234.63 106.919 235.223 107.028 235.683 107.401C236.21 107.76 236.473 108.31 236.473 109.05C236.604 114.134 235.782 118.816 234.005 123.095C232.295 127.293 229.761 130.791 226.406 133.59C223.05 136.389 219.135 138.263 214.66 139.215ZM252.646 130.131C249.685 130.761 248.205 129.225 248.205 125.526C248.205 123.306 248.304 120.661 248.501 117.592C248.764 112.424 248.896 107.99 248.896 104.29V86.9346C248.896 83.2348 248.764 78.8566 248.501 73.8001C248.304 70.815 248.205 68.2124 248.205 65.9926C248.205 62.2928 249.685 60.1282 252.646 59.4988L258.963 58.1562C261.924 57.5268 263.405 59.062 263.405 62.7618C263.405 64.9817 263.306 67.6261 263.108 70.6952C262.845 75.8636 262.714 80.2977 262.714 83.9975V86.1165C262.714 86.5201 262.845 86.8621 263.108 87.1425C263.372 87.3556 263.734 87.4132 264.194 87.3153L276.038 84.7979C276.499 84.6999 276.86 84.4885 277.124 84.1635C277.387 83.7712 277.518 83.3732 277.518 82.9696V80.8506C277.518 77.1508 277.387 72.7727 277.124 67.7162C276.926 64.731 276.828 62.1285 276.828 59.9086C276.828 56.2089 278.308 54.0443 281.269 53.4149L287.586 52.0722C290.547 51.4429 292.027 52.9781 292.027 56.6779C292.027 58.8978 291.928 61.5422 291.731 64.6113C291.468 69.7797 291.336 74.2138 291.336 77.9136V95.269C291.336 98.9688 291.468 103.347 291.731 108.403C291.928 111.389 292.027 113.991 292.027 116.211C292.027 119.911 290.547 122.075 287.586 122.705L281.269 124.047C278.308 124.677 276.828 123.142 276.828 119.442C276.828 117.222 276.926 114.577 277.124 111.508C277.387 106.34 277.518 101.906 277.518 98.206V96.0871C277.518 95.6162 277.354 95.2812 277.025 95.082C276.762 94.8689 276.433 94.8043 276.038 94.8882L264.194 97.4057C263.799 97.4896 263.437 97.7011 263.108 98.0401C262.845 98.3651 262.714 98.763 262.714 99.2339V101.353C262.714 105.053 262.845 109.431 263.108 114.487C263.306 117.472 263.405 120.075 263.405 122.295C263.405 125.995 261.924 128.159 258.963 128.789L252.646 130.131ZM311.246 118.382C307.628 119.151 305.818 118.022 305.818 114.995V74.8354C305.818 71.1356 305.686 66.7574 305.423 61.7009C305.226 58.7158 305.127 56.1133 305.127 53.8934C305.127 50.1936 306.608 48.029 309.569 47.3996L315.885 46.057C318.846 45.4276 320.327 46.9628 320.327 50.6626C320.327 52.8825 320.228 55.527 320.031 58.596C319.767 63.7644 319.636 68.1985 319.636 71.8983V71.9992C319.636 72.7392 319.866 73.2956 320.327 73.6686C320.787 74.0416 321.38 74.1512 322.103 73.9973L329.604 72.4029C336.711 70.8924 342.139 71.6221 345.89 74.592C349.64 77.4946 351.516 82.1075 351.516 88.4308C351.516 94.7541 349.64 100.198 345.89 104.762C342.139 109.259 336.711 112.263 329.604 113.773L329.012 113.899C327.565 114.207 326.117 114.548 324.669 114.923C323.222 115.298 321.84 115.659 320.524 116.006C316.181 117.198 313.089 117.99 311.246 118.382ZM360.398 107.228C357.437 107.857 355.957 106.322 355.957 102.622C355.957 100.402 356.056 97.7579 356.253 94.6889C356.516 89.5205 356.648 85.0864 356.648 81.3866V64.0312C356.648 60.3314 356.516 55.9532 356.253 50.8967C356.056 47.9116 355.957 45.3091 355.957 43.0892C355.957 39.3894 357.437 37.2248 360.398 36.5954L366.715 35.2528C369.676 34.6234 371.157 36.1586 371.157 39.8584C371.157 42.0783 371.058 44.7228 370.86 47.7918C370.597 52.9602 370.466 57.3943 370.466 61.0941V78.4495C370.466 82.1493 370.597 86.5275 370.86 91.584C371.058 94.5691 371.157 97.1716 371.157 99.3915C371.157 103.091 369.676 105.256 366.715 105.885L360.398 107.228ZM325.36 105.09C332.927 103.481 336.711 98.9772 336.711 91.5776C336.711 84.1781 332.927 81.2825 325.36 82.8908L322.103 83.5832C321.38 83.737 320.787 84.0983 320.327 84.6671C319.866 85.2359 319.636 85.8903 319.636 86.6302V103.784C319.636 104.524 319.866 105.08 320.327 105.453C320.787 105.826 321.38 105.936 322.103 105.782L325.36 105.09ZM421.723 94.6974C420.934 94.8652 420.079 95.0134 419.157 95.1419C418.302 95.2565 417.479 95.364 416.69 95.4646L413.137 96.018L388.659 101.221C385.699 101.85 384.218 100.315 384.218 96.6152C384.218 94.3953 384.317 91.7508 384.514 88.6818C384.777 83.5134 384.909 79.0793 384.909 75.3795V58.0241C384.909 54.3243 384.777 49.9461 384.514 44.8896C384.317 41.9045 384.218 39.302 384.218 37.0821C384.218 33.3823 385.699 31.2177 388.659 30.5883L412.15 25.5953L415.703 24.6383C416.492 24.4032 417.315 24.1611 418.17 23.912C419.092 23.6489 419.947 23.4335 420.736 23.2656C423.368 22.7062 424.684 23.6037 424.684 25.9581V31.0033C424.684 33.3577 423.368 34.8146 420.736 35.3741C419.947 35.5419 419.092 35.6901 418.17 35.8186C417.315 35.9332 416.492 36.0407 415.703 36.1413L412.15 36.6947L401.194 39.0234C400.47 39.1772 399.878 39.5386 399.418 40.1074C398.957 40.6761 398.727 41.3305 398.727 42.0705V55.6924C398.727 56.4324 398.957 56.9889 399.418 57.3619C399.878 57.7348 400.47 57.8444 401.194 57.6906L408.695 56.0962L412.248 55.1391C413.038 54.904 413.86 54.6619 414.716 54.4128C415.637 54.1497 416.492 53.9343 417.282 53.7665C419.914 53.207 421.23 54.1045 421.23 56.4589V60.9996C421.23 63.354 419.914 64.8109 417.282 65.3704C416.492 65.5382 415.637 65.6864 414.716 65.8149C413.86 65.9295 413.038 66.037 412.248 66.1376L408.695 66.691L401.194 68.2854C400.47 68.4393 399.878 68.8006 399.418 69.3694C398.957 69.9382 398.727 70.5925 398.727 71.3325V85.459C398.727 86.1989 398.957 86.7554 399.418 87.1284C399.878 87.5014 400.47 87.6109 401.194 87.4571L413.137 84.9186L416.69 83.9616C417.479 83.7265 418.302 83.4844 419.157 83.2353C420.079 82.9722 420.934 82.7568 421.723 82.5889C424.355 82.0295 425.671 82.927 425.671 85.2814V90.3266C425.671 92.681 424.355 94.1379 421.723 94.6974ZM35.849 292.213C32.8881 292.842 31.4076 291.307 31.4076 287.607C31.4076 285.387 31.5063 282.743 31.7037 279.674C31.9669 274.506 32.0985 270.071 32.0985 266.372V249.016C32.0985 245.316 31.9669 240.938 31.7037 235.882C31.5063 232.897 31.4076 230.294 31.4076 228.074C31.4076 224.374 32.8881 222.21 35.849 221.581L42.1657 220.238C45.1267 219.608 46.6072 221.144 46.6072 224.843C46.6072 227.063 46.5085 229.708 46.3111 232.777C46.0479 237.945 45.9163 242.379 45.9163 246.079V248.198C45.9163 248.602 46.0479 248.944 46.3111 249.224C46.5743 249.437 46.9362 249.495 47.3968 249.397L59.2406 246.88C59.7012 246.782 60.0631 246.57 60.3263 246.245C60.5895 245.853 60.7211 245.455 60.7211 245.051V242.932C60.7211 239.233 60.5895 234.854 60.3263 229.798C60.1289 226.813 60.0302 224.21 60.0302 221.99C60.0302 218.291 61.5107 216.126 64.4716 215.497L70.7883 214.154C73.7493 213.525 75.2298 215.06 75.2298 218.76C75.2298 220.979 75.1311 223.624 74.9337 226.693C74.6705 231.861 74.5389 236.295 74.5389 239.995V257.351C74.5389 261.05 74.6705 265.429 74.9337 270.485C75.1311 273.47 75.2298 276.073 75.2298 278.293C75.2298 281.992 73.7493 284.157 70.7883 284.786L64.4716 286.129C61.5107 286.758 60.0302 285.223 60.0302 281.523C60.0302 279.304 60.1289 276.659 60.3263 273.59C60.5895 268.422 60.7211 263.988 60.7211 260.288V258.169C60.7211 257.698 60.5566 257.363 60.2276 257.164C59.9644 256.951 59.6354 256.886 59.2406 256.97L47.3968 259.487C47.002 259.571 46.6401 259.783 46.3111 260.122C46.0479 260.447 45.9163 260.845 45.9163 261.316V263.435C45.9163 267.134 46.0479 271.513 46.3111 276.569C46.5085 279.554 46.6072 282.157 46.6072 284.377C46.6072 288.076 45.1267 290.241 42.1657 290.87L35.849 292.213ZM112.116 277.011C101.194 279.333 93.7911 275.356 89.909 265.082C87.8692 259.529 86.8493 253.187 86.8493 246.056C86.8493 238.791 87.8692 232.016 89.909 225.73C93.7911 213.805 101.194 206.682 112.116 204.36C123.105 202.025 130.507 206.001 134.323 216.289C136.363 221.708 137.383 228.05 137.383 235.315C137.383 242.446 136.363 249.221 134.323 255.642C130.507 267.552 123.105 274.675 112.116 277.011ZM112.116 266.921C114.88 266.333 116.92 264.991 118.235 262.896C119.617 260.718 120.604 257.347 121.196 252.781C121.657 248.647 121.887 243.923 121.887 238.609C121.887 233.227 121.657 228.601 121.196 224.73C120.604 220.416 119.617 217.498 118.235 215.975C116.92 214.372 114.88 213.863 112.116 214.451C109.353 215.038 107.28 216.42 105.898 218.598C104.582 220.694 103.628 224.025 103.036 228.59C102.575 232.657 102.345 237.381 102.345 242.763C102.345 248.077 102.575 252.703 103.036 256.641C103.628 260.955 104.582 263.914 105.898 265.518C107.28 267.04 109.353 267.508 112.116 266.921ZM153.453 267.216C150.492 267.845 149.011 266.31 149.011 262.61C149.011 260.39 149.11 257.746 149.307 254.677C149.57 249.508 149.702 245.074 149.702 241.374V224.019C149.702 220.319 149.57 215.941 149.307 210.884C149.11 207.899 149.011 205.297 149.011 203.077C149.011 199.377 150.492 197.212 153.453 196.583L173.982 192.219C180.364 190.863 185.266 191.301 188.688 193.533C192.175 195.752 193.919 199.619 193.919 205.135C193.919 209.171 192.932 212.745 190.958 215.855C189.05 218.884 186.188 221.275 182.371 223.028C182.174 223.137 182.075 223.293 182.075 223.495V223.898C182.075 224.1 182.174 224.214 182.371 224.239C186.714 224.123 190.037 225.3 192.34 227.771C194.709 230.227 195.893 233.81 195.893 238.518C195.893 244.64 194.116 249.827 190.563 254.081C187.01 258.334 182.042 261.139 175.66 262.495L153.453 267.216ZM170.231 222.279C173.719 221.537 176.318 220.211 178.028 218.301C179.739 216.323 180.595 213.719 180.595 210.49C180.595 207.261 179.739 205.055 178.028 203.871C176.318 202.621 173.719 202.366 170.231 203.107L165.987 204.009C165.263 204.163 164.671 204.524 164.211 205.093C163.75 205.662 163.52 206.316 163.52 207.056V221.183C163.52 221.923 163.75 222.479 164.211 222.852C164.671 223.225 165.263 223.335 165.987 223.181L170.231 222.279ZM170.231 253.559C173.784 252.804 176.482 251.356 178.325 249.215C180.167 247.074 181.088 244.053 181.088 240.152C181.088 233.088 177.469 230.326 170.231 231.865L165.987 232.767C165.263 232.92 164.671 233.282 164.211 233.851C163.75 234.419 163.52 235.074 163.52 235.814V252.463C163.52 253.203 163.75 253.759 164.211 254.132C164.671 254.505 165.263 254.615 165.987 254.461L170.231 253.559ZM211.905 254.791C208.944 255.42 207.464 253.885 207.464 250.185C207.464 247.966 207.563 245.321 207.76 242.252C208.023 237.084 208.155 232.65 208.155 228.95V211.594C208.155 207.895 208.023 203.516 207.76 198.46C207.563 195.475 207.464 192.872 207.464 190.652C207.464 186.953 208.944 184.788 211.905 184.159L217.235 183.026C220.196 182.396 221.676 183.932 221.676 187.631C221.676 189.851 221.578 192.496 221.38 195.565C221.117 200.733 220.986 205.167 220.986 208.867V222.186C220.986 222.59 221.183 222.75 221.578 222.666C221.973 222.582 222.236 222.324 222.367 221.893L238.06 180.92C238.718 179.233 239.804 178.229 241.318 177.907L247.141 176.669C250.102 176.04 251.582 177.575 251.582 181.275C251.582 183.495 251.483 186.139 251.286 189.208C251.023 194.377 250.891 198.811 250.891 202.51V219.866C250.891 223.566 251.023 227.944 251.286 233C251.483 235.985 251.582 238.588 251.582 240.808C251.582 244.508 250.102 246.672 247.141 247.302L241.811 248.434C238.85 249.064 237.37 247.529 237.37 243.829C237.37 241.609 237.468 238.964 237.666 235.895C237.929 230.727 238.06 226.293 238.06 222.593V209.274C238.06 208.87 237.863 208.71 237.468 208.794C237.139 208.864 236.876 209.122 236.679 209.568L220.986 250.54C220.591 251.499 220.13 252.202 219.604 252.65C219.143 253.084 218.518 253.385 217.729 253.553L211.905 254.791ZM268.646 242.73C265.685 243.36 264.205 241.825 264.205 238.125C264.205 235.905 264.304 233.26 264.501 230.191C264.764 225.023 264.896 220.589 264.896 216.889V199.534C264.896 195.834 264.764 191.456 264.501 186.399C264.304 183.414 264.205 180.812 264.205 178.592C264.205 174.892 265.685 172.727 268.646 172.098L274.963 170.755C277.924 170.126 279.405 171.661 279.405 175.361C279.405 177.581 279.306 180.225 279.108 183.294C278.845 188.463 278.714 192.897 278.714 196.597V198.716C278.714 199.119 278.845 199.461 279.108 199.742C279.372 199.955 279.733 200.012 280.194 199.914L292.038 197.397C292.499 197.299 292.86 197.088 293.124 196.763C293.387 196.37 293.518 195.972 293.518 195.569V193.45C293.518 189.75 293.387 185.372 293.124 180.315C292.926 177.33 292.828 174.728 292.828 172.508C292.828 168.808 294.308 166.643 297.269 166.014L303.586 164.671C306.547 164.042 308.027 165.577 308.027 169.277C308.027 171.497 307.928 174.141 307.731 177.21C307.468 182.379 307.336 186.813 307.336 190.513V207.868C307.336 211.568 307.468 215.946 307.731 221.003C307.928 223.988 308.027 226.59 308.027 228.81C308.027 232.51 306.547 234.674 303.586 235.304L297.269 236.646C294.308 237.276 292.828 235.741 292.828 232.041C292.828 229.821 292.926 227.176 293.124 224.107C293.387 218.939 293.518 214.505 293.518 210.805V208.686C293.518 208.215 293.354 207.88 293.025 207.681C292.762 207.468 292.433 207.403 292.038 207.487L280.194 210.005C279.799 210.089 279.437 210.3 279.108 210.639C278.845 210.964 278.714 211.362 278.714 211.833V213.952C278.714 217.652 278.845 222.03 279.108 227.086C279.306 230.072 279.405 232.674 279.405 234.894C279.405 238.594 277.924 240.758 274.963 241.388L268.646 242.73ZM325.569 230.631C322.608 231.261 321.127 229.725 321.127 226.026C321.127 223.806 321.226 221.161 321.423 218.092C321.686 212.924 321.818 208.49 321.818 204.79V187.434C321.818 183.735 321.686 179.357 321.423 174.3C321.226 171.315 321.127 168.712 321.127 166.492C321.127 162.793 322.608 160.628 325.569 159.999L331.885 158.656C334.846 158.027 336.327 159.562 336.327 163.262C336.327 165.482 336.228 168.126 336.031 171.195C335.767 176.364 335.636 180.798 335.636 184.497V185.607C335.636 186.347 335.866 186.904 336.327 187.277C336.787 187.65 337.38 187.759 338.103 187.605L340.373 187.123C345.966 185.934 348.763 182.144 348.763 175.754L348.664 171.537C348.532 168.471 348.467 165.525 348.467 162.699C348.467 160.412 348.96 158.491 349.947 156.936C350.934 155.313 352.382 154.299 354.29 153.894L361.396 152.383C362.12 152.229 362.646 152.353 362.975 152.754C363.37 153.141 363.502 153.718 363.37 154.486C362.975 156.857 362.778 159.355 362.778 161.978L362.877 165.892C362.942 166.484 362.975 167.318 362.975 168.394C362.975 173.103 362.252 177.024 360.804 180.157C359.356 183.29 357.086 185.858 353.994 187.86C353.796 187.97 353.698 188.125 353.698 188.327V188.731C353.698 188.865 353.796 188.979 353.994 189.071C357.613 189.715 360.179 191.288 361.692 193.792C363.271 196.281 364.061 200.284 364.061 205.8C364.061 210.576 364.884 215.01 366.528 219.1C366.66 219.475 366.726 219.798 366.726 220.067C366.726 220.605 366.528 221.084 366.134 221.504C365.805 221.911 365.311 222.184 364.653 222.324L355.178 224.338C353.467 224.701 352.086 224.322 351.033 223.201C349.98 222.079 349.454 220.375 349.454 218.087L349.552 213.021C349.684 209.899 349.75 206.858 349.75 203.898C349.75 200.736 349.059 198.495 347.677 197.174C346.361 195.772 344.025 195.428 340.669 196.141L338.103 196.687C337.38 196.841 336.787 197.202 336.327 197.771C335.866 198.34 335.636 198.994 335.636 199.734V201.853C335.636 205.553 335.767 209.931 336.031 214.987C336.228 217.972 336.327 220.575 336.327 222.795C336.327 226.495 334.846 228.659 331.885 229.289L325.569 230.631ZM380.744 218.903C377.783 219.533 376.303 217.997 376.303 214.298C376.303 212.078 376.402 209.433 376.599 206.364C376.862 201.196 376.994 196.762 376.994 193.062V175.707C376.994 172.007 376.862 167.629 376.599 162.572C376.402 159.587 376.303 156.984 376.303 154.765C376.303 151.065 377.783 148.9 380.744 148.271L386.074 147.138C389.035 146.509 390.515 148.044 390.515 151.744C390.515 153.963 390.417 156.608 390.219 159.677C389.956 164.845 389.825 169.279 389.825 172.979V186.298C389.825 186.702 390.022 186.862 390.417 186.778C390.812 186.694 391.075 186.436 391.206 186.005L406.899 145.032C407.557 143.345 408.643 142.341 410.156 142.019L415.98 140.781C418.941 140.152 420.421 141.687 420.421 145.387C420.421 147.607 420.322 150.251 420.125 153.32C419.862 158.489 419.73 162.923 419.73 166.623V183.978C419.73 187.678 419.862 192.056 420.125 197.112C420.322 200.098 420.421 202.7 420.421 204.92C420.421 208.62 418.941 210.784 415.98 211.414L410.65 212.547C407.689 213.176 406.209 211.641 406.209 207.941C406.209 205.721 406.307 203.077 406.505 200.008C406.768 194.839 406.899 190.405 406.899 186.705V173.386C406.899 172.982 406.702 172.823 406.307 172.906C405.978 172.976 405.715 173.234 405.518 173.68L389.825 214.652C389.43 215.611 388.969 216.314 388.443 216.762C387.982 217.197 387.357 217.498 386.568 217.665L380.744 218.903Z" fill="white"/>
<defs>
<linearGradient id="paint0_linear_1002_69" x1="215.246" y1="111.373" x2="215.246" y2="308.269" gradientUnits="userSpaceOnUse">
<stop stop-color="#E42313"/>
<stop offset="1" stop-color="#FC5E51"/>
</linearGradient>
</defs>
</svg>
